%TF.GenerationSoftware,KiCad,Pcbnew,7.0.11-7.0.11~ubuntu22.04.1*%
%TF.CreationDate,2024-11-21T15:06:29+02:00*%
%TF.ProjectId,POEv3_Rev_A,504f4576-335f-4526-9576-5f412e6b6963,A*%
%TF.SameCoordinates,PX55d4a80PY8a48640*%
%TF.FileFunction,Legend,Bot*%
%TF.FilePolarity,Positive*%
%FSLAX46Y46*%
G04 Gerber Fmt 4.6, Leading zero omitted, Abs format (unit mm)*
G04 Created by KiCad (PCBNEW 7.0.11-7.0.11~ubuntu22.04.1) date 2024-11-21 15:06:29*
%MOMM*%
%LPD*%
G01*
G04 APERTURE LIST*
%ADD10C,0.254000*%
%ADD11C,0.508000*%
%ADD12C,0.317500*%
%ADD13C,0.285750*%
%ADD14C,0.228600*%
%ADD15C,0.150000*%
%ADD16C,0.127000*%
%ADD17C,0.300000*%
%ADD18C,0.200000*%
%ADD19C,0.010000*%
%ADD20C,0.013000*%
%ADD21C,0.700000*%
%ADD22C,0.100000*%
%ADD23C,0.500000*%
%ADD24C,0.400000*%
G04 APERTURE END LIST*
D10*
X20900000Y8000000D02*
X21300000Y8300000D01*
X22500000Y8000000D02*
X20900000Y8000000D01*
X5000000Y25000000D02*
X25000000Y25000000D01*
X21300000Y7700000D02*
X20900000Y8000000D01*
X20750000Y4999999D02*
X25000000Y4999999D01*
X5000000Y5000000D02*
X5000000Y25000000D01*
X25000000Y4999999D02*
X25000000Y25000000D01*
X5000000Y5000000D02*
X15250000Y5000000D01*
D11*
G36*
X2993482Y20496172D02*
G01*
X3108112Y20381542D01*
X3159625Y20278516D01*
X3159625Y20011390D01*
X3108112Y19908364D01*
X2993482Y19793734D01*
X2705024Y19721619D01*
X2090227Y19721619D01*
X1801768Y19793734D01*
X1687138Y19908364D01*
X1635625Y20011391D01*
X1635625Y20278515D01*
X1687138Y20381542D01*
X1801768Y20496172D01*
X2090227Y20568286D01*
X2705024Y20568286D01*
X2993482Y20496172D01*
G37*
G36*
X2192006Y22043391D02*
G01*
X2140491Y21940363D01*
X2102023Y21901894D01*
X1998997Y21850381D01*
X1828635Y21850381D01*
X1725607Y21901895D01*
X1687138Y21940364D01*
X1635625Y22043391D01*
X1635625Y22503524D01*
X2192006Y22503524D01*
X2192006Y22043391D01*
G37*
G36*
X3957911Y13601429D02*
G01*
X837339Y13601429D01*
X837339Y14145715D01*
X1127625Y14145715D01*
X1135675Y14105245D01*
X1141014Y14064339D01*
X1145288Y14056916D01*
X1146960Y14048513D01*
X1169880Y14014210D01*
X1190470Y13978455D01*
X1197261Y13973232D01*
X1202020Y13966110D01*
X1236321Y13943191D01*
X1269029Y13918035D01*
X1277301Y13915809D01*
X1284423Y13911050D01*
X1324888Y13903001D01*
X1364729Y13892278D01*
X1373222Y13893387D01*
X1381625Y13891715D01*
X1422095Y13899766D01*
X1463001Y13905104D01*
X1470424Y13909379D01*
X1478827Y13911050D01*
X1513130Y13933971D01*
X1548885Y13954560D01*
X1974593Y14327056D01*
X2025298Y14225647D01*
X2050260Y14193484D01*
X2072877Y14159635D01*
X2169638Y14062873D01*
X2203488Y14040255D01*
X2235652Y14015292D01*
X2429175Y13918531D01*
X2437977Y13916121D01*
X2445566Y13911050D01*
X2485494Y13903108D01*
X2524762Y13892354D01*
X2533816Y13893496D01*
X2542768Y13891715D01*
X3026578Y13891715D01*
X3035528Y13893496D01*
X3044583Y13892354D01*
X3083853Y13903108D01*
X3123780Y13911050D01*
X3131366Y13916120D01*
X3140170Y13918530D01*
X3333694Y14015292D01*
X3365860Y14040257D01*
X3399707Y14062872D01*
X3496469Y14159634D01*
X3519087Y14193485D01*
X3544049Y14225648D01*
X3640810Y14419172D01*
X3643220Y14427974D01*
X3648290Y14435561D01*
X3656232Y14475492D01*
X3666986Y14514759D01*
X3665844Y14523813D01*
X3667625Y14532763D01*
X3667625Y15113334D01*
X3665844Y15122285D01*
X3666986Y15131338D01*
X3656232Y15170606D01*
X3648290Y15210536D01*
X3643220Y15218124D01*
X3640810Y15226925D01*
X3544049Y15420449D01*
X3519087Y15452613D01*
X3496469Y15486463D01*
X3399707Y15583225D01*
X3317303Y15638285D01*
X3220102Y15657620D01*
X3122901Y15638285D01*
X3040497Y15583225D01*
X2985437Y15500821D01*
X2966102Y15403620D01*
X2985437Y15306419D01*
X3040497Y15224015D01*
X3108112Y15156400D01*
X3159625Y15053374D01*
X3159625Y14592724D01*
X3108112Y14489698D01*
X3069643Y14451229D01*
X2966616Y14399715D01*
X2602730Y14399715D01*
X2499702Y14451229D01*
X2461234Y14489698D01*
X2409721Y14592725D01*
X2409721Y14823048D01*
X2401673Y14863504D01*
X2396333Y14904424D01*
X2392057Y14911850D01*
X2390386Y14920250D01*
X2367468Y14954549D01*
X2346876Y14990308D01*
X2340084Y14995532D01*
X2335326Y15002653D01*
X2301024Y15025573D01*
X2268317Y15050728D01*
X2260044Y15052955D01*
X2252923Y15057713D01*
X2212465Y15065761D01*
X2172617Y15076486D01*
X2164120Y15075378D01*
X2155721Y15077048D01*
X2115264Y15069001D01*
X2074346Y15063660D01*
X2066920Y15059385D01*
X2058519Y15057713D01*
X2024217Y15034794D01*
X1988461Y15014203D01*
X1635625Y14705472D01*
X1635625Y15403620D01*
X1616290Y15500822D01*
X1561230Y15583225D01*
X1478827Y15638285D01*
X1381625Y15657620D01*
X1284423Y15638285D01*
X1202020Y15583225D01*
X1146960Y15500822D01*
X1127625Y15403620D01*
X1127625Y14145715D01*
X837339Y14145715D01*
X837339Y15996804D01*
X1805273Y15996804D01*
X1819757Y15898762D01*
X1870658Y15813725D01*
X1950225Y15754642D01*
X2046346Y15730505D01*
X2144388Y15744989D01*
X3499054Y16228797D01*
X3509994Y16235347D01*
X3522359Y16238451D01*
X3552203Y16260612D01*
X3584090Y16279699D01*
X3591688Y16289932D01*
X3601927Y16297534D01*
X3621022Y16329435D01*
X3643174Y16359266D01*
X3646278Y16371628D01*
X3652828Y16382570D01*
X3658261Y16419349D01*
X3667311Y16455387D01*
X3665448Y16467997D01*
X3667312Y16480613D01*
X3658257Y16516672D01*
X3652827Y16553429D01*
X3646281Y16564365D01*
X3643175Y16576734D01*
X3621009Y16606584D01*
X3601926Y16638465D01*
X3591692Y16646064D01*
X3584091Y16656301D01*
X3552197Y16675392D01*
X3522359Y16697549D01*
X3509994Y16700654D01*
X3499055Y16707202D01*
X2144389Y17191012D01*
X2046346Y17205496D01*
X1950225Y17181359D01*
X1870658Y17122276D01*
X1819757Y17037240D01*
X1805273Y16939197D01*
X1829410Y16843076D01*
X1888493Y16763509D01*
X1973529Y16712608D01*
X2658429Y16468000D01*
X1973530Y16223393D01*
X1888493Y16172492D01*
X1829410Y16092925D01*
X1805273Y15996804D01*
X837339Y15996804D01*
X837339Y17629143D01*
X1127625Y17629143D01*
X1146960Y17531941D01*
X1202020Y17449538D01*
X1284423Y17394478D01*
X1381625Y17375143D01*
X1478827Y17394478D01*
X1561230Y17449538D01*
X1616290Y17531941D01*
X1635625Y17629143D01*
X1635625Y18342762D01*
X2095244Y18342762D01*
X2095244Y17919429D01*
X2114579Y17822227D01*
X2169639Y17739824D01*
X2252042Y17684764D01*
X2349244Y17665429D01*
X2446446Y17684764D01*
X2528849Y17739824D01*
X2583909Y17822227D01*
X2603244Y17919429D01*
X2603244Y18342762D01*
X3159625Y18342762D01*
X3159625Y17629143D01*
X3178960Y17531941D01*
X3234020Y17449538D01*
X3316423Y17394478D01*
X3413625Y17375143D01*
X3510827Y17394478D01*
X3593230Y17449538D01*
X3648290Y17531941D01*
X3667625Y17629143D01*
X3667625Y18596762D01*
X3648290Y18693964D01*
X3593230Y18776367D01*
X3510827Y18831427D01*
X3413625Y18850762D01*
X1381625Y18850762D01*
X1284423Y18831427D01*
X1202020Y18776367D01*
X1146960Y18693964D01*
X1127625Y18596762D01*
X1127625Y17629143D01*
X837339Y17629143D01*
X837339Y19951429D01*
X1127625Y19951429D01*
X1129405Y19942479D01*
X1128264Y19933424D01*
X1139017Y19894154D01*
X1146960Y19854227D01*
X1152029Y19846641D01*
X1154440Y19837837D01*
X1251202Y19644313D01*
X1276166Y19612147D01*
X1298782Y19578300D01*
X1492306Y19384776D01*
X1508007Y19374285D01*
X1520697Y19360297D01*
X1548837Y19347004D01*
X1574710Y19329716D01*
X1593230Y19326032D01*
X1610307Y19317965D01*
X1997355Y19221203D01*
X2028435Y19219691D01*
X2058959Y19213619D01*
X2736292Y19213619D01*
X2766815Y19219691D01*
X2797896Y19221203D01*
X3184944Y19317965D01*
X3202020Y19326032D01*
X3220541Y19329716D01*
X3246413Y19347004D01*
X3274554Y19360297D01*
X3287243Y19374285D01*
X3302945Y19384776D01*
X3496469Y19578300D01*
X3519087Y19612151D01*
X3544049Y19644314D01*
X3640810Y19837838D01*
X3643220Y19846640D01*
X3648290Y19854227D01*
X3656232Y19894158D01*
X3666986Y19933425D01*
X3665844Y19942479D01*
X3667625Y19951429D01*
X3667625Y20338476D01*
X3665844Y20347427D01*
X3666986Y20356480D01*
X3656232Y20395748D01*
X3648290Y20435678D01*
X3643220Y20443266D01*
X3640810Y20452067D01*
X3544049Y20645591D01*
X3519087Y20677755D01*
X3496469Y20711605D01*
X3302945Y20905129D01*
X3287243Y20915621D01*
X3274554Y20929608D01*
X3246413Y20942902D01*
X3220541Y20960189D01*
X3202020Y20963874D01*
X3184944Y20971940D01*
X2797896Y21068702D01*
X2766815Y21070215D01*
X2736292Y21076286D01*
X2058959Y21076286D01*
X2028435Y21070215D01*
X1997355Y21068702D01*
X1610307Y20971940D01*
X1593230Y20963874D01*
X1574710Y20960189D01*
X1548837Y20942902D01*
X1520697Y20929608D01*
X1508007Y20915621D01*
X1492306Y20905129D01*
X1298782Y20711605D01*
X1276166Y20677759D01*
X1251202Y20645592D01*
X1154440Y20452068D01*
X1152029Y20443265D01*
X1146960Y20435678D01*
X1139017Y20395752D01*
X1128264Y20356481D01*
X1129405Y20347427D01*
X1127625Y20338476D01*
X1127625Y19951429D01*
X837339Y19951429D01*
X837339Y21983429D01*
X1127625Y21983429D01*
X1129405Y21974479D01*
X1128264Y21965424D01*
X1139017Y21926154D01*
X1146960Y21886227D01*
X1152029Y21878641D01*
X1154440Y21869837D01*
X1251202Y21676313D01*
X1276166Y21644147D01*
X1298782Y21610300D01*
X1395544Y21513538D01*
X1429390Y21490923D01*
X1461557Y21465958D01*
X1655080Y21369197D01*
X1663882Y21366787D01*
X1671471Y21361716D01*
X1711399Y21353774D01*
X1750667Y21343020D01*
X1759721Y21344162D01*
X1768673Y21342381D01*
X2058959Y21342381D01*
X2067909Y21344162D01*
X2076964Y21343020D01*
X2116234Y21353774D01*
X2156161Y21361716D01*
X2163747Y21366786D01*
X2172551Y21369196D01*
X2366075Y21465958D01*
X2398240Y21490923D01*
X2432089Y21513539D01*
X2528850Y21610301D01*
X2551466Y21644150D01*
X2576429Y21676313D01*
X2673190Y21869836D01*
X2675600Y21878639D01*
X2680671Y21886227D01*
X2688613Y21926156D01*
X2699367Y21965423D01*
X2698225Y21974478D01*
X2700006Y21983429D01*
X2700006Y22503524D01*
X3413625Y22503524D01*
X3510827Y22522859D01*
X3593230Y22577919D01*
X3648290Y22660322D01*
X3667625Y22757524D01*
X3648290Y22854726D01*
X3593230Y22937129D01*
X3510827Y22992189D01*
X3413625Y23011524D01*
X1381625Y23011524D01*
X1284423Y22992189D01*
X1202020Y22937129D01*
X1146960Y22854726D01*
X1127625Y22757524D01*
X1127625Y21983429D01*
X837339Y21983429D01*
X837339Y23301810D01*
X3957911Y23301810D01*
X3957911Y13601429D01*
G37*
D12*
G36*
X10423989Y11347028D02*
G01*
X8776011Y11347028D01*
X8776011Y11687207D01*
X8957440Y11687207D01*
X8978708Y11607832D01*
X9036815Y11549725D01*
X9116190Y11528457D01*
X10083810Y11528457D01*
X10163185Y11549725D01*
X10221292Y11607832D01*
X10242560Y11687207D01*
X10221292Y11766582D01*
X10163185Y11824689D01*
X10083810Y11845957D01*
X9116190Y11845957D01*
X9036815Y11824689D01*
X8978708Y11766582D01*
X8957440Y11687207D01*
X8776011Y11687207D01*
X8776011Y12027386D01*
X10423989Y12027386D01*
X10423989Y11347028D01*
G37*
G36*
X2078917Y10081755D02*
G01*
X430940Y10081755D01*
X430940Y10905744D01*
X612369Y10905744D01*
X633637Y10826369D01*
X691744Y10768262D01*
X771119Y10746994D01*
X1096178Y10746994D01*
X1096178Y10421934D01*
X1117446Y10342559D01*
X1175553Y10284452D01*
X1254928Y10263184D01*
X1334303Y10284452D01*
X1392410Y10342559D01*
X1413678Y10421934D01*
X1413678Y10746994D01*
X1738738Y10746994D01*
X1818113Y10768262D01*
X1876220Y10826369D01*
X1897488Y10905744D01*
X1876220Y10985119D01*
X1818113Y11043226D01*
X1738738Y11064494D01*
X1413678Y11064494D01*
X1413678Y11389553D01*
X1392410Y11468928D01*
X1334303Y11527035D01*
X1254928Y11548303D01*
X1175553Y11527035D01*
X1117446Y11468928D01*
X1096178Y11389553D01*
X1096178Y11064494D01*
X771119Y11064494D01*
X691744Y11043226D01*
X633637Y10985119D01*
X612369Y10905744D01*
X430940Y10905744D01*
X430940Y11729732D01*
X2078917Y11729732D01*
X2078917Y10081755D01*
G37*
D10*
G36*
X20924085Y26352308D02*
G01*
X20790779Y26352308D01*
X20739267Y26378064D01*
X20720030Y26397301D01*
X20694275Y26448811D01*
X20694275Y26679137D01*
X20720030Y26730647D01*
X20739269Y26749886D01*
X20790779Y26775641D01*
X20924085Y26775641D01*
X20924085Y26352308D01*
G37*
G36*
X19021187Y26469314D02*
G01*
X19037228Y26437232D01*
X19037228Y26400430D01*
X19021187Y26368350D01*
X18989105Y26352308D01*
X18807418Y26352308D01*
X18807418Y26485355D01*
X18989105Y26485355D01*
X19021187Y26469314D01*
G37*
G36*
X23201377Y26749886D02*
G01*
X23220616Y26730647D01*
X23246371Y26679137D01*
X23246371Y26448811D01*
X23220616Y26397301D01*
X23201378Y26378064D01*
X23149867Y26352308D01*
X23064684Y26352308D01*
X23013172Y26378064D01*
X22993935Y26397301D01*
X22968180Y26448811D01*
X22968180Y26679137D01*
X22993935Y26730647D01*
X23013174Y26749886D01*
X23064684Y26775641D01*
X23149867Y26775641D01*
X23201377Y26749886D01*
G37*
G36*
X23201377Y28385646D02*
G01*
X23220616Y28366407D01*
X23246371Y28314897D01*
X23246371Y28084571D01*
X23220616Y28033061D01*
X23201378Y28013824D01*
X23149867Y27988068D01*
X23064684Y27988068D01*
X23013172Y28013824D01*
X22993935Y28033061D01*
X22968180Y28084571D01*
X22968180Y28314897D01*
X22993935Y28366407D01*
X23013174Y28385646D01*
X23064684Y28411401D01*
X23149867Y28411401D01*
X23201377Y28385646D01*
G37*
G36*
X24213990Y28471877D02*
G01*
X23983922Y28471877D01*
X23932412Y28497632D01*
X23913173Y28516871D01*
X23887418Y28568381D01*
X23887418Y28653564D01*
X23913173Y28705074D01*
X23932412Y28724313D01*
X23983922Y28750068D01*
X24213990Y28750068D01*
X24213990Y28471877D01*
G37*
G36*
X24661514Y25615791D02*
G01*
X16764616Y25615791D01*
X16764616Y26207234D01*
X16909759Y26207234D01*
X16939486Y26142141D01*
X16999686Y26103452D01*
X17035466Y26098308D01*
X17132228Y26098308D01*
X17143272Y26101552D01*
X17154720Y26100315D01*
X17189023Y26111715D01*
X17285785Y26160095D01*
X17302431Y26175580D01*
X17321980Y26187190D01*
X17334830Y26205717D01*
X17338182Y26208834D01*
X17338876Y26211550D01*
X17342582Y26216892D01*
X17346790Y26225308D01*
X17634180Y26225308D01*
X17654341Y26156647D01*
X17708422Y26109785D01*
X17779254Y26099601D01*
X17844347Y26129328D01*
X17883036Y26189528D01*
X17888180Y26225308D01*
X17888180Y26727518D01*
X17904221Y26759600D01*
X17936303Y26775641D01*
X18021486Y26775641D01*
X18069609Y26751580D01*
X18069609Y26225308D01*
X18089770Y26156647D01*
X18143851Y26109785D01*
X18214683Y26099601D01*
X18279776Y26129328D01*
X18318465Y26189528D01*
X18323609Y26225308D01*
X18553418Y26225308D01*
X18573579Y26156647D01*
X18627660Y26109785D01*
X18698492Y26099601D01*
X18723708Y26111117D01*
X18731715Y26109677D01*
X18741400Y26103452D01*
X18777180Y26098308D01*
X19019085Y26098308D01*
X19030129Y26101552D01*
X19041577Y26100315D01*
X19075880Y26111715D01*
X19172642Y26160095D01*
X19189288Y26175580D01*
X19208837Y26187190D01*
X19221687Y26205717D01*
X19225039Y26208834D01*
X19225733Y26211550D01*
X19229439Y26216892D01*
X19277820Y26313654D01*
X19279858Y26324984D01*
X19286084Y26334670D01*
X19291228Y26370450D01*
X19291228Y26467212D01*
X19287984Y26478258D01*
X19289221Y26489705D01*
X19277820Y26524008D01*
X19229439Y26620770D01*
X19213954Y26637417D01*
X19202345Y26656964D01*
X19183818Y26669815D01*
X19180701Y26673166D01*
X19177985Y26673861D01*
X19172643Y26677566D01*
X19075881Y26725947D01*
X19064551Y26727986D01*
X19054865Y26734211D01*
X19019085Y26739355D01*
X18813336Y26739355D01*
X18823459Y26759600D01*
X18855541Y26775641D01*
X18989105Y26775641D01*
X19059051Y26740668D01*
X19129479Y26727994D01*
X19195580Y26755408D01*
X19236366Y26814208D01*
X19238887Y26885723D01*
X19202345Y26947250D01*
X19172643Y26967852D01*
X19075881Y27016233D01*
X19064551Y27018272D01*
X19054865Y27024497D01*
X19019085Y27029641D01*
X18825561Y27029641D01*
X18814515Y27026398D01*
X18803068Y27027634D01*
X18768765Y27016233D01*
X18672003Y26967852D01*
X18655356Y26952368D01*
X18635809Y26940758D01*
X18622958Y26922232D01*
X18619607Y26919114D01*
X18618912Y26916399D01*
X18615207Y26911056D01*
X18566826Y26814294D01*
X18564787Y26802965D01*
X18558562Y26793278D01*
X18553418Y26757498D01*
X18553418Y26225308D01*
X18323609Y26225308D01*
X18323609Y26902641D01*
X18303448Y26971302D01*
X18249367Y27018164D01*
X18178535Y27028348D01*
X18129144Y27005792D01*
X18108262Y27016233D01*
X18096932Y27018272D01*
X18087246Y27024497D01*
X18051466Y27029641D01*
X17906323Y27029641D01*
X17895277Y27026398D01*
X17883830Y27027634D01*
X17849527Y27016233D01*
X17752765Y26967852D01*
X17736118Y26952368D01*
X17716571Y26940758D01*
X17703720Y26922232D01*
X17700369Y26919114D01*
X17699674Y26916399D01*
X17695969Y26911056D01*
X17647588Y26814294D01*
X17645549Y26802965D01*
X17639324Y26793278D01*
X17634180Y26757498D01*
X17634180Y26225308D01*
X17346790Y26225308D01*
X17390963Y26313654D01*
X17393001Y26324984D01*
X17399227Y26334670D01*
X17404371Y26370450D01*
X17404371Y26775641D01*
X17422514Y26775641D01*
X17491175Y26795802D01*
X17538037Y26849883D01*
X17548221Y26920715D01*
X17518494Y26985808D01*
X17458294Y27024497D01*
X17422514Y27029641D01*
X17404371Y27029641D01*
X17404371Y27201987D01*
X19424600Y27201987D01*
X19430352Y27175543D01*
X19432283Y27148545D01*
X19437840Y27141122D01*
X19439811Y27132062D01*
X19461473Y27103124D01*
X19509854Y27054743D01*
X19517992Y27050299D01*
X19523549Y27042877D01*
X19536474Y27038057D01*
X19546899Y27029023D01*
X19560553Y27027060D01*
X19568846Y27022532D01*
X19516490Y26998621D01*
X19477801Y26938421D01*
X19472657Y26902641D01*
X19472657Y26225308D01*
X19492818Y26156647D01*
X19546899Y26109785D01*
X19617731Y26099601D01*
X19682824Y26129328D01*
X19721513Y26189528D01*
X19726014Y26220834D01*
X19859783Y26220834D01*
X19882351Y26152925D01*
X19938049Y26107998D01*
X20009196Y26100315D01*
X20043499Y26111715D01*
X20140261Y26160095D01*
X20156907Y26175580D01*
X20176456Y26187190D01*
X20189306Y26205717D01*
X20192658Y26208834D01*
X20193352Y26211550D01*
X20197058Y26216892D01*
X20245439Y26313654D01*
X20247477Y26324984D01*
X20253703Y26334670D01*
X20258847Y26370450D01*
X20258847Y26418831D01*
X20440275Y26418831D01*
X20443518Y26407786D01*
X20442282Y26396338D01*
X20453683Y26362035D01*
X20502064Y26265273D01*
X20503684Y26263531D01*
X20504191Y26261204D01*
X20525853Y26232266D01*
X20574234Y26183885D01*
X20576324Y26182744D01*
X20577540Y26180697D01*
X20607242Y26160095D01*
X20704004Y26111715D01*
X20715334Y26109677D01*
X20725019Y26103452D01*
X20760799Y26098308D01*
X20924085Y26098308D01*
X20924085Y25886641D01*
X20944246Y25817980D01*
X20998327Y25771118D01*
X21069159Y25760934D01*
X21134252Y25790661D01*
X21172941Y25850861D01*
X21178085Y25886641D01*
X21178085Y26225308D01*
X21407895Y26225308D01*
X21428056Y26156647D01*
X21482137Y26109785D01*
X21552969Y26099601D01*
X21618062Y26129328D01*
X21656751Y26189528D01*
X21661895Y26225308D01*
X21661895Y26727518D01*
X21677935Y26759600D01*
X21710018Y26775641D01*
X21795200Y26775641D01*
X21827282Y26759600D01*
X21843323Y26727518D01*
X21843323Y26225308D01*
X21863484Y26156647D01*
X21917565Y26109785D01*
X21988397Y26099601D01*
X22053490Y26129328D01*
X22092179Y26189528D01*
X22097323Y26225308D01*
X22097323Y26727518D01*
X22113364Y26759600D01*
X22145446Y26775641D01*
X22230629Y26775641D01*
X22278752Y26751580D01*
X22278752Y26225308D01*
X22298913Y26156647D01*
X22352994Y26109785D01*
X22423826Y26099601D01*
X22488919Y26129328D01*
X22527608Y26189528D01*
X22532752Y26225308D01*
X22532752Y26418831D01*
X22714180Y26418831D01*
X22717423Y26407786D01*
X22716187Y26396338D01*
X22727588Y26362035D01*
X22775969Y26265273D01*
X22777589Y26263531D01*
X22778096Y26261204D01*
X22799758Y26232266D01*
X22848139Y26183885D01*
X22850229Y26182744D01*
X22851445Y26180697D01*
X22881147Y26160095D01*
X22977909Y26111715D01*
X22989239Y26109677D01*
X22998924Y26103452D01*
X23034704Y26098308D01*
X23179847Y26098308D01*
X23190891Y26101552D01*
X23202339Y26100315D01*
X23236642Y26111715D01*
X23333404Y26160095D01*
X23335147Y26161717D01*
X23337474Y26162223D01*
X23366412Y26183885D01*
X23414793Y26232266D01*
X23415934Y26234356D01*
X23417980Y26235571D01*
X23438582Y26265273D01*
X23471510Y26331129D01*
X23633742Y26331129D01*
X23648953Y26261204D01*
X23670615Y26232266D01*
X23718996Y26183885D01*
X23729101Y26178367D01*
X23736322Y26169399D01*
X23768639Y26153205D01*
X23913782Y26104825D01*
X23916159Y26104740D01*
X23918162Y26103452D01*
X23953942Y26098308D01*
X24050704Y26098308D01*
X24052987Y26098979D01*
X24055294Y26098391D01*
X24090864Y26104825D01*
X24236007Y26153205D01*
X24245461Y26159776D01*
X24256712Y26162223D01*
X24285650Y26183885D01*
X24382411Y26280647D01*
X24383551Y26282737D01*
X24385599Y26283952D01*
X24406201Y26313654D01*
X24454582Y26410416D01*
X24455370Y26414797D01*
X24464198Y26436410D01*
X24512579Y26629934D01*
X24512438Y26633385D01*
X24516371Y26660736D01*
X24516371Y26805879D01*
X24515398Y26809192D01*
X24512579Y26836681D01*
X24464198Y27030205D01*
X24461945Y27034045D01*
X24454582Y27056199D01*
X24406201Y27152961D01*
X24404580Y27154704D01*
X24404074Y27157030D01*
X24382411Y27185968D01*
X24285650Y27282730D01*
X24275544Y27288248D01*
X24268325Y27297215D01*
X24236008Y27313410D01*
X24090865Y27361791D01*
X24088486Y27361878D01*
X24086484Y27363164D01*
X24050704Y27368308D01*
X23953942Y27368308D01*
X23951657Y27367638D01*
X23949351Y27368225D01*
X23913781Y27361791D01*
X23768638Y27313410D01*
X23759183Y27306840D01*
X23747934Y27304392D01*
X23718996Y27282730D01*
X23670615Y27234349D01*
X23636321Y27171542D01*
X23641425Y27100164D01*
X23684310Y27042877D01*
X23751358Y27017870D01*
X23821283Y27033081D01*
X23850221Y27054743D01*
X23877403Y27081925D01*
X23974552Y27114308D01*
X24030094Y27114308D01*
X24127243Y27081925D01*
X24188234Y27020935D01*
X24221163Y26955077D01*
X24262371Y26790245D01*
X24262371Y26676370D01*
X24221163Y26511538D01*
X24188234Y26445681D01*
X24127243Y26384690D01*
X24030095Y26352308D01*
X23974551Y26352308D01*
X23877403Y26384690D01*
X23850221Y26411872D01*
X23787414Y26446166D01*
X23716036Y26441062D01*
X23658749Y26398177D01*
X23633742Y26331129D01*
X23471510Y26331129D01*
X23486963Y26362035D01*
X23489001Y26373365D01*
X23495227Y26383051D01*
X23500371Y26418831D01*
X23500371Y26709117D01*
X23497127Y26720163D01*
X23498364Y26731610D01*
X23486963Y26765913D01*
X23438582Y26862675D01*
X23436961Y26864418D01*
X23436455Y26866744D01*
X23414793Y26895682D01*
X23366412Y26944063D01*
X23364322Y26945205D01*
X23363107Y26947250D01*
X23333405Y26967852D01*
X23236643Y27016233D01*
X23225313Y27018272D01*
X23215627Y27024497D01*
X23179847Y27029641D01*
X23034704Y27029641D01*
X23023658Y27026398D01*
X23012211Y27027634D01*
X22977908Y27016233D01*
X22881146Y26967852D01*
X22879403Y26966232D01*
X22877077Y26965725D01*
X22848139Y26944063D01*
X22799758Y26895682D01*
X22798616Y26893593D01*
X22796571Y26892377D01*
X22775969Y26862675D01*
X22727588Y26765913D01*
X22725549Y26754584D01*
X22719324Y26744897D01*
X22714180Y26709117D01*
X22714180Y26418831D01*
X22532752Y26418831D01*
X22532752Y26902641D01*
X22512591Y26971302D01*
X22458510Y27018164D01*
X22387678Y27028348D01*
X22338287Y27005792D01*
X22317405Y27016233D01*
X22306075Y27018272D01*
X22296389Y27024497D01*
X22260609Y27029641D01*
X22115466Y27029641D01*
X22104420Y27026398D01*
X22092973Y27027634D01*
X22058670Y27016233D01*
X21970323Y26972060D01*
X21881976Y27016233D01*
X21870646Y27018272D01*
X21860960Y27024497D01*
X21825180Y27029641D01*
X21680037Y27029641D01*
X21668989Y27026398D01*
X21657543Y27027633D01*
X21623240Y27016233D01*
X21526479Y26967852D01*
X21509832Y26952367D01*
X21490286Y26940758D01*
X21477434Y26922230D01*
X21474084Y26919113D01*
X21473389Y26916399D01*
X21469684Y26911056D01*
X21421303Y26814294D01*
X21419264Y26802965D01*
X21413039Y26793278D01*
X21407895Y26757498D01*
X21407895Y26225308D01*
X21178085Y26225308D01*
X21178085Y26902641D01*
X21157924Y26971302D01*
X21103843Y27018164D01*
X21033011Y27028348D01*
X21007793Y27016832D01*
X20999789Y27018272D01*
X20990103Y27024497D01*
X20954323Y27029641D01*
X20760799Y27029641D01*
X20749753Y27026398D01*
X20738306Y27027634D01*
X20704003Y27016233D01*
X20607241Y26967852D01*
X20605498Y26966232D01*
X20603172Y26965725D01*
X20574234Y26944063D01*
X20525853Y26895682D01*
X20524711Y26893593D01*
X20522666Y26892377D01*
X20502064Y26862675D01*
X20453683Y26765913D01*
X20451644Y26754584D01*
X20445419Y26744897D01*
X20440275Y26709117D01*
X20440275Y26418831D01*
X20258847Y26418831D01*
X20258847Y27241308D01*
X20238686Y27309969D01*
X20184605Y27356831D01*
X20113773Y27367015D01*
X20048680Y27337288D01*
X20009991Y27277088D01*
X20004847Y27241308D01*
X20004847Y26400430D01*
X19988806Y26368350D01*
X19929909Y26338901D01*
X19877512Y26290162D01*
X19859783Y26220834D01*
X19726014Y26220834D01*
X19726657Y26225308D01*
X19726657Y26902641D01*
X19706496Y26971302D01*
X19652415Y27018164D01*
X19624911Y27022119D01*
X19630277Y27024569D01*
X19644039Y27025553D01*
X19651462Y27031111D01*
X19660522Y27033081D01*
X19678680Y27046674D01*
X19682824Y27048566D01*
X19684321Y27050897D01*
X19689460Y27054743D01*
X19737841Y27103124D01*
X19742285Y27111265D01*
X19749706Y27116819D01*
X19759162Y27142174D01*
X19772135Y27165931D01*
X19771473Y27175180D01*
X19774714Y27183867D01*
X19768961Y27210312D01*
X19767031Y27237309D01*
X19761473Y27244733D01*
X19759503Y27253792D01*
X19737841Y27282730D01*
X19689460Y27331111D01*
X19681319Y27335556D01*
X19675765Y27342976D01*
X19662841Y27347797D01*
X19652415Y27356831D01*
X19638760Y27358795D01*
X19626653Y27365405D01*
X19617404Y27364744D01*
X19608717Y27367984D01*
X19595237Y27365052D01*
X19581583Y27367015D01*
X19569036Y27361286D01*
X19555275Y27360301D01*
X19547851Y27354744D01*
X19538792Y27352773D01*
X19520633Y27339181D01*
X19516490Y27337288D01*
X19514992Y27334958D01*
X19509854Y27331111D01*
X19461473Y27282730D01*
X19457028Y27274592D01*
X19449607Y27269035D01*
X19440149Y27243677D01*
X19427179Y27219923D01*
X19427840Y27210675D01*
X19424600Y27201987D01*
X17404371Y27201987D01*
X17404371Y27241308D01*
X17384210Y27309969D01*
X17330129Y27356831D01*
X17259297Y27367015D01*
X17194204Y27337288D01*
X17155515Y27277088D01*
X17150371Y27241308D01*
X17150371Y27029641D01*
X17035466Y27029641D01*
X16966805Y27009480D01*
X16919943Y26955399D01*
X16909759Y26884567D01*
X16939486Y26819474D01*
X16999686Y26780785D01*
X17035466Y26775641D01*
X17150371Y26775641D01*
X17150371Y26400430D01*
X17134330Y26368350D01*
X17102248Y26352308D01*
X17035466Y26352308D01*
X16966805Y26332147D01*
X16919943Y26278066D01*
X16909759Y26207234D01*
X16764616Y26207234D01*
X16764616Y28054591D01*
X20682180Y28054591D01*
X20685423Y28043546D01*
X20684187Y28032098D01*
X20695588Y27997795D01*
X20743969Y27901033D01*
X20745589Y27899291D01*
X20746096Y27896964D01*
X20767758Y27868026D01*
X20816139Y27819645D01*
X20818229Y27818504D01*
X20819445Y27816457D01*
X20849147Y27795855D01*
X20945909Y27747475D01*
X20957239Y27745437D01*
X20966924Y27739212D01*
X21002704Y27734068D01*
X21244609Y27734068D01*
X21246892Y27734739D01*
X21249199Y27734151D01*
X21284769Y27740585D01*
X21429912Y27788965D01*
X21488675Y27829804D01*
X21501609Y27861068D01*
X21698180Y27861068D01*
X21718341Y27792407D01*
X21772422Y27745545D01*
X21843254Y27735361D01*
X21908347Y27765088D01*
X21947036Y27825288D01*
X21952180Y27861068D01*
X21952180Y28266258D01*
X22278752Y28266258D01*
X22278752Y27861068D01*
X22298913Y27792407D01*
X22352994Y27745545D01*
X22423826Y27735361D01*
X22488919Y27765088D01*
X22527608Y27825288D01*
X22532752Y27861068D01*
X22532752Y28054591D01*
X22714180Y28054591D01*
X22717423Y28043546D01*
X22716187Y28032098D01*
X22727588Y27997795D01*
X22775969Y27901033D01*
X22777589Y27899291D01*
X22778096Y27896964D01*
X22799758Y27868026D01*
X22848139Y27819645D01*
X22850229Y27818504D01*
X22851445Y27816457D01*
X22881147Y27795855D01*
X22977909Y27747475D01*
X22989239Y27745437D01*
X22998924Y27739212D01*
X23034704Y27734068D01*
X23179847Y27734068D01*
X23190891Y27737312D01*
X23202339Y27736075D01*
X23236642Y27747475D01*
X23333404Y27795855D01*
X23335147Y27797477D01*
X23337474Y27797983D01*
X23366412Y27819645D01*
X23414793Y27868026D01*
X23415934Y27870116D01*
X23417980Y27871331D01*
X23438582Y27901033D01*
X23486963Y27997795D01*
X23489001Y28009125D01*
X23495227Y28018811D01*
X23500371Y28054591D01*
X23500371Y28344877D01*
X23497127Y28355923D01*
X23498364Y28367370D01*
X23486963Y28401673D01*
X23438582Y28498435D01*
X23436961Y28500178D01*
X23436455Y28502504D01*
X23414793Y28531442D01*
X23407834Y28538401D01*
X23633418Y28538401D01*
X23636661Y28527356D01*
X23635425Y28515908D01*
X23646826Y28481605D01*
X23695207Y28384843D01*
X23696827Y28383101D01*
X23697334Y28380774D01*
X23718996Y28351836D01*
X23767377Y28303455D01*
X23769466Y28302314D01*
X23770682Y28300268D01*
X23800384Y28279666D01*
X23872998Y28243359D01*
X23656376Y27933898D01*
X23633518Y27866087D01*
X23650949Y27796683D01*
X23703136Y27747720D01*
X23773510Y27734745D01*
X23839728Y27761876D01*
X23864460Y27788238D01*
X24165208Y28217877D01*
X24213990Y28217877D01*
X24213990Y27861068D01*
X24234151Y27792407D01*
X24288232Y27745545D01*
X24359064Y27735361D01*
X24424157Y27765088D01*
X24462846Y27825288D01*
X24467990Y27861068D01*
X24467990Y28877068D01*
X24465377Y28885966D01*
X24466697Y28895142D01*
X24455454Y28919761D01*
X24447829Y28945729D01*
X24440821Y28951801D01*
X24436970Y28960235D01*
X24414201Y28974868D01*
X24393748Y28992591D01*
X24384571Y28993911D01*
X24376770Y28998924D01*
X24340990Y29004068D01*
X23953942Y29004068D01*
X23942896Y29000825D01*
X23931449Y29002061D01*
X23897146Y28990660D01*
X23800384Y28942279D01*
X23798641Y28940659D01*
X23796315Y28940152D01*
X23767377Y28918490D01*
X23718996Y28870109D01*
X23717854Y28868020D01*
X23715809Y28866804D01*
X23695207Y28837102D01*
X23646826Y28740340D01*
X23644787Y28729011D01*
X23638562Y28719324D01*
X23633418Y28683544D01*
X23633418Y28538401D01*
X23407834Y28538401D01*
X23366412Y28579823D01*
X23364322Y28580965D01*
X23363107Y28583010D01*
X23333405Y28603612D01*
X23236643Y28651993D01*
X23225313Y28654032D01*
X23215627Y28660257D01*
X23179847Y28665401D01*
X23034704Y28665401D01*
X23023658Y28662158D01*
X23012211Y28663394D01*
X22977908Y28651993D01*
X22881146Y28603612D01*
X22879403Y28601992D01*
X22877077Y28601485D01*
X22848139Y28579823D01*
X22799758Y28531442D01*
X22798616Y28529353D01*
X22796571Y28528137D01*
X22775969Y28498435D01*
X22727588Y28401673D01*
X22725549Y28390344D01*
X22719324Y28380657D01*
X22714180Y28344877D01*
X22714180Y28054591D01*
X22532752Y28054591D01*
X22532752Y28877068D01*
X22512591Y28945729D01*
X22458510Y28992591D01*
X22387678Y29002775D01*
X22322585Y28973048D01*
X22283896Y28912848D01*
X22278752Y28877068D01*
X22278752Y28520258D01*
X21952180Y28520258D01*
X21952180Y28877068D01*
X21932019Y28945729D01*
X21877938Y28992591D01*
X21807106Y29002775D01*
X21742013Y28973048D01*
X21703324Y28912848D01*
X21698180Y28877068D01*
X21698180Y27861068D01*
X21501609Y27861068D01*
X21516030Y27895928D01*
X21503293Y27966346D01*
X21454508Y28018698D01*
X21385163Y28036365D01*
X21349592Y28029931D01*
X21224000Y27988068D01*
X21032684Y27988068D01*
X20981172Y28013824D01*
X20961935Y28033061D01*
X20936180Y28084571D01*
X20936180Y28121373D01*
X20961935Y28172883D01*
X20981174Y28192122D01*
X21047030Y28225050D01*
X21227030Y28270050D01*
X21230869Y28272303D01*
X21253024Y28279666D01*
X21349786Y28328047D01*
X21351528Y28329668D01*
X21353855Y28330174D01*
X21382793Y28351836D01*
X21431174Y28400217D01*
X21432315Y28402307D01*
X21434361Y28403522D01*
X21454963Y28433224D01*
X21503344Y28529986D01*
X21505382Y28541316D01*
X21511608Y28551002D01*
X21516752Y28586782D01*
X21516752Y28683544D01*
X21513508Y28694590D01*
X21514745Y28706037D01*
X21503344Y28740340D01*
X21454963Y28837102D01*
X21453342Y28838845D01*
X21452836Y28841171D01*
X21431174Y28870109D01*
X21382793Y28918490D01*
X21380703Y28919632D01*
X21379488Y28921677D01*
X21349786Y28942279D01*
X21253024Y28990660D01*
X21241694Y28992699D01*
X21232008Y28998924D01*
X21196228Y29004068D01*
X20954323Y29004068D01*
X20952038Y29003398D01*
X20949732Y29003985D01*
X20914162Y28997551D01*
X20769019Y28949170D01*
X20710257Y28908331D01*
X20682902Y28842206D01*
X20695639Y28771788D01*
X20744425Y28719436D01*
X20813770Y28701770D01*
X20849341Y28708204D01*
X20974933Y28750068D01*
X21166248Y28750068D01*
X21217758Y28724313D01*
X21236997Y28705074D01*
X21262752Y28653564D01*
X21262752Y28616762D01*
X21236997Y28565252D01*
X21217758Y28546013D01*
X21151902Y28513085D01*
X20971902Y28468085D01*
X20968062Y28465833D01*
X20945908Y28458469D01*
X20849146Y28410088D01*
X20847403Y28408468D01*
X20845077Y28407961D01*
X20816139Y28386299D01*
X20767758Y28337918D01*
X20766616Y28335829D01*
X20764571Y28334613D01*
X20743969Y28304911D01*
X20695588Y28208149D01*
X20693549Y28196820D01*
X20687324Y28187133D01*
X20682180Y28151353D01*
X20682180Y28054591D01*
X16764616Y28054591D01*
X16764616Y29149211D01*
X24661514Y29149211D01*
X24661514Y25615791D01*
G37*
D12*
G36*
X16073988Y18688805D02*
G01*
X14426011Y18688805D01*
X14426011Y19512794D01*
X14607440Y19512794D01*
X14628708Y19433419D01*
X14686815Y19375312D01*
X14766190Y19354044D01*
X15091249Y19354044D01*
X15091249Y19028984D01*
X15112517Y18949609D01*
X15170624Y18891502D01*
X15249999Y18870234D01*
X15329374Y18891502D01*
X15387481Y18949609D01*
X15408749Y19028984D01*
X15408749Y19354044D01*
X15733809Y19354044D01*
X15813184Y19375312D01*
X15871291Y19433419D01*
X15892559Y19512794D01*
X15871291Y19592169D01*
X15813184Y19650276D01*
X15733809Y19671544D01*
X15408749Y19671544D01*
X15408749Y19996603D01*
X15387481Y20075978D01*
X15329374Y20134085D01*
X15249999Y20155353D01*
X15170624Y20134085D01*
X15112517Y20075978D01*
X15091249Y19996603D01*
X15091249Y19671544D01*
X14766190Y19671544D01*
X14686815Y19650276D01*
X14628708Y19592169D01*
X14607440Y19512794D01*
X14426011Y19512794D01*
X14426011Y20336782D01*
X16073988Y20336782D01*
X16073988Y18688805D01*
G37*
G36*
X16723988Y14872615D02*
G01*
X15076011Y14872615D01*
X15076011Y15212794D01*
X15257440Y15212794D01*
X15278708Y15133419D01*
X15336815Y15075312D01*
X15416190Y15054044D01*
X16383809Y15054044D01*
X16463184Y15075312D01*
X16521291Y15133419D01*
X16542559Y15212794D01*
X16521291Y15292169D01*
X16463184Y15350276D01*
X16383809Y15371544D01*
X15416190Y15371544D01*
X15336815Y15350276D01*
X15278708Y15292169D01*
X15257440Y15212794D01*
X15076011Y15212794D01*
X15076011Y15552973D01*
X16723988Y15552973D01*
X16723988Y14872615D01*
G37*
D10*
X13749904Y28293188D02*
X13749904Y29309188D01*
X13749904Y29309188D02*
X13507999Y29309188D01*
X13507999Y29309188D02*
X13362856Y29260807D01*
X13362856Y29260807D02*
X13266094Y29164045D01*
X13266094Y29164045D02*
X13217713Y29067283D01*
X13217713Y29067283D02*
X13169332Y28873759D01*
X13169332Y28873759D02*
X13169332Y28728616D01*
X13169332Y28728616D02*
X13217713Y28535092D01*
X13217713Y28535092D02*
X13266094Y28438330D01*
X13266094Y28438330D02*
X13362856Y28341568D01*
X13362856Y28341568D02*
X13507999Y28293188D01*
X13507999Y28293188D02*
X13749904Y28293188D01*
X12201713Y28293188D02*
X12782285Y28293188D01*
X12491999Y28293188D02*
X12491999Y29309188D01*
X12491999Y29309188D02*
X12588761Y29164045D01*
X12588761Y29164045D02*
X12685523Y29067283D01*
X12685523Y29067283D02*
X12782285Y29018902D01*
X6360051Y20469333D02*
X6408432Y20517714D01*
X6408432Y20517714D02*
X6456812Y20662857D01*
X6456812Y20662857D02*
X6456812Y20759619D01*
X6456812Y20759619D02*
X6408432Y20904762D01*
X6408432Y20904762D02*
X6311670Y21001524D01*
X6311670Y21001524D02*
X6214908Y21049905D01*
X6214908Y21049905D02*
X6021384Y21098286D01*
X6021384Y21098286D02*
X5876241Y21098286D01*
X5876241Y21098286D02*
X5682717Y21049905D01*
X5682717Y21049905D02*
X5585955Y21001524D01*
X5585955Y21001524D02*
X5489193Y20904762D01*
X5489193Y20904762D02*
X5440812Y20759619D01*
X5440812Y20759619D02*
X5440812Y20662857D01*
X5440812Y20662857D02*
X5489193Y20517714D01*
X5489193Y20517714D02*
X5537574Y20469333D01*
X6456812Y19501714D02*
X6456812Y20082286D01*
X6456812Y19792000D02*
X5440812Y19792000D01*
X5440812Y19792000D02*
X5585955Y19888762D01*
X5585955Y19888762D02*
X5682717Y19985524D01*
X5682717Y19985524D02*
X5731098Y20082286D01*
X6669332Y5793188D02*
X7007999Y6276997D01*
X7249904Y5793188D02*
X7249904Y6809188D01*
X7249904Y6809188D02*
X6862856Y6809188D01*
X6862856Y6809188D02*
X6766094Y6760807D01*
X6766094Y6760807D02*
X6717713Y6712426D01*
X6717713Y6712426D02*
X6669332Y6615664D01*
X6669332Y6615664D02*
X6669332Y6470521D01*
X6669332Y6470521D02*
X6717713Y6373759D01*
X6717713Y6373759D02*
X6766094Y6325378D01*
X6766094Y6325378D02*
X6862856Y6276997D01*
X6862856Y6276997D02*
X7249904Y6276997D01*
X5798475Y6470521D02*
X5798475Y5793188D01*
X6040380Y6857568D02*
X6282285Y6131854D01*
X6282285Y6131854D02*
X5653332Y6131854D01*
X5440812Y23424096D02*
X6263289Y23424096D01*
X6263289Y23424096D02*
X6360051Y23375715D01*
X6360051Y23375715D02*
X6408432Y23327334D01*
X6408432Y23327334D02*
X6456812Y23230572D01*
X6456812Y23230572D02*
X6456812Y23037048D01*
X6456812Y23037048D02*
X6408432Y22940286D01*
X6408432Y22940286D02*
X6360051Y22891905D01*
X6360051Y22891905D02*
X6263289Y22843524D01*
X6263289Y22843524D02*
X5440812Y22843524D01*
X6456812Y21827524D02*
X6456812Y22408096D01*
X6456812Y22117810D02*
X5440812Y22117810D01*
X5440812Y22117810D02*
X5585955Y22214572D01*
X5585955Y22214572D02*
X5682717Y22311334D01*
X5682717Y22311334D02*
X5731098Y22408096D01*
X7774318Y21940715D02*
X7713842Y22061667D01*
X7713842Y22061667D02*
X7653365Y22122144D01*
X7653365Y22122144D02*
X7532413Y22182620D01*
X7532413Y22182620D02*
X7169556Y22182620D01*
X7169556Y22182620D02*
X7048603Y22122144D01*
X7048603Y22122144D02*
X6988127Y22061667D01*
X6988127Y22061667D02*
X6927651Y21940715D01*
X6927651Y21940715D02*
X6927651Y21759286D01*
X6927651Y21759286D02*
X6988127Y21638334D01*
X6988127Y21638334D02*
X7048603Y21577858D01*
X7048603Y21577858D02*
X7169556Y21517382D01*
X7169556Y21517382D02*
X7532413Y21517382D01*
X7532413Y21517382D02*
X7653365Y21577858D01*
X7653365Y21577858D02*
X7713842Y21638334D01*
X7713842Y21638334D02*
X7774318Y21759286D01*
X7774318Y21759286D02*
X7774318Y21940715D01*
X10669332Y23543188D02*
X11007999Y24026997D01*
X11249904Y23543188D02*
X11249904Y24559188D01*
X11249904Y24559188D02*
X10862856Y24559188D01*
X10862856Y24559188D02*
X10766094Y24510807D01*
X10766094Y24510807D02*
X10717713Y24462426D01*
X10717713Y24462426D02*
X10669332Y24365664D01*
X10669332Y24365664D02*
X10669332Y24220521D01*
X10669332Y24220521D02*
X10717713Y24123759D01*
X10717713Y24123759D02*
X10766094Y24075378D01*
X10766094Y24075378D02*
X10862856Y24026997D01*
X10862856Y24026997D02*
X11249904Y24026997D01*
X10282285Y24462426D02*
X10233904Y24510807D01*
X10233904Y24510807D02*
X10137142Y24559188D01*
X10137142Y24559188D02*
X9895237Y24559188D01*
X9895237Y24559188D02*
X9798475Y24510807D01*
X9798475Y24510807D02*
X9750094Y24462426D01*
X9750094Y24462426D02*
X9701713Y24365664D01*
X9701713Y24365664D02*
X9701713Y24268902D01*
X9701713Y24268902D02*
X9750094Y24123759D01*
X9750094Y24123759D02*
X10330666Y23543188D01*
X10330666Y23543188D02*
X9701713Y23543188D01*
X8169332Y23543188D02*
X8507999Y24026997D01*
X8749904Y23543188D02*
X8749904Y24559188D01*
X8749904Y24559188D02*
X8362856Y24559188D01*
X8362856Y24559188D02*
X8266094Y24510807D01*
X8266094Y24510807D02*
X8217713Y24462426D01*
X8217713Y24462426D02*
X8169332Y24365664D01*
X8169332Y24365664D02*
X8169332Y24220521D01*
X8169332Y24220521D02*
X8217713Y24123759D01*
X8217713Y24123759D02*
X8266094Y24075378D01*
X8266094Y24075378D02*
X8362856Y24026997D01*
X8362856Y24026997D02*
X8749904Y24026997D01*
X7201713Y23543188D02*
X7782285Y23543188D01*
X7491999Y23543188D02*
X7491999Y24559188D01*
X7491999Y24559188D02*
X7588761Y24414045D01*
X7588761Y24414045D02*
X7685523Y24317283D01*
X7685523Y24317283D02*
X7782285Y24268902D01*
X19753142Y14843188D02*
X20091809Y15326997D01*
X20333714Y14843188D02*
X20333714Y15859188D01*
X20333714Y15859188D02*
X19946666Y15859188D01*
X19946666Y15859188D02*
X19849904Y15810807D01*
X19849904Y15810807D02*
X19801523Y15762426D01*
X19801523Y15762426D02*
X19753142Y15665664D01*
X19753142Y15665664D02*
X19753142Y15520521D01*
X19753142Y15520521D02*
X19801523Y15423759D01*
X19801523Y15423759D02*
X19849904Y15375378D01*
X19849904Y15375378D02*
X19946666Y15326997D01*
X19946666Y15326997D02*
X20333714Y15326997D01*
X18785523Y14843188D02*
X19366095Y14843188D01*
X19075809Y14843188D02*
X19075809Y15859188D01*
X19075809Y15859188D02*
X19172571Y15714045D01*
X19172571Y15714045D02*
X19269333Y15617283D01*
X19269333Y15617283D02*
X19366095Y15568902D01*
X17817904Y14843188D02*
X18398476Y14843188D01*
X18108190Y14843188D02*
X18108190Y15859188D01*
X18108190Y15859188D02*
X18204952Y15714045D01*
X18204952Y15714045D02*
X18301714Y15617283D01*
X18301714Y15617283D02*
X18398476Y15568902D01*
X21669332Y5443188D02*
X22007999Y5926997D01*
X22249904Y5443188D02*
X22249904Y6459188D01*
X22249904Y6459188D02*
X21862856Y6459188D01*
X21862856Y6459188D02*
X21766094Y6410807D01*
X21766094Y6410807D02*
X21717713Y6362426D01*
X21717713Y6362426D02*
X21669332Y6265664D01*
X21669332Y6265664D02*
X21669332Y6120521D01*
X21669332Y6120521D02*
X21717713Y6023759D01*
X21717713Y6023759D02*
X21766094Y5975378D01*
X21766094Y5975378D02*
X21862856Y5926997D01*
X21862856Y5926997D02*
X22249904Y5926997D01*
X20798475Y6459188D02*
X20991999Y6459188D01*
X20991999Y6459188D02*
X21088761Y6410807D01*
X21088761Y6410807D02*
X21137142Y6362426D01*
X21137142Y6362426D02*
X21233904Y6217283D01*
X21233904Y6217283D02*
X21282285Y6023759D01*
X21282285Y6023759D02*
X21282285Y5636711D01*
X21282285Y5636711D02*
X21233904Y5539949D01*
X21233904Y5539949D02*
X21185523Y5491568D01*
X21185523Y5491568D02*
X21088761Y5443188D01*
X21088761Y5443188D02*
X20895237Y5443188D01*
X20895237Y5443188D02*
X20798475Y5491568D01*
X20798475Y5491568D02*
X20750094Y5539949D01*
X20750094Y5539949D02*
X20701713Y5636711D01*
X20701713Y5636711D02*
X20701713Y5878616D01*
X20701713Y5878616D02*
X20750094Y5975378D01*
X20750094Y5975378D02*
X20798475Y6023759D01*
X20798475Y6023759D02*
X20895237Y6072140D01*
X20895237Y6072140D02*
X21088761Y6072140D01*
X21088761Y6072140D02*
X21185523Y6023759D01*
X21185523Y6023759D02*
X21233904Y5975378D01*
X21233904Y5975378D02*
X21282285Y5878616D01*
X10169332Y5543188D02*
X10507999Y6026997D01*
X10749904Y5543188D02*
X10749904Y6559188D01*
X10749904Y6559188D02*
X10362856Y6559188D01*
X10362856Y6559188D02*
X10266094Y6510807D01*
X10266094Y6510807D02*
X10217713Y6462426D01*
X10217713Y6462426D02*
X10169332Y6365664D01*
X10169332Y6365664D02*
X10169332Y6220521D01*
X10169332Y6220521D02*
X10217713Y6123759D01*
X10217713Y6123759D02*
X10266094Y6075378D01*
X10266094Y6075378D02*
X10362856Y6026997D01*
X10362856Y6026997D02*
X10749904Y6026997D01*
X9250094Y6559188D02*
X9733904Y6559188D01*
X9733904Y6559188D02*
X9782285Y6075378D01*
X9782285Y6075378D02*
X9733904Y6123759D01*
X9733904Y6123759D02*
X9637142Y6172140D01*
X9637142Y6172140D02*
X9395237Y6172140D01*
X9395237Y6172140D02*
X9298475Y6123759D01*
X9298475Y6123759D02*
X9250094Y6075378D01*
X9250094Y6075378D02*
X9201713Y5978616D01*
X9201713Y5978616D02*
X9201713Y5736711D01*
X9201713Y5736711D02*
X9250094Y5639949D01*
X9250094Y5639949D02*
X9298475Y5591568D01*
X9298475Y5591568D02*
X9395237Y5543188D01*
X9395237Y5543188D02*
X9637142Y5543188D01*
X9637142Y5543188D02*
X9733904Y5591568D01*
X9733904Y5591568D02*
X9782285Y5639949D01*
X20804332Y16639949D02*
X20852713Y16591568D01*
X20852713Y16591568D02*
X20997856Y16543188D01*
X20997856Y16543188D02*
X21094618Y16543188D01*
X21094618Y16543188D02*
X21239761Y16591568D01*
X21239761Y16591568D02*
X21336523Y16688330D01*
X21336523Y16688330D02*
X21384904Y16785092D01*
X21384904Y16785092D02*
X21433285Y16978616D01*
X21433285Y16978616D02*
X21433285Y17123759D01*
X21433285Y17123759D02*
X21384904Y17317283D01*
X21384904Y17317283D02*
X21336523Y17414045D01*
X21336523Y17414045D02*
X21239761Y17510807D01*
X21239761Y17510807D02*
X21094618Y17559188D01*
X21094618Y17559188D02*
X20997856Y17559188D01*
X20997856Y17559188D02*
X20852713Y17510807D01*
X20852713Y17510807D02*
X20804332Y17462426D01*
X19885094Y17559188D02*
X20368904Y17559188D01*
X20368904Y17559188D02*
X20417285Y17075378D01*
X20417285Y17075378D02*
X20368904Y17123759D01*
X20368904Y17123759D02*
X20272142Y17172140D01*
X20272142Y17172140D02*
X20030237Y17172140D01*
X20030237Y17172140D02*
X19933475Y17123759D01*
X19933475Y17123759D02*
X19885094Y17075378D01*
X19885094Y17075378D02*
X19836713Y16978616D01*
X19836713Y16978616D02*
X19836713Y16736711D01*
X19836713Y16736711D02*
X19885094Y16639949D01*
X19885094Y16639949D02*
X19933475Y16591568D01*
X19933475Y16591568D02*
X20030237Y16543188D01*
X20030237Y16543188D02*
X20272142Y16543188D01*
X20272142Y16543188D02*
X20368904Y16591568D01*
X20368904Y16591568D02*
X20417285Y16639949D01*
X24160051Y10469333D02*
X24208432Y10517714D01*
X24208432Y10517714D02*
X24256812Y10662857D01*
X24256812Y10662857D02*
X24256812Y10759619D01*
X24256812Y10759619D02*
X24208432Y10904762D01*
X24208432Y10904762D02*
X24111670Y11001524D01*
X24111670Y11001524D02*
X24014908Y11049905D01*
X24014908Y11049905D02*
X23821384Y11098286D01*
X23821384Y11098286D02*
X23676241Y11098286D01*
X23676241Y11098286D02*
X23482717Y11049905D01*
X23482717Y11049905D02*
X23385955Y11001524D01*
X23385955Y11001524D02*
X23289193Y10904762D01*
X23289193Y10904762D02*
X23240812Y10759619D01*
X23240812Y10759619D02*
X23240812Y10662857D01*
X23240812Y10662857D02*
X23289193Y10517714D01*
X23289193Y10517714D02*
X23337574Y10469333D01*
X23579479Y9598476D02*
X24256812Y9598476D01*
X23192432Y9840381D02*
X23918146Y10082286D01*
X23918146Y10082286D02*
X23918146Y9453333D01*
X24524095Y8759188D02*
X24524095Y7936711D01*
X24524095Y7936711D02*
X24475714Y7839949D01*
X24475714Y7839949D02*
X24427333Y7791568D01*
X24427333Y7791568D02*
X24330571Y7743188D01*
X24330571Y7743188D02*
X24137047Y7743188D01*
X24137047Y7743188D02*
X24040285Y7791568D01*
X24040285Y7791568D02*
X23991904Y7839949D01*
X23991904Y7839949D02*
X23943523Y7936711D01*
X23943523Y7936711D02*
X23943523Y8759188D01*
X23508095Y8662426D02*
X23459714Y8710807D01*
X23459714Y8710807D02*
X23362952Y8759188D01*
X23362952Y8759188D02*
X23121047Y8759188D01*
X23121047Y8759188D02*
X23024285Y8710807D01*
X23024285Y8710807D02*
X22975904Y8662426D01*
X22975904Y8662426D02*
X22927523Y8565664D01*
X22927523Y8565664D02*
X22927523Y8468902D01*
X22927523Y8468902D02*
X22975904Y8323759D01*
X22975904Y8323759D02*
X23556476Y7743188D01*
X23556476Y7743188D02*
X22927523Y7743188D01*
X19990714Y6225682D02*
X20111666Y6286158D01*
X20111666Y6286158D02*
X20172143Y6346635D01*
X20172143Y6346635D02*
X20232619Y6467587D01*
X20232619Y6467587D02*
X20232619Y6830444D01*
X20232619Y6830444D02*
X20172143Y6951397D01*
X20172143Y6951397D02*
X20111666Y7011873D01*
X20111666Y7011873D02*
X19990714Y7072349D01*
X19990714Y7072349D02*
X19809285Y7072349D01*
X19809285Y7072349D02*
X19688333Y7011873D01*
X19688333Y7011873D02*
X19627857Y6951397D01*
X19627857Y6951397D02*
X19567381Y6830444D01*
X19567381Y6830444D02*
X19567381Y6467587D01*
X19567381Y6467587D02*
X19627857Y6346635D01*
X19627857Y6346635D02*
X19688333Y6286158D01*
X19688333Y6286158D02*
X19809285Y6225682D01*
X19809285Y6225682D02*
X19990714Y6225682D01*
X23954588Y1247075D02*
X23954588Y2947075D01*
X23954588Y2947075D02*
X23383159Y2947075D01*
X23383159Y2947075D02*
X23240302Y2866123D01*
X23240302Y2866123D02*
X23168873Y2785170D01*
X23168873Y2785170D02*
X23097445Y2623266D01*
X23097445Y2623266D02*
X23097445Y2380408D01*
X23097445Y2380408D02*
X23168873Y2218504D01*
X23168873Y2218504D02*
X23240302Y2137551D01*
X23240302Y2137551D02*
X23383159Y2056599D01*
X23383159Y2056599D02*
X23954588Y2056599D01*
X22454588Y1247075D02*
X22454588Y2947075D01*
X22454588Y2299456D02*
X22311731Y2380408D01*
X22311731Y2380408D02*
X22026016Y2380408D01*
X22026016Y2380408D02*
X21883159Y2299456D01*
X21883159Y2299456D02*
X21811731Y2218504D01*
X21811731Y2218504D02*
X21740302Y2056599D01*
X21740302Y2056599D02*
X21740302Y1570885D01*
X21740302Y1570885D02*
X21811731Y1408980D01*
X21811731Y1408980D02*
X21883159Y1328027D01*
X21883159Y1328027D02*
X22026016Y1247075D01*
X22026016Y1247075D02*
X22311731Y1247075D01*
X22311731Y1247075D02*
X22454588Y1328027D01*
X22456812Y15369333D02*
X21973003Y15708000D01*
X22456812Y15949905D02*
X21440812Y15949905D01*
X21440812Y15949905D02*
X21440812Y15562857D01*
X21440812Y15562857D02*
X21489193Y15466095D01*
X21489193Y15466095D02*
X21537574Y15417714D01*
X21537574Y15417714D02*
X21634336Y15369333D01*
X21634336Y15369333D02*
X21779479Y15369333D01*
X21779479Y15369333D02*
X21876241Y15417714D01*
X21876241Y15417714D02*
X21924622Y15466095D01*
X21924622Y15466095D02*
X21973003Y15562857D01*
X21973003Y15562857D02*
X21973003Y15949905D01*
X21876241Y14788762D02*
X21827860Y14885524D01*
X21827860Y14885524D02*
X21779479Y14933905D01*
X21779479Y14933905D02*
X21682717Y14982286D01*
X21682717Y14982286D02*
X21634336Y14982286D01*
X21634336Y14982286D02*
X21537574Y14933905D01*
X21537574Y14933905D02*
X21489193Y14885524D01*
X21489193Y14885524D02*
X21440812Y14788762D01*
X21440812Y14788762D02*
X21440812Y14595238D01*
X21440812Y14595238D02*
X21489193Y14498476D01*
X21489193Y14498476D02*
X21537574Y14450095D01*
X21537574Y14450095D02*
X21634336Y14401714D01*
X21634336Y14401714D02*
X21682717Y14401714D01*
X21682717Y14401714D02*
X21779479Y14450095D01*
X21779479Y14450095D02*
X21827860Y14498476D01*
X21827860Y14498476D02*
X21876241Y14595238D01*
X21876241Y14595238D02*
X21876241Y14788762D01*
X21876241Y14788762D02*
X21924622Y14885524D01*
X21924622Y14885524D02*
X21973003Y14933905D01*
X21973003Y14933905D02*
X22069765Y14982286D01*
X22069765Y14982286D02*
X22263289Y14982286D01*
X22263289Y14982286D02*
X22360051Y14933905D01*
X22360051Y14933905D02*
X22408432Y14885524D01*
X22408432Y14885524D02*
X22456812Y14788762D01*
X22456812Y14788762D02*
X22456812Y14595238D01*
X22456812Y14595238D02*
X22408432Y14498476D01*
X22408432Y14498476D02*
X22360051Y14450095D01*
X22360051Y14450095D02*
X22263289Y14401714D01*
X22263289Y14401714D02*
X22069765Y14401714D01*
X22069765Y14401714D02*
X21973003Y14450095D01*
X21973003Y14450095D02*
X21924622Y14498476D01*
X21924622Y14498476D02*
X21876241Y14595238D01*
D13*
X24263914Y24155500D02*
X24209486Y24264357D01*
X24209486Y24264357D02*
X24155057Y24318786D01*
X24155057Y24318786D02*
X24046200Y24373214D01*
X24046200Y24373214D02*
X23719628Y24373214D01*
X23719628Y24373214D02*
X23610771Y24318786D01*
X23610771Y24318786D02*
X23556343Y24264357D01*
X23556343Y24264357D02*
X23501914Y24155500D01*
X23501914Y24155500D02*
X23501914Y23992214D01*
X23501914Y23992214D02*
X23556343Y23883357D01*
X23556343Y23883357D02*
X23610771Y23828928D01*
X23610771Y23828928D02*
X23719628Y23774500D01*
X23719628Y23774500D02*
X24046200Y23774500D01*
X24046200Y23774500D02*
X24155057Y23828928D01*
X24155057Y23828928D02*
X24209486Y23883357D01*
X24209486Y23883357D02*
X24263914Y23992214D01*
X24263914Y23992214D02*
X24263914Y24155500D01*
X23501914Y23284643D02*
X24644914Y23284643D01*
X23556343Y23284643D02*
X23501914Y23175785D01*
X23501914Y23175785D02*
X23501914Y22958071D01*
X23501914Y22958071D02*
X23556343Y22849214D01*
X23556343Y22849214D02*
X23610771Y22794785D01*
X23610771Y22794785D02*
X23719628Y22740357D01*
X23719628Y22740357D02*
X24046200Y22740357D01*
X24046200Y22740357D02*
X24155057Y22794785D01*
X24155057Y22794785D02*
X24209486Y22849214D01*
X24209486Y22849214D02*
X24263914Y22958071D01*
X24263914Y22958071D02*
X24263914Y23175785D01*
X24263914Y23175785D02*
X24209486Y23284643D01*
X24209486Y21815071D02*
X24263914Y21923928D01*
X24263914Y21923928D02*
X24263914Y22141642D01*
X24263914Y22141642D02*
X24209486Y22250500D01*
X24209486Y22250500D02*
X24100628Y22304928D01*
X24100628Y22304928D02*
X23665200Y22304928D01*
X23665200Y22304928D02*
X23556343Y22250500D01*
X23556343Y22250500D02*
X23501914Y22141642D01*
X23501914Y22141642D02*
X23501914Y21923928D01*
X23501914Y21923928D02*
X23556343Y21815071D01*
X23556343Y21815071D02*
X23665200Y21760642D01*
X23665200Y21760642D02*
X23774057Y21760642D01*
X23774057Y21760642D02*
X23882914Y22304928D01*
X23501914Y21270786D02*
X24263914Y21270786D01*
X23610771Y21270786D02*
X23556343Y21216357D01*
X23556343Y21216357D02*
X23501914Y21107500D01*
X23501914Y21107500D02*
X23501914Y20944214D01*
X23501914Y20944214D02*
X23556343Y20835357D01*
X23556343Y20835357D02*
X23665200Y20780928D01*
X23665200Y20780928D02*
X24263914Y20780928D01*
X24263914Y19365786D02*
X23120914Y19365786D01*
X24263914Y18875928D02*
X23665200Y18875928D01*
X23665200Y18875928D02*
X23556343Y18930357D01*
X23556343Y18930357D02*
X23501914Y19039214D01*
X23501914Y19039214D02*
X23501914Y19202500D01*
X23501914Y19202500D02*
X23556343Y19311357D01*
X23556343Y19311357D02*
X23610771Y19365786D01*
X24263914Y17841785D02*
X23665200Y17841785D01*
X23665200Y17841785D02*
X23556343Y17896214D01*
X23556343Y17896214D02*
X23501914Y18005071D01*
X23501914Y18005071D02*
X23501914Y18222785D01*
X23501914Y18222785D02*
X23556343Y18331643D01*
X24209486Y17841785D02*
X24263914Y17950643D01*
X24263914Y17950643D02*
X24263914Y18222785D01*
X24263914Y18222785D02*
X24209486Y18331643D01*
X24209486Y18331643D02*
X24100628Y18386071D01*
X24100628Y18386071D02*
X23991771Y18386071D01*
X23991771Y18386071D02*
X23882914Y18331643D01*
X23882914Y18331643D02*
X23828486Y18222785D01*
X23828486Y18222785D02*
X23828486Y17950643D01*
X23828486Y17950643D02*
X23774057Y17841785D01*
X24263914Y17297500D02*
X23501914Y17297500D01*
X23719628Y17297500D02*
X23610771Y17243071D01*
X23610771Y17243071D02*
X23556343Y17188642D01*
X23556343Y17188642D02*
X23501914Y17079785D01*
X23501914Y17079785D02*
X23501914Y16970928D01*
X24263914Y16100071D02*
X23120914Y16100071D01*
X24209486Y16100071D02*
X24263914Y16208929D01*
X24263914Y16208929D02*
X24263914Y16426643D01*
X24263914Y16426643D02*
X24209486Y16535500D01*
X24209486Y16535500D02*
X24155057Y16589929D01*
X24155057Y16589929D02*
X24046200Y16644357D01*
X24046200Y16644357D02*
X23719628Y16644357D01*
X23719628Y16644357D02*
X23610771Y16589929D01*
X23610771Y16589929D02*
X23556343Y16535500D01*
X23556343Y16535500D02*
X23501914Y16426643D01*
X23501914Y16426643D02*
X23501914Y16208929D01*
X23501914Y16208929D02*
X23556343Y16100071D01*
X23501914Y15664643D02*
X24263914Y15446928D01*
X24263914Y15446928D02*
X23719628Y15229214D01*
X23719628Y15229214D02*
X24263914Y15011500D01*
X24263914Y15011500D02*
X23501914Y14793786D01*
X24263914Y13868499D02*
X23665200Y13868499D01*
X23665200Y13868499D02*
X23556343Y13922928D01*
X23556343Y13922928D02*
X23501914Y14031785D01*
X23501914Y14031785D02*
X23501914Y14249499D01*
X23501914Y14249499D02*
X23556343Y14358357D01*
X24209486Y13868499D02*
X24263914Y13977357D01*
X24263914Y13977357D02*
X24263914Y14249499D01*
X24263914Y14249499D02*
X24209486Y14358357D01*
X24209486Y14358357D02*
X24100628Y14412785D01*
X24100628Y14412785D02*
X23991771Y14412785D01*
X23991771Y14412785D02*
X23882914Y14358357D01*
X23882914Y14358357D02*
X23828486Y14249499D01*
X23828486Y14249499D02*
X23828486Y13977357D01*
X23828486Y13977357D02*
X23774057Y13868499D01*
X24263914Y13324214D02*
X23501914Y13324214D01*
X23719628Y13324214D02*
X23610771Y13269785D01*
X23610771Y13269785D02*
X23556343Y13215356D01*
X23556343Y13215356D02*
X23501914Y13106499D01*
X23501914Y13106499D02*
X23501914Y12997642D01*
X24209486Y12181214D02*
X24263914Y12290071D01*
X24263914Y12290071D02*
X24263914Y12507785D01*
X24263914Y12507785D02*
X24209486Y12616643D01*
X24209486Y12616643D02*
X24100628Y12671071D01*
X24100628Y12671071D02*
X23665200Y12671071D01*
X23665200Y12671071D02*
X23556343Y12616643D01*
X23556343Y12616643D02*
X23501914Y12507785D01*
X23501914Y12507785D02*
X23501914Y12290071D01*
X23501914Y12290071D02*
X23556343Y12181214D01*
X23556343Y12181214D02*
X23665200Y12126785D01*
X23665200Y12126785D02*
X23774057Y12126785D01*
X23774057Y12126785D02*
X23882914Y12671071D01*
D10*
X21242751Y3396721D02*
X21140120Y3978300D01*
X21653277Y3807247D02*
X20934857Y4525668D01*
X20934857Y4525668D02*
X20661173Y4251984D01*
X20661173Y4251984D02*
X20626962Y4149352D01*
X20626962Y4149352D02*
X20626962Y4080931D01*
X20626962Y4080931D02*
X20661173Y3978300D01*
X20661173Y3978300D02*
X20763804Y3875668D01*
X20763804Y3875668D02*
X20866436Y3841458D01*
X20866436Y3841458D02*
X20934857Y3841458D01*
X20934857Y3841458D02*
X21037488Y3875668D01*
X21037488Y3875668D02*
X21311172Y4149352D01*
X20284857Y3875668D02*
X19805910Y3396721D01*
X19805910Y3396721D02*
X20832225Y2986195D01*
X16153142Y17293188D02*
X16491809Y17776997D01*
X16733714Y17293188D02*
X16733714Y18309188D01*
X16733714Y18309188D02*
X16346666Y18309188D01*
X16346666Y18309188D02*
X16249904Y18260807D01*
X16249904Y18260807D02*
X16201523Y18212426D01*
X16201523Y18212426D02*
X16153142Y18115664D01*
X16153142Y18115664D02*
X16153142Y17970521D01*
X16153142Y17970521D02*
X16201523Y17873759D01*
X16201523Y17873759D02*
X16249904Y17825378D01*
X16249904Y17825378D02*
X16346666Y17776997D01*
X16346666Y17776997D02*
X16733714Y17776997D01*
X15185523Y17293188D02*
X15766095Y17293188D01*
X15475809Y17293188D02*
X15475809Y18309188D01*
X15475809Y18309188D02*
X15572571Y18164045D01*
X15572571Y18164045D02*
X15669333Y18067283D01*
X15669333Y18067283D02*
X15766095Y18018902D01*
X14556571Y18309188D02*
X14459809Y18309188D01*
X14459809Y18309188D02*
X14363047Y18260807D01*
X14363047Y18260807D02*
X14314666Y18212426D01*
X14314666Y18212426D02*
X14266285Y18115664D01*
X14266285Y18115664D02*
X14217904Y17922140D01*
X14217904Y17922140D02*
X14217904Y17680235D01*
X14217904Y17680235D02*
X14266285Y17486711D01*
X14266285Y17486711D02*
X14314666Y17389949D01*
X14314666Y17389949D02*
X14363047Y17341568D01*
X14363047Y17341568D02*
X14459809Y17293188D01*
X14459809Y17293188D02*
X14556571Y17293188D01*
X14556571Y17293188D02*
X14653333Y17341568D01*
X14653333Y17341568D02*
X14701714Y17389949D01*
X14701714Y17389949D02*
X14750095Y17486711D01*
X14750095Y17486711D02*
X14798476Y17680235D01*
X14798476Y17680235D02*
X14798476Y17922140D01*
X14798476Y17922140D02*
X14750095Y18115664D01*
X14750095Y18115664D02*
X14701714Y18212426D01*
X14701714Y18212426D02*
X14653333Y18260807D01*
X14653333Y18260807D02*
X14556571Y18309188D01*
%TO.C,D1*%
X10500000Y27850000D02*
X15500000Y27850000D01*
X11870000Y25150000D02*
X11870000Y27850000D01*
X12310000Y25150000D02*
X12310000Y27850000D01*
X15500000Y25150000D02*
X10500000Y25150000D01*
%TO.C,C1*%
X6762000Y18258000D02*
X6762000Y17242000D01*
X5238000Y18258000D02*
X5238000Y17242000D01*
%TO.C,R4*%
X8532000Y10600000D02*
X4468000Y10600000D01*
X8532000Y7400000D02*
X4468000Y7400000D01*
%TO.C,U1*%
X7000000Y15750000D02*
X7000000Y19750000D01*
X12000000Y15750000D02*
X12000000Y19750000D01*
D14*
%TO.C,R2*%
X10496000Y23194500D02*
X11004000Y23194500D01*
X10496000Y22305500D02*
X11004000Y22305500D01*
%TO.C,R1*%
X7996000Y23194500D02*
X8504000Y23194500D01*
X7996000Y22305500D02*
X8504000Y22305500D01*
D15*
%TO.C,Sign_RecycleBin_1*%
X17973000Y24424500D02*
X17211000Y24424500D01*
X17211000Y24424500D02*
X17211000Y19852500D01*
X17871400Y24373700D02*
X17871400Y19954100D01*
X17566600Y24373700D02*
X17566600Y19903300D01*
X17414200Y24373700D02*
X17414200Y19954100D01*
X17363400Y24373700D02*
X17363400Y19903300D01*
D10*
X12435000Y24218500D02*
X16626000Y20027500D01*
X16499000Y24091500D02*
X12562000Y20027500D01*
X12943000Y23583500D02*
X12943000Y20662500D01*
X16499000Y23075500D02*
X16499000Y22567500D01*
X16118000Y23075500D02*
X13070000Y23329500D01*
X16118000Y23075500D02*
X16499000Y23075500D01*
X16118000Y23075500D02*
X16118000Y21678500D01*
X12816000Y23075500D02*
X12308000Y23075500D01*
X12308000Y23075500D02*
X12308000Y22948500D01*
X12308000Y22948500D02*
X12816000Y22948500D01*
X16499000Y22567500D02*
X16245000Y22567500D01*
X13832000Y22313500D02*
X13451000Y22313500D01*
X13451000Y22313500D02*
X13451000Y21424500D01*
X12181000Y22313500D02*
X12181000Y21932500D01*
X12054000Y22313500D02*
X12181000Y22313500D01*
X13578000Y22186500D02*
X13578000Y21551500D01*
X12181000Y21932500D02*
X12054000Y21932500D01*
X12054000Y21932500D02*
X12054000Y22313500D01*
X13832000Y21424500D02*
X13832000Y22313500D01*
X13451000Y21424500D02*
X13832000Y21424500D01*
X15610000Y21170500D02*
X13578000Y21043500D01*
X13451000Y21043500D02*
X13451000Y20662500D01*
X12943000Y21043500D02*
X13451000Y21043500D01*
X13451000Y20916500D02*
X13070000Y20916500D01*
X13070000Y20916500D02*
X13197000Y20916500D01*
X13070000Y20916500D02*
X13197000Y20916500D01*
X13070000Y20916500D02*
X13070000Y20789500D01*
X12943000Y20916500D02*
X13324000Y20789500D01*
X13070000Y20789500D02*
X13451000Y20789500D01*
X13451000Y20662500D02*
X12943000Y20662500D01*
D15*
X17769800Y19954100D02*
X17769800Y24322900D01*
X17668200Y19903300D02*
X17668200Y24322900D01*
X17515800Y19903300D02*
X17515800Y24322900D01*
X17261800Y19903300D02*
X17261800Y24322900D01*
X17973000Y19852500D02*
X17973000Y24424500D01*
X17211000Y19852500D02*
X17973000Y19852500D01*
D10*
X12816000Y23329500D02*
G75*
G03*
X12816000Y21043500I1143000J-1143000D01*
G01*
D16*
X16245000Y21170500D02*
G75*
G03*
X15991000Y21170500I-127000J0D01*
G01*
X15991000Y21170500D02*
G75*
G03*
X16245000Y21170500I127000J0D01*
G01*
D10*
X16519609Y21170500D02*
G75*
G03*
X15716391Y21170500I-401609J0D01*
G01*
X15716391Y21170500D02*
G75*
G03*
X16519609Y21170500I401609J0D01*
G01*
%TO.C,Sign_CE*%
X9000000Y1000000D02*
X9000000Y500000D01*
X9000000Y4500000D02*
X9000000Y4000000D01*
X7000000Y2750000D02*
X5750000Y2750000D01*
X5750000Y2250000D02*
X7000000Y2250000D01*
X5750000Y2500000D02*
X7000000Y2500000D01*
X5750000Y2750000D02*
X5750000Y2250000D01*
X5500000Y1000000D02*
X5500000Y500000D01*
X5500000Y4500000D02*
X5500000Y4000000D01*
D17*
X9049980Y750000D02*
G75*
G03*
X9050000Y4250000I-49979J1750000D01*
G01*
D10*
X9000000Y1000000D02*
G75*
G03*
X9000000Y4000000I0J1500000D01*
G01*
X9000000Y500000D02*
G75*
G03*
X9000000Y4500000I0J2000000D01*
G01*
D17*
X5549980Y750000D02*
G75*
G03*
X5550000Y4250000I-49980J1750000D01*
G01*
D10*
X5500000Y1000000D02*
G75*
G03*
X5500000Y4000000I0J1500000D01*
G01*
X5500000Y500000D02*
G75*
G03*
X5500000Y4500000I0J2000000D01*
G01*
D14*
%TO.C,R11*%
X17944500Y17254000D02*
X17944500Y16746000D01*
X17055500Y17254000D02*
X17055500Y16746000D01*
D10*
%TO.C,R6*%
X17238000Y3857000D02*
X18762000Y3857000D01*
X17238000Y6143000D02*
X18762000Y6143000D01*
%TO.C,R5*%
X11400000Y6782000D02*
X11400000Y2718000D01*
X14600000Y6782000D02*
X14600000Y2718000D01*
D14*
%TO.C,C5*%
X19444500Y17254000D02*
X19444500Y16746000D01*
X18555500Y17254000D02*
X18555500Y16746000D01*
D10*
%TO.C,C4*%
X21238000Y9492000D02*
X21238000Y10508000D01*
X22762000Y9492000D02*
X22762000Y10508000D01*
%TO.C,U2*%
X20500000Y12950000D02*
X20500000Y8950000D01*
X15500000Y12950000D02*
X15500000Y8950000D01*
D18*
%TO.C,Sign_PB-Free*%
X24160780Y3163320D02*
X21727460Y742700D01*
D10*
X24802237Y2000000D02*
G75*
G03*
X21197763Y2000000I-1802237J0D01*
G01*
X21197763Y2000000D02*
G75*
G03*
X24802237Y2000000I1802237J0D01*
G01*
D14*
%TO.C,R8*%
X22444500Y13504000D02*
X22444500Y12996000D01*
X21555500Y13504000D02*
X21555500Y12996000D01*
%TO.C,Sign_OSHW_7.3x6.0mm*%
D19*
X21367839Y23217057D02*
X21369642Y23207840D01*
X21378980Y23158891D01*
X21391669Y23091205D01*
X21406273Y23012478D01*
X21421355Y22930400D01*
X21427422Y22898078D01*
X21442181Y22825855D01*
X21456137Y22765666D01*
X21467952Y22723040D01*
X21476287Y22703510D01*
X21489905Y22694660D01*
X21525938Y22678548D01*
X21572572Y22662065D01*
X21590034Y22656263D01*
X21647358Y22634906D01*
X21715201Y22607359D01*
X21782355Y22578107D01*
X21817430Y22562463D01*
X21869822Y22540174D01*
X21909058Y22524857D01*
X21928563Y22519162D01*
X21930036Y22519478D01*
X21950729Y22530281D01*
X21990665Y22554638D01*
X22045972Y22590081D01*
X22112781Y22634136D01*
X22187220Y22684332D01*
X22429623Y22849501D01*
X22646983Y22632503D01*
X22667899Y22611516D01*
X22730505Y22547342D01*
X22784495Y22489990D01*
X22826826Y22442820D01*
X22854457Y22409192D01*
X22864343Y22392467D01*
X22856821Y22374303D01*
X22835227Y22336265D01*
X22802151Y22282726D01*
X22760191Y22217884D01*
X22711943Y22145940D01*
X22664291Y22075275D01*
X22622328Y22011526D01*
X22589165Y21959513D01*
X22567378Y21923279D01*
X22559543Y21906867D01*
X22559614Y21905905D01*
X22567338Y21884103D01*
X22585323Y21845440D01*
X22610013Y21797612D01*
X22610284Y21797110D01*
X22642099Y21733587D01*
X22657642Y21690060D01*
X22657685Y21663052D01*
X22643000Y21649090D01*
X22628544Y21643180D01*
X22589831Y21627229D01*
X22530316Y21602660D01*
X22453165Y21570779D01*
X22361541Y21532893D01*
X22258607Y21490310D01*
X22147526Y21444337D01*
X22046472Y21402667D01*
X21942780Y21360268D01*
X21850119Y21322756D01*
X21771642Y21291388D01*
X21710500Y21267425D01*
X21669843Y21252123D01*
X21652825Y21246743D01*
X21637219Y21257018D01*
X21611162Y21285563D01*
X21580887Y21325971D01*
X21501684Y21422979D01*
X21400475Y21509793D01*
X21289116Y21573322D01*
X21170893Y21613177D01*
X21049095Y21628965D01*
X20927010Y21620296D01*
X20807925Y21586778D01*
X20695129Y21528021D01*
X20591911Y21443632D01*
X20551713Y21399631D01*
X20480638Y21294211D01*
X20434301Y21181410D01*
X20411599Y21064525D01*
X20411428Y20946853D01*
X20432687Y20831690D01*
X20474270Y20722335D01*
X20535076Y20622083D01*
X20614001Y20534233D01*
X20709941Y20462080D01*
X20821795Y20408922D01*
X20948457Y20378057D01*
X21009507Y20372392D01*
X21141776Y20380185D01*
X21267266Y20415284D01*
X21383759Y20476649D01*
X21489039Y20563243D01*
X21580887Y20674029D01*
X21609930Y20712931D01*
X21636272Y20742104D01*
X21652800Y20753257D01*
X21667209Y20748810D01*
X21705815Y20734378D01*
X21765201Y20711173D01*
X21842215Y20680452D01*
X21933703Y20643474D01*
X22036516Y20601496D01*
X22147502Y20555778D01*
X22248072Y20514178D01*
X22351947Y20471222D01*
X22444819Y20432829D01*
X22523525Y20400305D01*
X22584899Y20374958D01*
X22625779Y20358095D01*
X22643000Y20351025D01*
X22643204Y20350943D01*
X22657745Y20336798D01*
X22657579Y20309659D01*
X22641927Y20266023D01*
X22610013Y20202388D01*
X22607326Y20197379D01*
X22583150Y20150125D01*
X22566037Y20112811D01*
X22559543Y20093133D01*
X22567218Y20077005D01*
X22588871Y20040959D01*
X22621928Y19989092D01*
X22663810Y19925445D01*
X22711943Y19854060D01*
X22759131Y19783724D01*
X22801267Y19718670D01*
X22834578Y19664820D01*
X22856469Y19626374D01*
X22864343Y19607534D01*
X22863343Y19604325D01*
X22847584Y19581954D01*
X22815033Y19543733D01*
X22768733Y19493021D01*
X22711726Y19433181D01*
X22647058Y19367571D01*
X22429772Y19150648D01*
X22181253Y19319601D01*
X21932733Y19488553D01*
X21821595Y19437183D01*
X21821266Y19437031D01*
X21750418Y19406183D01*
X21671523Y19374661D01*
X21601600Y19349266D01*
X21590322Y19345423D01*
X21537967Y19326047D01*
X21497283Y19308574D01*
X21476287Y19296388D01*
X21473322Y19291426D01*
X21463375Y19261634D01*
X21450505Y19211047D01*
X21436053Y19145194D01*
X21421355Y19069600D01*
X21417210Y19046957D01*
X21402116Y18965038D01*
X21387899Y18888600D01*
X21375995Y18825337D01*
X21367839Y18782943D01*
X21352799Y18706743D01*
X21035492Y18706743D01*
X20996476Y18706760D01*
X20901292Y18707082D01*
X20830255Y18708033D01*
X20779734Y18709896D01*
X20746098Y18712955D01*
X20725718Y18717494D01*
X20714962Y18723795D01*
X20710199Y18732143D01*
X20708270Y18740224D01*
X20701445Y18773172D01*
X20691022Y18825736D01*
X20678018Y18892569D01*
X20663449Y18968328D01*
X20648333Y19047665D01*
X20633685Y19125237D01*
X20620523Y19195698D01*
X20609863Y19253702D01*
X20602721Y19293904D01*
X20600114Y19310959D01*
X20598541Y19312112D01*
X20578119Y19321385D01*
X20539045Y19337432D01*
X20487629Y19357635D01*
X20418353Y19385672D01*
X20338290Y19420186D01*
X20267728Y19452538D01*
X20251889Y19459952D01*
X20202293Y19480755D01*
X20164038Y19493219D01*
X20144356Y19494863D01*
X20142962Y19494015D01*
X20122420Y19480548D01*
X20082516Y19453850D01*
X20027140Y19416539D01*
X19960177Y19371234D01*
X19885517Y19320552D01*
X19800692Y19263445D01*
X19734800Y19220607D01*
X19686478Y19191460D01*
X19652733Y19174317D01*
X19630572Y19167495D01*
X19617002Y19169306D01*
X19615984Y19169915D01*
X19596210Y19186297D01*
X19560175Y19219695D01*
X19511451Y19266671D01*
X19453612Y19323786D01*
X19390227Y19387603D01*
X19325905Y19453802D01*
X19265447Y19518648D01*
X19224655Y19566299D01*
X19202484Y19597990D01*
X19197889Y19614958D01*
X19198921Y19617175D01*
X19212837Y19640524D01*
X19240030Y19682912D01*
X19277889Y19740369D01*
X19323803Y19808923D01*
X19375160Y19884601D01*
X19543626Y20131298D01*
X19493062Y20242706D01*
X19491597Y20245943D01*
X19461965Y20314343D01*
X19432493Y20386907D01*
X19409358Y20448457D01*
X19409262Y20448729D01*
X19391367Y20497595D01*
X19376253Y20535212D01*
X19367184Y20553457D01*
X19366855Y20553752D01*
X19348282Y20559946D01*
X19306045Y20570139D01*
X19244696Y20583348D01*
X19168789Y20598590D01*
X19082875Y20614881D01*
X19079796Y20615449D01*
X18992128Y20631713D01*
X18912741Y20646608D01*
X18846701Y20659171D01*
X18799079Y20668438D01*
X18774943Y20673444D01*
X18773605Y20673764D01*
X18763273Y20677060D01*
X18755506Y20683738D01*
X18749940Y20697462D01*
X18746207Y20721895D01*
X18743942Y20760702D01*
X18742778Y20817546D01*
X18742348Y20896090D01*
X18742286Y21000000D01*
X18742286Y21013056D01*
X18742371Y21113933D01*
X18742865Y21189856D01*
X18744135Y21244491D01*
X18746547Y21281500D01*
X18750467Y21304547D01*
X18756262Y21317296D01*
X18764299Y21323411D01*
X18774943Y21326556D01*
X18775325Y21326646D01*
X18800347Y21331814D01*
X18848681Y21341209D01*
X18915260Y21353867D01*
X18995014Y21368825D01*
X19082875Y21385119D01*
X19090064Y21386448D01*
X19175340Y21402691D01*
X19250242Y21417805D01*
X19310219Y21430808D01*
X19350717Y21440715D01*
X19367184Y21446544D01*
X19367210Y21446575D01*
X19376320Y21464943D01*
X19391457Y21502640D01*
X19409358Y21551543D01*
X19410330Y21554297D01*
X19433959Y21616817D01*
X19463595Y21689543D01*
X19493062Y21757294D01*
X19543626Y21868703D01*
X19375160Y22115399D01*
X19363311Y22132775D01*
X19312947Y22207202D01*
X19268612Y22273614D01*
X19232916Y22328039D01*
X19208471Y22366506D01*
X19197889Y22385042D01*
X19200315Y22397743D01*
X19219110Y22426579D01*
X19256330Y22471143D01*
X19313020Y22532670D01*
X19390227Y22612398D01*
X19397255Y22619532D01*
X19460222Y22682796D01*
X19517268Y22738990D01*
X19564817Y22784677D01*
X19599297Y22816414D01*
X19617131Y22830764D01*
X19617217Y22830810D01*
X19630795Y22832633D01*
X19652820Y22825910D01*
X19686304Y22808946D01*
X19734261Y22780044D01*
X19799704Y22737508D01*
X19885645Y22679644D01*
X19900151Y22669783D01*
X19973635Y22619913D01*
X20038687Y22575905D01*
X20091417Y22540380D01*
X20127936Y22515959D01*
X20144356Y22505264D01*
X20147834Y22504458D01*
X20173785Y22509518D01*
X20216159Y22524677D01*
X20267728Y22547463D01*
X20335170Y22578429D01*
X20415195Y22613004D01*
X20487629Y22642366D01*
X20506377Y22649645D01*
X20554246Y22668710D01*
X20587596Y22682715D01*
X20600114Y22689041D01*
X20601050Y22696025D01*
X20606461Y22727413D01*
X20615806Y22778787D01*
X20628069Y22844802D01*
X20642232Y22920113D01*
X20657280Y22999375D01*
X20672195Y23077243D01*
X20685961Y23148370D01*
X20697562Y23207412D01*
X20705980Y23249022D01*
X20710199Y23267857D01*
X20711389Y23270980D01*
X20717805Y23278591D01*
X20731465Y23284254D01*
X20755999Y23288251D01*
X20795038Y23290866D01*
X20852213Y23292384D01*
X20931154Y23293086D01*
X21035492Y23293257D01*
X21352799Y23293257D01*
X21367839Y23217057D01*
G36*
X21367839Y23217057D02*
G01*
X21369642Y23207840D01*
X21378980Y23158891D01*
X21391669Y23091205D01*
X21406273Y23012478D01*
X21421355Y22930400D01*
X21427422Y22898078D01*
X21442181Y22825855D01*
X21456137Y22765666D01*
X21467952Y22723040D01*
X21476287Y22703510D01*
X21489905Y22694660D01*
X21525938Y22678548D01*
X21572572Y22662065D01*
X21590034Y22656263D01*
X21647358Y22634906D01*
X21715201Y22607359D01*
X21782355Y22578107D01*
X21817430Y22562463D01*
X21869822Y22540174D01*
X21909058Y22524857D01*
X21928563Y22519162D01*
X21930036Y22519478D01*
X21950729Y22530281D01*
X21990665Y22554638D01*
X22045972Y22590081D01*
X22112781Y22634136D01*
X22187220Y22684332D01*
X22429623Y22849501D01*
X22646983Y22632503D01*
X22667899Y22611516D01*
X22730505Y22547342D01*
X22784495Y22489990D01*
X22826826Y22442820D01*
X22854457Y22409192D01*
X22864343Y22392467D01*
X22856821Y22374303D01*
X22835227Y22336265D01*
X22802151Y22282726D01*
X22760191Y22217884D01*
X22711943Y22145940D01*
X22664291Y22075275D01*
X22622328Y22011526D01*
X22589165Y21959513D01*
X22567378Y21923279D01*
X22559543Y21906867D01*
X22559614Y21905905D01*
X22567338Y21884103D01*
X22585323Y21845440D01*
X22610013Y21797612D01*
X22610284Y21797110D01*
X22642099Y21733587D01*
X22657642Y21690060D01*
X22657685Y21663052D01*
X22643000Y21649090D01*
X22628544Y21643180D01*
X22589831Y21627229D01*
X22530316Y21602660D01*
X22453165Y21570779D01*
X22361541Y21532893D01*
X22258607Y21490310D01*
X22147526Y21444337D01*
X22046472Y21402667D01*
X21942780Y21360268D01*
X21850119Y21322756D01*
X21771642Y21291388D01*
X21710500Y21267425D01*
X21669843Y21252123D01*
X21652825Y21246743D01*
X21637219Y21257018D01*
X21611162Y21285563D01*
X21580887Y21325971D01*
X21501684Y21422979D01*
X21400475Y21509793D01*
X21289116Y21573322D01*
X21170893Y21613177D01*
X21049095Y21628965D01*
X20927010Y21620296D01*
X20807925Y21586778D01*
X20695129Y21528021D01*
X20591911Y21443632D01*
X20551713Y21399631D01*
X20480638Y21294211D01*
X20434301Y21181410D01*
X20411599Y21064525D01*
X20411428Y20946853D01*
X20432687Y20831690D01*
X20474270Y20722335D01*
X20535076Y20622083D01*
X20614001Y20534233D01*
X20709941Y20462080D01*
X20821795Y20408922D01*
X20948457Y20378057D01*
X21009507Y20372392D01*
X21141776Y20380185D01*
X21267266Y20415284D01*
X21383759Y20476649D01*
X21489039Y20563243D01*
X21580887Y20674029D01*
X21609930Y20712931D01*
X21636272Y20742104D01*
X21652800Y20753257D01*
X21667209Y20748810D01*
X21705815Y20734378D01*
X21765201Y20711173D01*
X21842215Y20680452D01*
X21933703Y20643474D01*
X22036516Y20601496D01*
X22147502Y20555778D01*
X22248072Y20514178D01*
X22351947Y20471222D01*
X22444819Y20432829D01*
X22523525Y20400305D01*
X22584899Y20374958D01*
X22625779Y20358095D01*
X22643000Y20351025D01*
X22643204Y20350943D01*
X22657745Y20336798D01*
X22657579Y20309659D01*
X22641927Y20266023D01*
X22610013Y20202388D01*
X22607326Y20197379D01*
X22583150Y20150125D01*
X22566037Y20112811D01*
X22559543Y20093133D01*
X22567218Y20077005D01*
X22588871Y20040959D01*
X22621928Y19989092D01*
X22663810Y19925445D01*
X22711943Y19854060D01*
X22759131Y19783724D01*
X22801267Y19718670D01*
X22834578Y19664820D01*
X22856469Y19626374D01*
X22864343Y19607534D01*
X22863343Y19604325D01*
X22847584Y19581954D01*
X22815033Y19543733D01*
X22768733Y19493021D01*
X22711726Y19433181D01*
X22647058Y19367571D01*
X22429772Y19150648D01*
X22181253Y19319601D01*
X21932733Y19488553D01*
X21821595Y19437183D01*
X21821266Y19437031D01*
X21750418Y19406183D01*
X21671523Y19374661D01*
X21601600Y19349266D01*
X21590322Y19345423D01*
X21537967Y19326047D01*
X21497283Y19308574D01*
X21476287Y19296388D01*
X21473322Y19291426D01*
X21463375Y19261634D01*
X21450505Y19211047D01*
X21436053Y19145194D01*
X21421355Y19069600D01*
X21417210Y19046957D01*
X21402116Y18965038D01*
X21387899Y18888600D01*
X21375995Y18825337D01*
X21367839Y18782943D01*
X21352799Y18706743D01*
X21035492Y18706743D01*
X20996476Y18706760D01*
X20901292Y18707082D01*
X20830255Y18708033D01*
X20779734Y18709896D01*
X20746098Y18712955D01*
X20725718Y18717494D01*
X20714962Y18723795D01*
X20710199Y18732143D01*
X20708270Y18740224D01*
X20701445Y18773172D01*
X20691022Y18825736D01*
X20678018Y18892569D01*
X20663449Y18968328D01*
X20648333Y19047665D01*
X20633685Y19125237D01*
X20620523Y19195698D01*
X20609863Y19253702D01*
X20602721Y19293904D01*
X20600114Y19310959D01*
X20598541Y19312112D01*
X20578119Y19321385D01*
X20539045Y19337432D01*
X20487629Y19357635D01*
X20418353Y19385672D01*
X20338290Y19420186D01*
X20267728Y19452538D01*
X20251889Y19459952D01*
X20202293Y19480755D01*
X20164038Y19493219D01*
X20144356Y19494863D01*
X20142962Y19494015D01*
X20122420Y19480548D01*
X20082516Y19453850D01*
X20027140Y19416539D01*
X19960177Y19371234D01*
X19885517Y19320552D01*
X19800692Y19263445D01*
X19734800Y19220607D01*
X19686478Y19191460D01*
X19652733Y19174317D01*
X19630572Y19167495D01*
X19617002Y19169306D01*
X19615984Y19169915D01*
X19596210Y19186297D01*
X19560175Y19219695D01*
X19511451Y19266671D01*
X19453612Y19323786D01*
X19390227Y19387603D01*
X19325905Y19453802D01*
X19265447Y19518648D01*
X19224655Y19566299D01*
X19202484Y19597990D01*
X19197889Y19614958D01*
X19198921Y19617175D01*
X19212837Y19640524D01*
X19240030Y19682912D01*
X19277889Y19740369D01*
X19323803Y19808923D01*
X19375160Y19884601D01*
X19543626Y20131298D01*
X19493062Y20242706D01*
X19491597Y20245943D01*
X19461965Y20314343D01*
X19432493Y20386907D01*
X19409358Y20448457D01*
X19409262Y20448729D01*
X19391367Y20497595D01*
X19376253Y20535212D01*
X19367184Y20553457D01*
X19366855Y20553752D01*
X19348282Y20559946D01*
X19306045Y20570139D01*
X19244696Y20583348D01*
X19168789Y20598590D01*
X19082875Y20614881D01*
X19079796Y20615449D01*
X18992128Y20631713D01*
X18912741Y20646608D01*
X18846701Y20659171D01*
X18799079Y20668438D01*
X18774943Y20673444D01*
X18773605Y20673764D01*
X18763273Y20677060D01*
X18755506Y20683738D01*
X18749940Y20697462D01*
X18746207Y20721895D01*
X18743942Y20760702D01*
X18742778Y20817546D01*
X18742348Y20896090D01*
X18742286Y21000000D01*
X18742286Y21013056D01*
X18742371Y21113933D01*
X18742865Y21189856D01*
X18744135Y21244491D01*
X18746547Y21281500D01*
X18750467Y21304547D01*
X18756262Y21317296D01*
X18764299Y21323411D01*
X18774943Y21326556D01*
X18775325Y21326646D01*
X18800347Y21331814D01*
X18848681Y21341209D01*
X18915260Y21353867D01*
X18995014Y21368825D01*
X19082875Y21385119D01*
X19090064Y21386448D01*
X19175340Y21402691D01*
X19250242Y21417805D01*
X19310219Y21430808D01*
X19350717Y21440715D01*
X19367184Y21446544D01*
X19367210Y21446575D01*
X19376320Y21464943D01*
X19391457Y21502640D01*
X19409358Y21551543D01*
X19410330Y21554297D01*
X19433959Y21616817D01*
X19463595Y21689543D01*
X19493062Y21757294D01*
X19543626Y21868703D01*
X19375160Y22115399D01*
X19363311Y22132775D01*
X19312947Y22207202D01*
X19268612Y22273614D01*
X19232916Y22328039D01*
X19208471Y22366506D01*
X19197889Y22385042D01*
X19200315Y22397743D01*
X19219110Y22426579D01*
X19256330Y22471143D01*
X19313020Y22532670D01*
X19390227Y22612398D01*
X19397255Y22619532D01*
X19460222Y22682796D01*
X19517268Y22738990D01*
X19564817Y22784677D01*
X19599297Y22816414D01*
X19617131Y22830764D01*
X19617217Y22830810D01*
X19630795Y22832633D01*
X19652820Y22825910D01*
X19686304Y22808946D01*
X19734261Y22780044D01*
X19799704Y22737508D01*
X19885645Y22679644D01*
X19900151Y22669783D01*
X19973635Y22619913D01*
X20038687Y22575905D01*
X20091417Y22540380D01*
X20127936Y22515959D01*
X20144356Y22505264D01*
X20147834Y22504458D01*
X20173785Y22509518D01*
X20216159Y22524677D01*
X20267728Y22547463D01*
X20335170Y22578429D01*
X20415195Y22613004D01*
X20487629Y22642366D01*
X20506377Y22649645D01*
X20554246Y22668710D01*
X20587596Y22682715D01*
X20600114Y22689041D01*
X20601050Y22696025D01*
X20606461Y22727413D01*
X20615806Y22778787D01*
X20628069Y22844802D01*
X20642232Y22920113D01*
X20657280Y22999375D01*
X20672195Y23077243D01*
X20685961Y23148370D01*
X20697562Y23207412D01*
X20705980Y23249022D01*
X20710199Y23267857D01*
X20711389Y23270980D01*
X20717805Y23278591D01*
X20731465Y23284254D01*
X20755999Y23288251D01*
X20795038Y23290866D01*
X20852213Y23292384D01*
X20931154Y23293086D01*
X21035492Y23293257D01*
X21352799Y23293257D01*
X21367839Y23217057D01*
G37*
D10*
%TO.C,R7*%
X17238000Y857000D02*
X18762000Y857000D01*
X17238000Y3143000D02*
X18762000Y3143000D01*
%TO.C,Sign_Antistatic_150*%
D20*
X14775879Y9223771D02*
X14730240Y9176995D01*
X14675901Y9144263D01*
X14617547Y9128010D01*
X14559862Y9130673D01*
X14554218Y9132888D01*
X14529575Y9145226D01*
X14487731Y9167634D01*
X14429858Y9199434D01*
X14357125Y9239950D01*
X14270706Y9288505D01*
X14171770Y9344421D01*
X14061490Y9407021D01*
X13941037Y9475628D01*
X13811582Y9549565D01*
X13674297Y9628154D01*
X13530352Y9710717D01*
X13380921Y9796579D01*
X13227173Y9885062D01*
X13070280Y9975488D01*
X12911414Y10067180D01*
X12751746Y10159461D01*
X12592447Y10251654D01*
X12434690Y10343081D01*
X12279644Y10433066D01*
X12128482Y10520930D01*
X11982374Y10605998D01*
X11907837Y10649476D01*
X12245802Y10649476D01*
X12249586Y10645874D01*
X12270245Y10631467D01*
X12306181Y10608688D01*
X12354764Y10579049D01*
X12413364Y10544061D01*
X12479353Y10505234D01*
X12550099Y10464079D01*
X12622975Y10422107D01*
X12695348Y10380830D01*
X12764591Y10341758D01*
X12828073Y10306401D01*
X12883165Y10276272D01*
X12927237Y10252880D01*
X12957659Y10237737D01*
X12971801Y10232353D01*
X12974673Y10233105D01*
X12991498Y10245616D01*
X13016060Y10270339D01*
X13044119Y10303122D01*
X13050242Y10310612D01*
X13081554Y10345088D01*
X13111338Y10372537D01*
X13133874Y10387579D01*
X13135431Y10388232D01*
X13190467Y10419288D01*
X13254902Y10469655D01*
X13328307Y10538963D01*
X13410257Y10626842D01*
X13437679Y10657518D01*
X13475068Y10698506D01*
X13505813Y10731203D01*
X13527299Y10752845D01*
X13536914Y10760673D01*
X13537238Y10760622D01*
X13547347Y10749611D01*
X13567903Y10719532D01*
X13598778Y10670607D01*
X13639842Y10603051D01*
X13690965Y10517086D01*
X13752020Y10412928D01*
X13822877Y10290796D01*
X13903407Y10150910D01*
X13993481Y9993488D01*
X14092970Y9818748D01*
X14299813Y9454673D01*
X14422922Y9381416D01*
X14471281Y9353138D01*
X14525342Y9322501D01*
X14577673Y9293712D01*
X14624811Y9268613D01*
X14663296Y9249044D01*
X14689665Y9236845D01*
X14700457Y9233856D01*
X14700914Y9234653D01*
X14703739Y9251388D01*
X14706042Y9284255D01*
X14707718Y9328135D01*
X14708663Y9377910D01*
X14708775Y9428460D01*
X14707950Y9474669D01*
X14706082Y9511417D01*
X14705233Y9521803D01*
X14701745Y9555063D01*
X14696358Y9582898D01*
X14687174Y9610162D01*
X14672297Y9641707D01*
X14649827Y9682387D01*
X14617870Y9737053D01*
X14543766Y9862722D01*
X14430456Y10055191D01*
X14326582Y10232038D01*
X14232461Y10392722D01*
X14148409Y10536702D01*
X14074744Y10663437D01*
X14011780Y10772383D01*
X13959835Y10863001D01*
X13823073Y11102912D01*
X13853369Y11154678D01*
X13889533Y11209090D01*
X13937622Y11265206D01*
X13997179Y11320092D01*
X14070586Y11375710D01*
X14160225Y11434024D01*
X14268476Y11496997D01*
X14276276Y11501358D01*
X14336156Y11535639D01*
X14396606Y11571444D01*
X14450978Y11604782D01*
X14492625Y11631659D01*
X14575542Y11687611D01*
X14570613Y11747043D01*
X14561105Y11794216D01*
X14538523Y11833753D01*
X14501520Y11862933D01*
X14448478Y11882615D01*
X14377779Y11893656D01*
X14287802Y11896914D01*
X14217766Y11894910D01*
X14090354Y11880242D01*
X13977877Y11850872D01*
X13878872Y11806217D01*
X13791879Y11745695D01*
X13715436Y11668723D01*
X13713752Y11666717D01*
X13670632Y11615562D01*
X13639211Y11578975D01*
X13617280Y11554604D01*
X13602629Y11540094D01*
X13593048Y11533093D01*
X13586326Y11531248D01*
X13576818Y11539643D01*
X13559179Y11563753D01*
X13536157Y11599792D01*
X13510315Y11643958D01*
X13492709Y11674830D01*
X13455222Y11738634D01*
X13416079Y11803306D01*
X13381350Y11858735D01*
X13353555Y11902974D01*
X13333998Y11939161D01*
X13327020Y11964280D01*
X13332626Y11982048D01*
X13350823Y11996183D01*
X13381618Y12010402D01*
X13405910Y12023769D01*
X13440905Y12048303D01*
X13476051Y12077262D01*
X13516668Y12112344D01*
X13547693Y12134032D01*
X13573044Y12143249D01*
X13597538Y12141729D01*
X13625994Y12131205D01*
X13628859Y12129931D01*
X13654307Y12120881D01*
X13682366Y12116363D01*
X13719442Y12115830D01*
X13771937Y12118733D01*
X13790125Y12120074D01*
X13842015Y12124333D01*
X13888548Y12128718D01*
X13921418Y12132466D01*
X13933326Y12133850D01*
X13966233Y12132805D01*
X13988225Y12121295D01*
X14006163Y12108991D01*
X14048264Y12090258D01*
X14104114Y12072595D01*
X14168776Y12057487D01*
X14237310Y12046418D01*
X14275875Y12042463D01*
X14366051Y12040925D01*
X14442131Y12051504D01*
X14502796Y12073784D01*
X14546728Y12107351D01*
X14572609Y12151791D01*
X14576227Y12164047D01*
X14579354Y12199186D01*
X14567127Y12228079D01*
X14537415Y12253957D01*
X14488091Y12280051D01*
X14423995Y12307185D01*
X14332295Y12341607D01*
X14223914Y12378595D01*
X14101487Y12417256D01*
X13967647Y12456696D01*
X13915152Y12471945D01*
X13851085Y12491298D01*
X13794050Y12509320D01*
X13748776Y12524507D01*
X13719997Y12535358D01*
X13703541Y12541602D01*
X13640593Y12555432D01*
X13568345Y12559741D01*
X13494890Y12554416D01*
X13428320Y12539348D01*
X13404480Y12530840D01*
X13324947Y12495274D01*
X13244738Y12450076D01*
X13173980Y12400766D01*
X13146085Y12379605D01*
X13121786Y12363001D01*
X13109036Y12356640D01*
X13106349Y12357644D01*
X13093009Y12371076D01*
X13076107Y12395163D01*
X13070600Y12403464D01*
X13051724Y12425038D01*
X13036320Y12433687D01*
X13027451Y12431900D01*
X13000518Y12421298D01*
X12962220Y12403056D01*
X12916436Y12379360D01*
X12867048Y12352399D01*
X12817937Y12324360D01*
X12772983Y12297431D01*
X12736069Y12273799D01*
X12711074Y12255652D01*
X12701880Y12245177D01*
X12702346Y12242289D01*
X12709687Y12223118D01*
X12723113Y12195870D01*
X12727436Y12187288D01*
X12737438Y12160574D01*
X12738638Y12143629D01*
X12729331Y12132456D01*
X12706986Y12111711D01*
X12677167Y12086977D01*
X12659790Y12073055D01*
X12616371Y12034635D01*
X12585846Y11998521D01*
X12564711Y11958639D01*
X12549465Y11908917D01*
X12536605Y11843283D01*
X12534693Y11831697D01*
X12526755Y11779030D01*
X12517362Y11711291D01*
X12507214Y11633777D01*
X12497008Y11551782D01*
X12487444Y11470603D01*
X12473860Y11352915D01*
X12460131Y11239387D01*
X12447446Y11143537D01*
X12435194Y11063127D01*
X12422769Y10995922D01*
X12409560Y10939685D01*
X12394961Y10892179D01*
X12378363Y10851168D01*
X12359156Y10814416D01*
X12336733Y10779686D01*
X12310485Y10744742D01*
X12279805Y10707346D01*
X12263455Y10686271D01*
X12248925Y10662660D01*
X12245802Y10649476D01*
X11907837Y10649476D01*
X11842494Y10687591D01*
X11710011Y10765032D01*
X11586097Y10837644D01*
X11471923Y10904751D01*
X11368661Y10965674D01*
X11277483Y11019736D01*
X11199560Y11066261D01*
X11136062Y11104570D01*
X11088162Y11133988D01*
X11057031Y11153836D01*
X11043840Y11163437D01*
X11031535Y11179341D01*
X11008609Y11229646D01*
X10998809Y11287685D01*
X11002053Y11347048D01*
X11018262Y11401326D01*
X11047355Y11444106D01*
X11047386Y11444135D01*
X11059239Y11451904D01*
X11088974Y11469993D01*
X11135425Y11497724D01*
X11197424Y11534422D01*
X11273803Y11579407D01*
X11363396Y11632003D01*
X11465035Y11691532D01*
X11577553Y11757318D01*
X11699782Y11828681D01*
X11830555Y11904946D01*
X11968706Y11985435D01*
X12113066Y12069469D01*
X12262469Y12156373D01*
X12415747Y12245468D01*
X12571733Y12336078D01*
X12729259Y12427523D01*
X12887159Y12519129D01*
X13044265Y12610216D01*
X13199409Y12700107D01*
X13351426Y12788125D01*
X13499146Y12873594D01*
X13641404Y12955834D01*
X13777031Y13034169D01*
X13904861Y13107922D01*
X14023726Y13176415D01*
X14132459Y13238970D01*
X14229893Y13294910D01*
X14314860Y13343559D01*
X14386193Y13384237D01*
X14442725Y13416269D01*
X14483288Y13438976D01*
X14506716Y13451682D01*
X14538992Y13463447D01*
X14591806Y13470665D01*
X14645489Y13467537D01*
X14689959Y13453938D01*
X14721793Y13432242D01*
X14756551Y13398366D01*
X14784491Y13361179D01*
X14799454Y13327777D01*
X14804808Y13305005D01*
X14809827Y13286703D01*
X14810075Y13281445D01*
X14810434Y13255874D01*
X14810761Y13210100D01*
X14811055Y13145227D01*
X14811314Y13062355D01*
X14811538Y12962586D01*
X14811725Y12847023D01*
X14811876Y12716766D01*
X14811987Y12572918D01*
X14812060Y12416581D01*
X14812092Y12248857D01*
X14812083Y12070847D01*
X14812032Y11883653D01*
X14811938Y11688377D01*
X14811799Y11486121D01*
X14811616Y11277987D01*
X14811599Y11260504D01*
X14811329Y11010352D01*
X14811031Y10781270D01*
X14810699Y10572371D01*
X14810325Y10382772D01*
X14809901Y10211586D01*
X14809420Y10057929D01*
X14808874Y9920915D01*
X14808256Y9799660D01*
X14807559Y9693278D01*
X14806775Y9600884D01*
X14805897Y9521593D01*
X14804916Y9454520D01*
X14803827Y9398780D01*
X14802620Y9353487D01*
X14801290Y9317757D01*
X14799828Y9290704D01*
X14798227Y9271444D01*
X14796479Y9259091D01*
X14794578Y9252760D01*
X14782384Y9233856D01*
X14775879Y9223771D01*
G36*
X14775879Y9223771D02*
G01*
X14730240Y9176995D01*
X14675901Y9144263D01*
X14617547Y9128010D01*
X14559862Y9130673D01*
X14554218Y9132888D01*
X14529575Y9145226D01*
X14487731Y9167634D01*
X14429858Y9199434D01*
X14357125Y9239950D01*
X14270706Y9288505D01*
X14171770Y9344421D01*
X14061490Y9407021D01*
X13941037Y9475628D01*
X13811582Y9549565D01*
X13674297Y9628154D01*
X13530352Y9710717D01*
X13380921Y9796579D01*
X13227173Y9885062D01*
X13070280Y9975488D01*
X12911414Y10067180D01*
X12751746Y10159461D01*
X12592447Y10251654D01*
X12434690Y10343081D01*
X12279644Y10433066D01*
X12128482Y10520930D01*
X11982374Y10605998D01*
X11907837Y10649476D01*
X12245802Y10649476D01*
X12249586Y10645874D01*
X12270245Y10631467D01*
X12306181Y10608688D01*
X12354764Y10579049D01*
X12413364Y10544061D01*
X12479353Y10505234D01*
X12550099Y10464079D01*
X12622975Y10422107D01*
X12695348Y10380830D01*
X12764591Y10341758D01*
X12828073Y10306401D01*
X12883165Y10276272D01*
X12927237Y10252880D01*
X12957659Y10237737D01*
X12971801Y10232353D01*
X12974673Y10233105D01*
X12991498Y10245616D01*
X13016060Y10270339D01*
X13044119Y10303122D01*
X13050242Y10310612D01*
X13081554Y10345088D01*
X13111338Y10372537D01*
X13133874Y10387579D01*
X13135431Y10388232D01*
X13190467Y10419288D01*
X13254902Y10469655D01*
X13328307Y10538963D01*
X13410257Y10626842D01*
X13437679Y10657518D01*
X13475068Y10698506D01*
X13505813Y10731203D01*
X13527299Y10752845D01*
X13536914Y10760673D01*
X13537238Y10760622D01*
X13547347Y10749611D01*
X13567903Y10719532D01*
X13598778Y10670607D01*
X13639842Y10603051D01*
X13690965Y10517086D01*
X13752020Y10412928D01*
X13822877Y10290796D01*
X13903407Y10150910D01*
X13993481Y9993488D01*
X14092970Y9818748D01*
X14299813Y9454673D01*
X14422922Y9381416D01*
X14471281Y9353138D01*
X14525342Y9322501D01*
X14577673Y9293712D01*
X14624811Y9268613D01*
X14663296Y9249044D01*
X14689665Y9236845D01*
X14700457Y9233856D01*
X14700914Y9234653D01*
X14703739Y9251388D01*
X14706042Y9284255D01*
X14707718Y9328135D01*
X14708663Y9377910D01*
X14708775Y9428460D01*
X14707950Y9474669D01*
X14706082Y9511417D01*
X14705233Y9521803D01*
X14701745Y9555063D01*
X14696358Y9582898D01*
X14687174Y9610162D01*
X14672297Y9641707D01*
X14649827Y9682387D01*
X14617870Y9737053D01*
X14543766Y9862722D01*
X14430456Y10055191D01*
X14326582Y10232038D01*
X14232461Y10392722D01*
X14148409Y10536702D01*
X14074744Y10663437D01*
X14011780Y10772383D01*
X13959835Y10863001D01*
X13823073Y11102912D01*
X13853369Y11154678D01*
X13889533Y11209090D01*
X13937622Y11265206D01*
X13997179Y11320092D01*
X14070586Y11375710D01*
X14160225Y11434024D01*
X14268476Y11496997D01*
X14276276Y11501358D01*
X14336156Y11535639D01*
X14396606Y11571444D01*
X14450978Y11604782D01*
X14492625Y11631659D01*
X14575542Y11687611D01*
X14570613Y11747043D01*
X14561105Y11794216D01*
X14538523Y11833753D01*
X14501520Y11862933D01*
X14448478Y11882615D01*
X14377779Y11893656D01*
X14287802Y11896914D01*
X14217766Y11894910D01*
X14090354Y11880242D01*
X13977877Y11850872D01*
X13878872Y11806217D01*
X13791879Y11745695D01*
X13715436Y11668723D01*
X13713752Y11666717D01*
X13670632Y11615562D01*
X13639211Y11578975D01*
X13617280Y11554604D01*
X13602629Y11540094D01*
X13593048Y11533093D01*
X13586326Y11531248D01*
X13576818Y11539643D01*
X13559179Y11563753D01*
X13536157Y11599792D01*
X13510315Y11643958D01*
X13492709Y11674830D01*
X13455222Y11738634D01*
X13416079Y11803306D01*
X13381350Y11858735D01*
X13353555Y11902974D01*
X13333998Y11939161D01*
X13327020Y11964280D01*
X13332626Y11982048D01*
X13350823Y11996183D01*
X13381618Y12010402D01*
X13405910Y12023769D01*
X13440905Y12048303D01*
X13476051Y12077262D01*
X13516668Y12112344D01*
X13547693Y12134032D01*
X13573044Y12143249D01*
X13597538Y12141729D01*
X13625994Y12131205D01*
X13628859Y12129931D01*
X13654307Y12120881D01*
X13682366Y12116363D01*
X13719442Y12115830D01*
X13771937Y12118733D01*
X13790125Y12120074D01*
X13842015Y12124333D01*
X13888548Y12128718D01*
X13921418Y12132466D01*
X13933326Y12133850D01*
X13966233Y12132805D01*
X13988225Y12121295D01*
X14006163Y12108991D01*
X14048264Y12090258D01*
X14104114Y12072595D01*
X14168776Y12057487D01*
X14237310Y12046418D01*
X14275875Y12042463D01*
X14366051Y12040925D01*
X14442131Y12051504D01*
X14502796Y12073784D01*
X14546728Y12107351D01*
X14572609Y12151791D01*
X14576227Y12164047D01*
X14579354Y12199186D01*
X14567127Y12228079D01*
X14537415Y12253957D01*
X14488091Y12280051D01*
X14423995Y12307185D01*
X14332295Y12341607D01*
X14223914Y12378595D01*
X14101487Y12417256D01*
X13967647Y12456696D01*
X13915152Y12471945D01*
X13851085Y12491298D01*
X13794050Y12509320D01*
X13748776Y12524507D01*
X13719997Y12535358D01*
X13703541Y12541602D01*
X13640593Y12555432D01*
X13568345Y12559741D01*
X13494890Y12554416D01*
X13428320Y12539348D01*
X13404480Y12530840D01*
X13324947Y12495274D01*
X13244738Y12450076D01*
X13173980Y12400766D01*
X13146085Y12379605D01*
X13121786Y12363001D01*
X13109036Y12356640D01*
X13106349Y12357644D01*
X13093009Y12371076D01*
X13076107Y12395163D01*
X13070600Y12403464D01*
X13051724Y12425038D01*
X13036320Y12433687D01*
X13027451Y12431900D01*
X13000518Y12421298D01*
X12962220Y12403056D01*
X12916436Y12379360D01*
X12867048Y12352399D01*
X12817937Y12324360D01*
X12772983Y12297431D01*
X12736069Y12273799D01*
X12711074Y12255652D01*
X12701880Y12245177D01*
X12702346Y12242289D01*
X12709687Y12223118D01*
X12723113Y12195870D01*
X12727436Y12187288D01*
X12737438Y12160574D01*
X12738638Y12143629D01*
X12729331Y12132456D01*
X12706986Y12111711D01*
X12677167Y12086977D01*
X12659790Y12073055D01*
X12616371Y12034635D01*
X12585846Y11998521D01*
X12564711Y11958639D01*
X12549465Y11908917D01*
X12536605Y11843283D01*
X12534693Y11831697D01*
X12526755Y11779030D01*
X12517362Y11711291D01*
X12507214Y11633777D01*
X12497008Y11551782D01*
X12487444Y11470603D01*
X12473860Y11352915D01*
X12460131Y11239387D01*
X12447446Y11143537D01*
X12435194Y11063127D01*
X12422769Y10995922D01*
X12409560Y10939685D01*
X12394961Y10892179D01*
X12378363Y10851168D01*
X12359156Y10814416D01*
X12336733Y10779686D01*
X12310485Y10744742D01*
X12279805Y10707346D01*
X12263455Y10686271D01*
X12248925Y10662660D01*
X12245802Y10649476D01*
X11907837Y10649476D01*
X11842494Y10687591D01*
X11710011Y10765032D01*
X11586097Y10837644D01*
X11471923Y10904751D01*
X11368661Y10965674D01*
X11277483Y11019736D01*
X11199560Y11066261D01*
X11136062Y11104570D01*
X11088162Y11133988D01*
X11057031Y11153836D01*
X11043840Y11163437D01*
X11031535Y11179341D01*
X11008609Y11229646D01*
X10998809Y11287685D01*
X11002053Y11347048D01*
X11018262Y11401326D01*
X11047355Y11444106D01*
X11047386Y11444135D01*
X11059239Y11451904D01*
X11088974Y11469993D01*
X11135425Y11497724D01*
X11197424Y11534422D01*
X11273803Y11579407D01*
X11363396Y11632003D01*
X11465035Y11691532D01*
X11577553Y11757318D01*
X11699782Y11828681D01*
X11830555Y11904946D01*
X11968706Y11985435D01*
X12113066Y12069469D01*
X12262469Y12156373D01*
X12415747Y12245468D01*
X12571733Y12336078D01*
X12729259Y12427523D01*
X12887159Y12519129D01*
X13044265Y12610216D01*
X13199409Y12700107D01*
X13351426Y12788125D01*
X13499146Y12873594D01*
X13641404Y12955834D01*
X13777031Y13034169D01*
X13904861Y13107922D01*
X14023726Y13176415D01*
X14132459Y13238970D01*
X14229893Y13294910D01*
X14314860Y13343559D01*
X14386193Y13384237D01*
X14442725Y13416269D01*
X14483288Y13438976D01*
X14506716Y13451682D01*
X14538992Y13463447D01*
X14591806Y13470665D01*
X14645489Y13467537D01*
X14689959Y13453938D01*
X14721793Y13432242D01*
X14756551Y13398366D01*
X14784491Y13361179D01*
X14799454Y13327777D01*
X14804808Y13305005D01*
X14809827Y13286703D01*
X14810075Y13281445D01*
X14810434Y13255874D01*
X14810761Y13210100D01*
X14811055Y13145227D01*
X14811314Y13062355D01*
X14811538Y12962586D01*
X14811725Y12847023D01*
X14811876Y12716766D01*
X14811987Y12572918D01*
X14812060Y12416581D01*
X14812092Y12248857D01*
X14812083Y12070847D01*
X14812032Y11883653D01*
X14811938Y11688377D01*
X14811799Y11486121D01*
X14811616Y11277987D01*
X14811599Y11260504D01*
X14811329Y11010352D01*
X14811031Y10781270D01*
X14810699Y10572371D01*
X14810325Y10382772D01*
X14809901Y10211586D01*
X14809420Y10057929D01*
X14808874Y9920915D01*
X14808256Y9799660D01*
X14807559Y9693278D01*
X14806775Y9600884D01*
X14805897Y9521593D01*
X14804916Y9454520D01*
X14803827Y9398780D01*
X14802620Y9353487D01*
X14801290Y9317757D01*
X14799828Y9290704D01*
X14798227Y9271444D01*
X14796479Y9259091D01*
X14794578Y9252760D01*
X14782384Y9233856D01*
X14775879Y9223771D01*
G37*
D14*
%TO.C,R10*%
X15754000Y16055500D02*
X15246000Y16055500D01*
X15754000Y16944500D02*
X15246000Y16944500D01*
D21*
%TO.C,Logo_OLIMEX_TB*%
X28617600Y23001000D02*
X29189100Y22416800D01*
X26649100Y23001000D02*
X26890400Y23001000D01*
X26598300Y23001000D02*
X26090300Y22493000D01*
X28630300Y22988300D02*
X27868300Y22988300D01*
X29189100Y22429500D02*
X29189100Y21388100D01*
X26014100Y21400800D02*
X26623700Y20765800D01*
X26001400Y21400800D02*
X26001400Y22404100D01*
X28579500Y20791200D02*
X29163700Y21350000D01*
X26611000Y20778500D02*
X28541400Y20778500D01*
D22*
X25658500Y19927600D02*
X28808100Y19927600D01*
X25658500Y19914900D02*
X25658500Y19927600D01*
X25658500Y19902200D02*
X25658500Y19914900D01*
X25747400Y19787900D02*
X25734700Y19851400D01*
D21*
X28731900Y19622800D02*
X26001400Y19622800D01*
D22*
X25658500Y19622800D02*
X25658500Y19902200D01*
X25658500Y19610100D02*
X25658500Y19305300D01*
X25734700Y19483100D02*
X25734700Y19368800D01*
X25658500Y19305300D02*
X28693800Y19305300D01*
D21*
X29176400Y19165600D02*
X28719200Y19622800D01*
X29176400Y18179800D02*
X29176400Y19165600D01*
D22*
X28363600Y17984500D02*
X28363600Y17374900D01*
X26344300Y17984500D02*
X28363600Y17984500D01*
X28300100Y17844800D02*
X28300100Y17908300D01*
D21*
X26458600Y17667000D02*
X28058800Y17667000D01*
D22*
X28300100Y17501900D02*
X28300100Y17413000D01*
X28363600Y17374900D02*
X28363600Y17349500D01*
X28363600Y17349500D02*
X26344300Y17349500D01*
X28706500Y16765300D02*
X25722000Y16765300D01*
X25709300Y16765300D02*
X25709300Y15520700D01*
X25772800Y16612900D02*
X25772800Y16689100D01*
D21*
X28617600Y16447800D02*
X26026800Y16447800D01*
X26026800Y16447800D02*
X26026800Y15609600D01*
X26026800Y15609600D02*
X26534800Y15000000D01*
D22*
X25709300Y15520700D02*
X26191900Y14936500D01*
D21*
X27322200Y14898400D02*
X26611000Y14898400D01*
X26534800Y14822200D02*
X26026800Y14187200D01*
D22*
X25709300Y14276100D02*
X26204600Y14898400D01*
X25709300Y14250700D02*
X25709300Y14276100D01*
D21*
X26026800Y14187200D02*
X26026800Y13298200D01*
X26014100Y13285500D02*
X28617600Y13285500D01*
D22*
X25785500Y13107700D02*
X25785500Y13006100D01*
X28731900Y12955300D02*
X25722000Y12955300D01*
X25722000Y12955300D02*
X25709300Y12955300D01*
X25709300Y12955300D02*
X25709300Y14250700D01*
D21*
X28744600Y12028200D02*
X29176400Y11596400D01*
X26509400Y12028200D02*
X28744600Y12028200D01*
X26484000Y12028200D02*
X25976000Y11545600D01*
X29176400Y11596400D02*
X29176400Y10275600D01*
D22*
X25671200Y11583700D02*
X25671200Y10212100D01*
D21*
X26001400Y11497500D02*
X26001400Y10275600D01*
X27576200Y10809000D02*
X27576200Y12028200D01*
X29176400Y10275600D02*
X28058800Y9132600D01*
X26001400Y10275600D02*
X27068200Y9183400D01*
D22*
X25671200Y10212100D02*
X25671200Y10161300D01*
X25671200Y10161300D02*
X26915800Y8904000D01*
D23*
X27182500Y9158000D02*
X27182500Y8599200D01*
X27957200Y9132600D02*
X27957200Y8599200D01*
D21*
X28871600Y7786400D02*
X28058800Y8624600D01*
X26191900Y7735600D02*
X27085600Y8599200D01*
D24*
X27710447Y22988300D02*
G75*
G03*
X27035553Y22988300I-337447J0D01*
G01*
X27035553Y22988300D02*
G75*
G03*
X27710447Y22988300I337447J0D01*
G01*
X29517324Y17667000D02*
G75*
G03*
X28784676Y17667000I-366324J0D01*
G01*
X28784676Y17667000D02*
G75*
G03*
X29517324Y17667000I366324J0D01*
G01*
X26298718Y17654300D02*
G75*
G03*
X25551682Y17654300I-373518J0D01*
G01*
X25551682Y17654300D02*
G75*
G03*
X26298718Y17654300I373518J0D01*
G01*
X29485259Y16435100D02*
G75*
G03*
X28765941Y16435100I-359659J0D01*
G01*
X28765941Y16435100D02*
G75*
G03*
X29485259Y16435100I359659J0D01*
G01*
X28226518Y14898400D02*
G75*
G03*
X27484682Y14898400I-370918J0D01*
G01*
X27484682Y14898400D02*
G75*
G03*
X28226518Y14898400I370918J0D01*
G01*
X29501529Y13285500D02*
G75*
G03*
X28775071Y13285500I-363229J0D01*
G01*
X28775071Y13285500D02*
G75*
G03*
X29501529Y13285500I363229J0D01*
G01*
X27935859Y10301000D02*
G75*
G03*
X27216541Y10301000I-359659J0D01*
G01*
X27216541Y10301000D02*
G75*
G03*
X27935859Y10301000I359659J0D01*
G01*
X29556666Y7456200D02*
G75*
G03*
X28897734Y7456200I-329466J0D01*
G01*
X28897734Y7456200D02*
G75*
G03*
X29556666Y7456200I329466J0D01*
G01*
X26195735Y7367300D02*
G75*
G03*
X25476865Y7367300I-359435J0D01*
G01*
X25476865Y7367300D02*
G75*
G03*
X26195735Y7367300I359435J0D01*
G01*
%TD*%
M02*
