M48
; DRILL file {KiCad 7.0.11-7.0.11~ubuntu22.04.1} date 21.11.2024 (чт) 15:07:03
; FORMAT={-:-/ absolute / metric / decimal}
; #@! TF.CreationDate,2024-11-21T15:07:03+02:00
; #@! TF.GenerationSoftware,Kicad,Pcbnew,7.0.11-7.0.11~ubuntu22.04.1
; #@! TF.FileFunction,Plated,1,4,PTH
FMAT,2
METRIC
; #@! TA.AperFunction,Plated,PTH,ViaDrill
T1C0.400
; #@! TA.AperFunction,Plated,PTH,ViaDrill
T2C0.600
; #@! TA.AperFunction,Plated,PTH,ComponentDrill
T3C0.900
; #@! TA.AperFunction,Plated,PTH,ComponentDrill
T4C1.200
%
G90
G05
T1
X9.6Y29.111
X9.6Y28.3
X9.96Y21.8
X10.4Y29.111
X10.4Y28.3
X11.2Y29.111
X11.2Y28.3
X11.405Y21.56
X18.625Y9.25
X19.0Y27.2
X20.0Y27.2
X20.8Y8.4
X20.8Y7.6
X20.8Y6.8
X21.0Y27.2
X21.589Y2.5
X21.589Y1.7
X21.589Y0.9
X21.6Y7.3
X21.6Y6.5
X21.6Y5.7
X21.6Y4.9
X21.6Y4.1
X21.6Y3.3
X22.0Y27.2
X22.4Y26.5
X22.4Y7.3
X22.4Y6.5
X22.4Y5.7
X22.4Y4.9
X22.4Y4.1
X22.4Y3.3
X22.4Y2.5
X22.4Y1.7
X22.4Y0.9
X23.2Y7.3
X23.2Y6.5
X23.2Y5.7
X23.2Y0.9
X24.0Y7.3
X24.0Y6.5
X24.8Y7.3
X26.7Y10.6
X26.7Y9.8
X26.7Y9.0
X26.7Y8.2
X26.7Y7.4
T2
X6.25Y15.0
X6.25Y14.0
X6.25Y13.0
X6.25Y12.0
X6.5Y10.9
X6.5Y9.9
X7.5Y13.75
X7.5Y10.9
X7.5Y9.9
X7.5Y8.9
X8.5Y10.9
X8.5Y9.9
X8.5Y8.9
X8.5Y7.9
X9.585Y13.334
X11.1Y12.85
X11.1Y11.85
X11.1Y10.85
X11.1Y9.85
X11.1Y8.85
X11.784Y25.5
X11.8Y6.9
X11.8Y5.9
X11.8Y4.9
X11.815Y24.515
X12.1Y15.85
X12.1Y14.85
X12.1Y13.85
X12.1Y12.85
X12.1Y11.85
X12.1Y10.85
X12.1Y9.85
X12.1Y8.85
X12.784Y25.5
X12.8Y24.5
X12.9Y6.9
X12.9Y5.9
X12.9Y4.9
X13.1Y13.85
X13.1Y12.85
X13.1Y11.85
X13.1Y10.85
X13.1Y9.85
X13.1Y8.85
X14.0Y6.9
X14.0Y5.9
X14.1Y13.85
X14.1Y12.85
X14.1Y11.85
X14.1Y10.85
X14.1Y9.85
X14.1Y8.85
X14.7Y15.7
X14.7Y14.7
X15.75Y12.0
X15.75Y10.95
X15.75Y9.9
X17.375Y15.05
X18.0Y26.0
X18.0Y25.0
X18.5Y21.5
X18.5Y20.5
X18.5Y19.5
X18.5Y18.5
X19.0Y29.1
X19.0Y28.1
X19.5Y21.5
X19.5Y20.5
X19.5Y19.5
X19.5Y18.5
X20.0Y29.1
X20.0Y28.1
X20.25Y12.0
X20.25Y10.95
X20.25Y9.9
X20.5Y21.5
X20.5Y20.5
X20.5Y19.5
X20.5Y18.5
X21.0Y29.1
X21.0Y28.1
X22.0Y29.1
X22.0Y28.1
X22.4Y25.5
X22.4Y24.5
X22.4Y23.5
X23.0Y29.1
X23.4Y23.5
X23.4Y22.5
X24.4Y22.5
X25.4Y22.5
X26.75Y22.5
X26.75Y21.5
X26.75Y20.5
X26.75Y19.5
X26.75Y18.5
X29.0Y22.5
X29.0Y20.0
X29.0Y17.5
X29.0Y15.0
X29.0Y12.5
X29.0Y10.0
X29.0Y7.5
T3
X2.75Y12.5
X7.75Y12.5
X13.4Y18.75
X13.4Y15.25
T4
X9.5Y17.75
X18.0Y10.95
M30
