%TF.GenerationSoftware,KiCad,Pcbnew,7.0.11-7.0.11~ubuntu22.04.1*%
%TF.CreationDate,2024-11-21T15:06:28+02:00*%
%TF.ProjectId,POEv3_Rev_A,504f4576-335f-4526-9576-5f412e6b6963,A*%
%TF.SameCoordinates,PX55d4a80PY8a48640*%
%TF.FileFunction,Copper,L3,Inr*%
%TF.FilePolarity,Positive*%
%FSLAX46Y46*%
G04 Gerber Fmt 4.6, Leading zero omitted, Abs format (unit mm)*
G04 Created by KiCad (PCBNEW 7.0.11-7.0.11~ubuntu22.04.1) date 2024-11-21 15:06:28*
%MOMM*%
%LPD*%
G01*
G04 APERTURE LIST*
%ADD10C,0.190500*%
%TA.AperFunction,NonConductor*%
%ADD11C,0.190500*%
%TD*%
%TA.AperFunction,ComponentPad*%
%ADD12C,1.524000*%
%TD*%
%TA.AperFunction,ComponentPad*%
%ADD13R,1.524000X1.524000*%
%TD*%
%TA.AperFunction,ComponentPad*%
%ADD14C,1.800000*%
%TD*%
%TA.AperFunction,ViaPad*%
%ADD15C,1.000000*%
%TD*%
%TA.AperFunction,ViaPad*%
%ADD16C,0.800000*%
%TD*%
%TA.AperFunction,Conductor*%
%ADD17C,1.016000*%
%TD*%
%TA.AperFunction,Conductor*%
%ADD18C,0.762000*%
%TD*%
%TA.AperFunction,Conductor*%
%ADD19C,0.609600*%
%TD*%
%TA.AperFunction,Conductor*%
%ADD20C,0.355600*%
%TD*%
%TA.AperFunction,Conductor*%
%ADD21C,0.990600*%
%TD*%
G04 APERTURE END LIST*
D10*
D11*
X8442184Y29515161D02*
X7970470Y29515161D01*
X7970470Y29515161D02*
X8224470Y29224875D01*
X8224470Y29224875D02*
X8115613Y29224875D01*
X8115613Y29224875D02*
X8043042Y29188589D01*
X8043042Y29188589D02*
X8006756Y29152304D01*
X8006756Y29152304D02*
X7970470Y29079732D01*
X7970470Y29079732D02*
X7970470Y28898304D01*
X7970470Y28898304D02*
X8006756Y28825732D01*
X8006756Y28825732D02*
X8043042Y28789446D01*
X8043042Y28789446D02*
X8115613Y28753161D01*
X8115613Y28753161D02*
X8333327Y28753161D01*
X8333327Y28753161D02*
X8405899Y28789446D01*
X8405899Y28789446D02*
X8442184Y28825732D01*
D12*
%TO.N,Spare1*%
%TO.C,C2*%
X2750000Y12500000D03*
D13*
%TO.N,GND*%
X7750000Y12500000D03*
%TD*%
D12*
%TO.N,+5VP*%
%TO.C,C6*%
X13400000Y18750000D03*
D13*
%TO.N,GND*%
X13400000Y15250000D03*
%TD*%
D14*
%TO.N,Spare2*%
%TO.C,U1*%
X9500000Y17750000D03*
%TD*%
%TO.N,/ILIM*%
%TO.C,U2*%
X18000000Y10950000D03*
%TD*%
D15*
%TO.N,GND*%
X12100000Y13850000D03*
X6250000Y14000000D03*
X14700000Y15700000D03*
X12900000Y4900000D03*
X14100000Y12850000D03*
X14100000Y11850000D03*
X12100000Y15850000D03*
X8500000Y9900000D03*
X11800000Y6900000D03*
X14100000Y13850000D03*
X6250000Y13000000D03*
X8500000Y10900000D03*
X11100000Y10850000D03*
X29000000Y17500000D03*
X8500000Y8900000D03*
X12900000Y5900000D03*
X29000000Y7500000D03*
X13100000Y9850000D03*
X29000000Y15000000D03*
X12100000Y14850000D03*
X12900000Y6900000D03*
X11800000Y4900000D03*
X11100000Y12850000D03*
X11100000Y8850000D03*
X14700000Y14700000D03*
X7500000Y9900000D03*
X13100000Y10850000D03*
X6250000Y12000000D03*
X13100000Y13850000D03*
X13100000Y12850000D03*
X11100000Y9850000D03*
X13100000Y8850000D03*
X8500000Y7900000D03*
X6500000Y10900000D03*
X7500000Y8900000D03*
X29000000Y12500000D03*
X12100000Y8850000D03*
X7500000Y10900000D03*
X6500000Y9900000D03*
X14100000Y10850000D03*
X7500000Y13750000D03*
X11100000Y11850000D03*
X12100000Y9850000D03*
X12100000Y11850000D03*
X12100000Y12850000D03*
X12100000Y10850000D03*
X29000000Y20000000D03*
X13100000Y11850000D03*
X14000000Y6900000D03*
X29000000Y22500000D03*
X14000000Y5900000D03*
X14100000Y9850000D03*
X14100000Y8850000D03*
X29000000Y10000000D03*
X11800000Y5900000D03*
X6250000Y15000000D03*
D16*
%TO.N,/SW_LX*%
X24000000Y7300000D03*
X20800000Y7600000D03*
X24000000Y6500000D03*
X22400000Y7300000D03*
X22400000Y6500000D03*
X22400000Y900000D03*
X22400000Y4100000D03*
X22400000Y3300000D03*
X24800000Y7300000D03*
X22400000Y5700000D03*
X23200000Y900000D03*
X22400000Y4900000D03*
X21600000Y7300000D03*
X21600000Y3300000D03*
X21600000Y5700000D03*
X20800000Y6800000D03*
X23200000Y5700000D03*
X21589000Y2500000D03*
X21600000Y4100000D03*
X23200000Y6500000D03*
X21589000Y900000D03*
X22400000Y2500000D03*
X21600000Y4900000D03*
X23200000Y7300000D03*
X26700000Y7400000D03*
X26700000Y10600000D03*
X22400000Y1700000D03*
X21589000Y1700000D03*
X26700000Y9800000D03*
X20800000Y8400000D03*
X26700000Y9000000D03*
X21600000Y6500000D03*
X26700000Y8200000D03*
%TO.N,Net-(U1-CLS)*%
X9960000Y21800000D03*
D15*
%TO.N,/ILIM*%
X20250000Y9900000D03*
X15750000Y9900000D03*
X20250000Y12000000D03*
X15750000Y12000000D03*
X15750000Y10950000D03*
X20250000Y10950000D03*
D16*
X18625000Y9250000D03*
D15*
%TO.N,Net-(U1-CDB)*%
X17375000Y15050000D03*
X9584989Y13333661D03*
%TO.N,+5VP*%
X22400000Y23500000D03*
X21000000Y28100000D03*
X19500000Y20500000D03*
X22000000Y29100000D03*
X19500000Y21500000D03*
X19500000Y19500000D03*
X26750000Y19500000D03*
X18500000Y18500000D03*
X18500000Y20500000D03*
X18000000Y26000000D03*
X19500000Y18500000D03*
X21000000Y29100000D03*
X18000000Y25000000D03*
D16*
X22400000Y26500000D03*
D15*
X23000000Y29100000D03*
X22400000Y25500000D03*
X20500000Y19500000D03*
X19000000Y29100000D03*
X24400000Y22500000D03*
D16*
X21000000Y27200000D03*
D15*
X20500000Y18500000D03*
D16*
X22000000Y27200000D03*
D15*
X20500000Y21500000D03*
X26750000Y20500000D03*
X26750000Y22500000D03*
X18500000Y21500000D03*
X22000000Y28100000D03*
X23400000Y23500000D03*
X18500000Y19500000D03*
X20000000Y28100000D03*
X22400000Y24500000D03*
X20000000Y29100000D03*
D16*
X19000000Y27200000D03*
D15*
X25400000Y22500000D03*
X23400000Y22500000D03*
D16*
X20000000Y27200000D03*
D15*
X19000000Y28100000D03*
X26750000Y18500000D03*
X20500000Y20500000D03*
X26750000Y21500000D03*
%TO.N,Spare1*%
X11815131Y24515131D03*
X12784000Y25500000D03*
X11784000Y25500000D03*
X12800000Y24500000D03*
D16*
%TO.N,Spare2*%
X11405000Y21560000D03*
X9600000Y28300000D03*
X9600000Y29111000D03*
X10400000Y28300000D03*
X10400000Y29111000D03*
X11200000Y28300000D03*
X11200000Y29111000D03*
%TD*%
D17*
%TO.N,GND*%
X7250000Y13000000D02*
X7750000Y12500000D01*
X7500000Y13750000D02*
X6500000Y13750000D01*
X11100000Y14850000D02*
X12100000Y15850000D01*
X7750000Y12500000D02*
X7750000Y11650000D01*
X14100000Y8300000D02*
X14100000Y7800000D01*
X7500000Y13454307D02*
X9104307Y11850000D01*
X7500000Y10900000D02*
X14050000Y10900000D01*
X13000000Y4900000D02*
X14000000Y5900000D01*
X6500000Y10900000D02*
X6500000Y10500000D01*
X10194661Y11944661D02*
X11100000Y12850000D01*
X14100000Y9850000D02*
X6550000Y9850000D01*
X8195989Y15000000D02*
X7750000Y15000000D01*
X6500000Y10900000D02*
X6500000Y11250000D01*
X6250000Y12000000D02*
X6250000Y15000000D01*
X6550000Y9850000D02*
X6500000Y9900000D01*
X8195989Y12054011D02*
X8195989Y15000000D01*
X11100000Y12850000D02*
X11100000Y14850000D01*
X12250000Y15700000D02*
X12100000Y15850000D01*
X14100000Y9850000D02*
X13450000Y10500000D01*
X9750000Y11850000D02*
X8400000Y11850000D01*
X29000000Y7500000D02*
X28200000Y8300000D01*
X7750000Y12500000D02*
X8305339Y11944661D01*
X13100000Y11850000D02*
X14100000Y12850000D01*
X7500000Y13750000D02*
X7750000Y13500000D01*
X7500000Y8900000D02*
X8500000Y7900000D01*
X11100000Y11850000D02*
X11100000Y10850000D01*
X11100000Y12850000D02*
X11100000Y11850000D01*
X10000000Y8850000D02*
X8550000Y8850000D01*
X11500000Y5900000D02*
X8500000Y8900000D01*
X6250000Y10150000D02*
X6250000Y12000000D01*
X8500000Y7900000D02*
X9450000Y8850000D01*
X28200000Y21700000D02*
X29000000Y22500000D01*
X7750000Y11650000D02*
X8500000Y10900000D01*
X11800000Y8150000D02*
X11100000Y8850000D01*
X6500000Y9900000D02*
X6250000Y10150000D01*
X12100000Y15850000D02*
X14550000Y15850000D01*
X28200000Y16700000D02*
X29000000Y17500000D01*
X29000000Y6668169D02*
X28200000Y7468169D01*
X11100000Y11850000D02*
X14100000Y11850000D01*
X28200000Y16700000D02*
X28200000Y21700000D01*
X11800000Y5900000D02*
X11500000Y5900000D01*
X6500000Y10500000D02*
X6500000Y9900000D01*
X11800000Y8550000D02*
X12100000Y8850000D01*
X6500000Y9900000D02*
X7500000Y8900000D01*
X6250000Y13000000D02*
X7250000Y13000000D01*
X14100000Y10850000D02*
X14100000Y14100000D01*
X11500000Y4900000D02*
X12900000Y4900000D01*
X7500000Y12250000D02*
X7750000Y12500000D01*
X8400000Y11850000D02*
X7750000Y12500000D01*
X11650000Y8300000D02*
X14100000Y8300000D01*
X29000000Y7500000D02*
X29000000Y6668169D01*
X14700000Y14700000D02*
X14700000Y15700000D01*
X29000000Y22500000D02*
X28200000Y22500000D01*
X14100000Y11850000D02*
X14100000Y13850000D01*
X12900000Y6900000D02*
X12900000Y8650000D01*
X10100000Y11850000D02*
X9750000Y11850000D01*
X14100000Y7800000D02*
X14100000Y6000000D01*
X14050000Y10900000D02*
X14100000Y10850000D01*
X28200000Y8300000D02*
X28200000Y16700000D01*
X7500000Y13750000D02*
X7500000Y15000000D01*
X7500000Y15000000D02*
X6250000Y15000000D01*
X11800000Y6900000D02*
X11800000Y4900000D01*
X12100000Y13850000D02*
X14100000Y13850000D01*
X11800000Y6900000D02*
X14000000Y6900000D01*
X29000000Y7500000D02*
X28200000Y7500000D01*
X11100000Y12850000D02*
X10100000Y11850000D01*
X7750000Y13500000D02*
X7750000Y12500000D01*
X14100000Y8850000D02*
X10000000Y8850000D01*
X14100000Y6000000D02*
X14000000Y5900000D01*
X7500000Y8900000D02*
X8500000Y8900000D01*
X6750000Y12500000D02*
X7750000Y12500000D01*
X14700000Y15700000D02*
X12250000Y15700000D01*
X11100000Y8850000D02*
X11650000Y8300000D01*
X7500000Y13750000D02*
X7500000Y13454307D01*
X7500000Y15000000D02*
X7750000Y15000000D01*
X14000000Y5900000D02*
X11800000Y5900000D01*
X12900000Y4900000D02*
X13000000Y4900000D01*
X11800000Y4900000D02*
X12900000Y4900000D01*
X14100000Y14100000D02*
X14700000Y14700000D01*
X12100000Y14850000D02*
X14550000Y14850000D01*
X14100000Y8850000D02*
X14100000Y8300000D01*
X10800000Y7900000D02*
X11800000Y6900000D01*
X7500000Y8900000D02*
X7500000Y12250000D01*
X9450000Y8850000D02*
X10000000Y8850000D01*
X13450000Y10500000D02*
X6500000Y10500000D01*
X6250000Y15000000D02*
X7500000Y13750000D01*
X11800000Y6900000D02*
X11800000Y8550000D01*
X9104307Y11850000D02*
X10100000Y11850000D01*
X6250000Y12000000D02*
X6750000Y12500000D01*
X11800000Y6900000D02*
X11800000Y7800000D01*
X8305339Y11944661D02*
X8195989Y12054011D01*
X8305339Y11944661D02*
X10194661Y11944661D01*
X28200000Y22531831D02*
X28200000Y22500000D01*
X8500000Y7900000D02*
X11500000Y4900000D01*
X7750000Y15000000D02*
X7750000Y12500000D01*
X14100000Y7800000D02*
X11800000Y7800000D01*
X8550000Y8850000D02*
X8500000Y8900000D01*
X29000000Y23331831D02*
X28200000Y22531831D01*
X11100000Y12850000D02*
X14100000Y12850000D01*
X29000000Y22500000D02*
X29000000Y7500000D01*
X14100000Y8850000D02*
X14100000Y10850000D01*
X14100000Y11850000D02*
X9750000Y11850000D01*
X6500000Y11250000D02*
X7750000Y12500000D01*
X28200000Y22500000D02*
X28200000Y21700000D01*
X12100000Y15850000D02*
X12100000Y13850000D01*
X29000000Y22500000D02*
X29000000Y23331831D01*
X14550000Y15850000D02*
X14700000Y15700000D01*
X8500000Y7900000D02*
X10800000Y7900000D01*
X28200000Y7468169D02*
X28200000Y7500000D01*
X12900000Y8650000D02*
X13100000Y8850000D01*
X12100000Y13850000D02*
X11100000Y12850000D01*
X28200000Y7500000D02*
X28200000Y8300000D01*
X11800000Y7800000D02*
X11800000Y8150000D01*
X14550000Y14850000D02*
X14700000Y14700000D01*
X6500000Y13750000D02*
X6250000Y14000000D01*
D18*
%TO.N,/SW_LX*%
X21589000Y900000D02*
X22000000Y900000D01*
X25500000Y7400000D02*
X21000000Y7400000D01*
X24525301Y6923698D02*
X25830000Y7380000D01*
X22400000Y4900000D02*
X22400000Y900000D01*
X22000000Y6100000D02*
X22000000Y900000D01*
X23200000Y5700000D02*
X22400000Y4900000D01*
X22961521Y1810000D02*
X23331454Y1179983D01*
X25178766Y7231234D02*
X26172792Y7400000D01*
X20800000Y6800000D02*
X21600000Y6000000D01*
X22400000Y3300000D02*
X23200000Y900000D01*
D17*
X26700000Y10600000D02*
X26700000Y7508001D01*
D18*
X23200000Y5700000D02*
X22618999Y5118999D01*
X24525301Y6923698D02*
X24000000Y6500000D01*
X22618999Y3550000D02*
X22618999Y2900000D01*
X22618999Y5118999D02*
X22618999Y3550000D01*
X20800000Y8400000D02*
X20800000Y6800000D01*
X24326514Y6783486D02*
X25610000Y7381001D01*
X25178766Y7231234D02*
X25500000Y7400000D01*
X22810729Y2240000D02*
X23111945Y1431945D01*
X24000000Y6500000D02*
X21600000Y6500000D01*
X22810729Y2240000D02*
X23200000Y900000D01*
X22961521Y1810000D02*
X23200000Y900000D01*
X24000000Y6500000D02*
X23728449Y6228449D01*
X22618999Y1481001D02*
X23200000Y900000D01*
X26700000Y8200000D02*
X25900000Y7400000D01*
X23920000Y6500000D02*
X25440000Y7381001D01*
X20800000Y6800000D02*
X23700000Y6800000D01*
X22400000Y2111436D02*
X22400000Y4100000D01*
X22810729Y2240000D02*
X22961521Y1810000D01*
X21600000Y5700000D02*
X23200000Y5700000D01*
X22000000Y900000D02*
X23200000Y900000D01*
X26700000Y10600000D02*
X26700000Y7400000D01*
X23200000Y5700000D02*
X22400000Y6500000D01*
X22961521Y1810000D02*
X23077960Y1477960D01*
D19*
X22400000Y4100000D02*
X23200000Y900000D01*
D18*
X24800000Y7300000D02*
X23728449Y6228449D01*
X21000000Y7400000D02*
X20800000Y7600000D01*
X22618999Y2900000D02*
X22810729Y2240000D01*
X26700000Y7400000D02*
X25500000Y7400000D01*
X22618999Y2900000D02*
X22618999Y1481001D01*
X23331454Y1179983D02*
X23611436Y900000D01*
X21600000Y6000000D02*
X21600000Y5700000D01*
X23611436Y900000D02*
X23200000Y900000D01*
X21900000Y7300000D02*
X22400000Y7300000D01*
X25178766Y7231234D02*
X24326514Y6783486D01*
X23200000Y900000D02*
X22400000Y1700000D01*
X24800000Y7300000D02*
X23200000Y5700000D01*
X21600000Y5700000D02*
X21600000Y7300000D01*
X21600000Y911000D02*
X21589000Y900000D01*
X23611436Y900000D02*
X22400000Y2111436D01*
X21600000Y5700000D02*
X21600000Y911000D01*
X23700000Y6800000D02*
X24000000Y6500000D01*
X22400000Y4900000D02*
X22400000Y7300000D01*
X22400000Y6500000D02*
X22000000Y6100000D01*
D20*
X22618999Y3550000D02*
X23331454Y1179983D01*
D18*
X20800000Y8400000D02*
X21900000Y7300000D01*
X26172792Y7400000D02*
X26700000Y7400000D01*
X25900000Y7400000D02*
X25500000Y7400000D01*
X23728449Y6228449D02*
G75*
G03*
X22618999Y3550000I2678451J-2678449D01*
G01*
X22619009Y2900000D02*
G75*
G03*
X23331455Y1179984I2432491J0D01*
G01*
X26172792Y7400003D02*
G75*
G03*
X24000000Y6500000I8J-3072803D01*
G01*
D19*
%TO.N,Net-(U1-CDB)*%
X9584989Y15191569D02*
X9584989Y13333661D01*
X11556220Y17162800D02*
X9584989Y15191569D01*
X17375000Y15050000D02*
X15262200Y17162800D01*
X15262200Y17162800D02*
X11556220Y17162800D01*
D17*
%TO.N,+5VP*%
X18500000Y21500000D02*
X18500000Y18500000D01*
X18000000Y26200000D02*
X19000000Y27200000D01*
X18000000Y26000000D02*
X18000000Y26200000D01*
X22593591Y27580000D02*
X22685768Y28094232D01*
X18000000Y25000000D02*
X18000000Y26000000D01*
X25400000Y22500000D02*
X25750000Y22500000D01*
X21700000Y27200000D02*
X22400000Y26500000D01*
X22000000Y27200000D02*
X21000000Y27200000D01*
X22965655Y28574345D02*
X23431831Y29100000D01*
X21000000Y27200000D02*
X21700000Y27200000D01*
X22400000Y25500000D02*
X23280915Y24050915D01*
X24839832Y22491999D02*
X26750000Y22491999D01*
X22400000Y24931831D02*
X24182587Y23149244D01*
X22400000Y26500000D02*
X22593591Y27580000D01*
X22000000Y28100000D02*
X19000000Y28100000D01*
X23431831Y29100000D02*
X23000000Y29100000D01*
X22773197Y28060000D02*
X23292738Y28960907D01*
X23280915Y24050915D02*
X24839832Y22491999D01*
X22400000Y23500000D02*
X23400000Y22500000D01*
X26750000Y22491999D02*
X26750000Y22500000D01*
X24030338Y22869662D02*
X24162500Y22737500D01*
X25750000Y22500000D02*
X26750000Y21500000D01*
X19500000Y21500000D02*
X19500000Y18500000D01*
X22593591Y27580000D02*
X23000000Y29100000D01*
X23408001Y22491999D02*
X26750000Y22491999D01*
X22593591Y27580000D02*
X22773197Y28060000D01*
X24162500Y22737500D02*
X22400000Y24500000D01*
X24182587Y23149244D02*
X25400000Y22500000D01*
X22400000Y25500000D02*
X22400000Y24931831D01*
X18000000Y29100000D02*
X19000000Y29100000D01*
X22400000Y26805646D02*
X22400000Y26500000D01*
X24400000Y22500000D02*
X24162500Y22737500D01*
X19000000Y27200000D02*
X22000000Y27200000D01*
X20500000Y21500000D02*
X18500000Y21500000D01*
X20500000Y18500000D02*
X20500000Y21500000D01*
X25750000Y22500000D02*
X24330915Y23000916D01*
X22400000Y24931831D02*
X23280915Y24050915D01*
X23400000Y22500000D02*
X23408001Y22491999D01*
X19000000Y29100000D02*
X23000000Y29100000D01*
X22773197Y28060000D02*
X22965655Y28574345D01*
X22000000Y28100000D02*
X22000000Y27200000D01*
X18000000Y26000000D02*
X18000000Y29100000D01*
X23431831Y29100000D02*
X23292738Y28960907D01*
X23000000Y29100000D02*
X22000000Y28100000D01*
X22400000Y25500000D02*
X22400000Y26800000D01*
X18500000Y18500000D02*
X20500000Y18500000D01*
X22400000Y26500000D02*
X22400000Y23500000D01*
D21*
X26750000Y22500000D02*
X26750000Y18500000D01*
D17*
X19000000Y29100000D02*
X19000000Y27200000D01*
X22400000Y26800000D02*
X22000000Y27200000D01*
X23292761Y28960884D02*
G75*
G03*
X22400000Y26805646I2155239J-2155284D01*
G01*
X24182578Y23149235D02*
G75*
G03*
X25750000Y22500000I1567422J1567465D01*
G01*
X22400027Y26805646D02*
G75*
G03*
X24030339Y22869663I5566273J-46D01*
G01*
%TO.N,Spare1*%
X11784000Y25500000D02*
X11784000Y24546262D01*
X12800000Y24500000D02*
X12800000Y25484000D01*
X12784000Y25500000D02*
X11784000Y25500000D01*
X11815131Y24515131D02*
X12784869Y24515131D01*
X11784000Y24546262D02*
X11815131Y24515131D01*
X12784869Y24515131D02*
X12800000Y24500000D01*
X12800000Y25484000D02*
X12784000Y25500000D01*
%TO.N,Spare2*%
X11200000Y28300000D02*
X9657103Y28300000D01*
X9650000Y29105500D02*
X9650000Y28294500D01*
X11200000Y29111000D02*
X9657103Y29111000D01*
X11200000Y29111000D02*
X11200000Y28300000D01*
%TD*%
%TA.AperFunction,Conductor*%
%TO.N,GND*%
G36*
X12167554Y16456498D02*
G01*
X12214047Y16402842D01*
X12224151Y16332568D01*
X12200301Y16274991D01*
X12187556Y16257966D01*
X12187555Y16257965D01*
X12136505Y16121094D01*
X12130000Y16060598D01*
X12130000Y15885000D01*
X14670000Y15885000D01*
X14670000Y16060586D01*
X14669999Y16060598D01*
X14663494Y16121094D01*
X14612444Y16257965D01*
X14612443Y16257966D01*
X14599699Y16274991D01*
X14574888Y16341512D01*
X14589980Y16410886D01*
X14640182Y16461088D01*
X14700567Y16476500D01*
X14925735Y16476500D01*
X14993856Y16456498D01*
X15014830Y16439595D01*
X15491693Y15962732D01*
X15525719Y15900420D01*
X15520654Y15829605D01*
X15478107Y15772769D01*
X15470722Y15767641D01*
X15453886Y15756821D01*
X15402799Y15712554D01*
X15400580Y15710735D01*
X15304519Y15599872D01*
X15304517Y15599869D01*
X15243801Y15466920D01*
X15223802Y15398808D01*
X15223800Y15398801D01*
X15223800Y15398799D01*
X15205262Y15269857D01*
X15203000Y15254127D01*
X15203000Y14756129D01*
X15203618Y14730927D01*
X15204226Y14718569D01*
X15204729Y14711744D01*
X15204462Y14690144D01*
X15196939Y14613754D01*
X15192120Y14589525D01*
X15170560Y14518455D01*
X15161109Y14495638D01*
X15126100Y14430139D01*
X15112376Y14409601D01*
X15063682Y14350267D01*
X15048593Y14334801D01*
X15043467Y14330379D01*
X15034277Y14322052D01*
X15016004Y14304656D01*
X14819202Y14107854D01*
X14756890Y14073829D01*
X14688206Y14078742D01*
X14694606Y14072342D01*
X14709698Y14002968D01*
X14698633Y13959617D01*
X14651222Y13855799D01*
X14643801Y13839549D01*
X14623802Y13771440D01*
X14623800Y13771433D01*
X14603000Y13626759D01*
X14603000Y12906131D01*
X14603619Y12880926D01*
X14604227Y12868553D01*
X14604912Y12859259D01*
X14604912Y12840743D01*
X14604227Y12831450D01*
X14603619Y12819077D01*
X14603000Y12793872D01*
X14603000Y11906122D01*
X14603618Y11880917D01*
X14604204Y11869011D01*
X14604226Y11868565D01*
X14604912Y11859266D01*
X14604912Y11840748D01*
X14604227Y11831456D01*
X14603618Y11819082D01*
X14603000Y11793880D01*
X14603000Y10906131D01*
X14603619Y10880926D01*
X14604227Y10868553D01*
X14604912Y10859259D01*
X14604912Y10840743D01*
X14604227Y10831450D01*
X14603619Y10819077D01*
X14603000Y10793872D01*
X14603000Y9906131D01*
X14603619Y9880926D01*
X14604227Y9868553D01*
X14604912Y9859259D01*
X14604912Y9840743D01*
X14604227Y9831450D01*
X14603619Y9819077D01*
X14603000Y9793872D01*
X14603000Y8906122D01*
X14603618Y8880917D01*
X14604204Y8869011D01*
X14604226Y8868565D01*
X14604912Y8859266D01*
X14604912Y8840748D01*
X14604227Y8831456D01*
X14603618Y8819082D01*
X14603000Y8793880D01*
X14603000Y8356122D01*
X14603618Y8330917D01*
X14604204Y8319011D01*
X14604226Y8318565D01*
X14604912Y8309266D01*
X14604912Y8290748D01*
X14604227Y8281456D01*
X14603618Y8269082D01*
X14603000Y8243880D01*
X14603000Y7856122D01*
X14603618Y7830917D01*
X14604204Y7819011D01*
X14604226Y7818565D01*
X14604912Y7809266D01*
X14604912Y7790748D01*
X14604227Y7781456D01*
X14603618Y7769082D01*
X14603000Y7743880D01*
X14603000Y6056120D01*
X14603619Y6030915D01*
X14604226Y6018553D01*
X14604728Y6011751D01*
X14604462Y5990139D01*
X14596938Y5913751D01*
X14592119Y5889526D01*
X14570560Y5818456D01*
X14561108Y5795635D01*
X14526097Y5730135D01*
X14512375Y5709599D01*
X14463683Y5650267D01*
X14448598Y5634804D01*
X14443345Y5630272D01*
X14434205Y5621987D01*
X14415977Y5604631D01*
X14395370Y5584024D01*
X14377984Y5565764D01*
X14369653Y5556570D01*
X14363574Y5549523D01*
X14350478Y5536427D01*
X14343442Y5530358D01*
X14334283Y5522059D01*
X14316003Y5504656D01*
X13395352Y4584006D01*
X13377956Y4565732D01*
X13369655Y4556574D01*
X13365205Y4551414D01*
X13349732Y4536316D01*
X13290396Y4487621D01*
X13269858Y4473898D01*
X13204363Y4438891D01*
X13181546Y4429440D01*
X13128284Y4413283D01*
X13110477Y4407881D01*
X13086251Y4403062D01*
X13009857Y4395538D01*
X12988254Y4395271D01*
X12984630Y4395538D01*
X12981429Y4395774D01*
X12979510Y4395869D01*
X12969074Y4396382D01*
X12943872Y4397000D01*
X11856121Y4397000D01*
X11856117Y4397000D01*
X11830966Y4396384D01*
X11818579Y4395776D01*
X11809260Y4395089D01*
X11790742Y4395089D01*
X11781423Y4395776D01*
X11769033Y4396384D01*
X11743884Y4397000D01*
X11743879Y4397000D01*
X11556130Y4397000D01*
X11530927Y4396382D01*
X11518568Y4395774D01*
X11511744Y4395271D01*
X11490143Y4395538D01*
X11413752Y4403062D01*
X11389527Y4407880D01*
X11318448Y4429441D01*
X11295626Y4438895D01*
X11230138Y4473900D01*
X11209602Y4487621D01*
X11150253Y4536328D01*
X11134788Y4551418D01*
X11131642Y4555065D01*
X11130306Y4556614D01*
X11122018Y4565757D01*
X11122013Y4565763D01*
X11104635Y4584015D01*
X11104620Y4584031D01*
X8184026Y7504625D01*
X8165798Y7521981D01*
X8156635Y7530287D01*
X8149515Y7536430D01*
X8136419Y7549528D01*
X8130336Y7556579D01*
X8130332Y7556583D01*
X8130316Y7556602D01*
X8122011Y7565765D01*
X8104635Y7584015D01*
X8104620Y7584031D01*
X7184026Y8504625D01*
X7165806Y8521974D01*
X7163095Y8524431D01*
X7156625Y8530296D01*
X7149518Y8536427D01*
X7136414Y8549532D01*
X7130298Y8556623D01*
X7122021Y8565754D01*
X7122013Y8565763D01*
X7104635Y8584015D01*
X7104620Y8584031D01*
X6234026Y9454625D01*
X6215806Y9471974D01*
X6213095Y9474431D01*
X6206625Y9480296D01*
X6191006Y9493770D01*
X6179949Y9504560D01*
X6176176Y9508723D01*
X6158720Y9526179D01*
X6158710Y9526188D01*
X6154549Y9529960D01*
X6143761Y9541016D01*
X6130329Y9556587D01*
X6130327Y9556589D01*
X6130316Y9556602D01*
X6122011Y9565765D01*
X6104635Y9584015D01*
X6104620Y9584031D01*
X5934028Y9754623D01*
X5915797Y9771981D01*
X5915789Y9771989D01*
X5906627Y9780294D01*
X5901419Y9784787D01*
X5886324Y9800259D01*
X5837617Y9859610D01*
X5823895Y9880145D01*
X5788888Y9945637D01*
X5779436Y9968458D01*
X5757877Y10039527D01*
X5753061Y10063741D01*
X5745535Y10140150D01*
X5745272Y10161771D01*
X5745774Y10168572D01*
X5746381Y10180923D01*
X5747000Y10206129D01*
X5747000Y11865000D01*
X6480000Y11865000D01*
X6480000Y11689403D01*
X6486505Y11628907D01*
X6537555Y11492036D01*
X6537555Y11492035D01*
X6625095Y11375096D01*
X6742034Y11287556D01*
X6878906Y11236506D01*
X6939402Y11230001D01*
X6939415Y11230000D01*
X7115000Y11230000D01*
X7115000Y11865000D01*
X8385000Y11865000D01*
X8385000Y11230000D01*
X8560585Y11230000D01*
X8560597Y11230001D01*
X8621093Y11236506D01*
X8757964Y11287556D01*
X8757965Y11287556D01*
X8874904Y11375096D01*
X8962444Y11492035D01*
X8962444Y11492036D01*
X9013494Y11628907D01*
X9019999Y11689403D01*
X9020000Y11689415D01*
X9020000Y11865000D01*
X8385000Y11865000D01*
X7115000Y11865000D01*
X6480000Y11865000D01*
X5747000Y11865000D01*
X5747000Y11943873D01*
X5746381Y11969077D01*
X5745774Y11981429D01*
X5745087Y11990737D01*
X5745088Y12009282D01*
X5745774Y12018572D01*
X5746381Y12030923D01*
X5747000Y12056129D01*
X5747000Y12534008D01*
X7296190Y12534008D01*
X7306327Y12398735D01*
X7355887Y12272459D01*
X7440465Y12166401D01*
X7552547Y12089984D01*
X7682173Y12050000D01*
X7783724Y12050000D01*
X7884138Y12065135D01*
X8006357Y12123993D01*
X8105798Y12216260D01*
X8173625Y12333740D01*
X8203810Y12465992D01*
X8193673Y12601265D01*
X8144113Y12727541D01*
X8059535Y12833599D01*
X7947453Y12910016D01*
X7817827Y12950000D01*
X7716276Y12950000D01*
X7615862Y12934865D01*
X7493643Y12876007D01*
X7394202Y12783740D01*
X7326375Y12666260D01*
X7296190Y12534008D01*
X5747000Y12534008D01*
X5747000Y12943879D01*
X5746381Y12969085D01*
X5745774Y12981436D01*
X5745088Y12990732D01*
X5745088Y13009269D01*
X5745774Y13018565D01*
X5746381Y13030915D01*
X5747000Y13056123D01*
X5747000Y13135000D01*
X6480000Y13135000D01*
X7115000Y13135000D01*
X7115000Y13770000D01*
X6939402Y13770000D01*
X6878906Y13763495D01*
X6742035Y13712445D01*
X6742034Y13712445D01*
X6625095Y13624905D01*
X6537555Y13507966D01*
X6537555Y13507965D01*
X6486505Y13371094D01*
X6480000Y13310598D01*
X6480000Y13135000D01*
X5747000Y13135000D01*
X5747000Y13943873D01*
X5746381Y13969077D01*
X5745774Y13981429D01*
X5745087Y13990737D01*
X5745088Y14009282D01*
X5745774Y14018572D01*
X5746381Y14030923D01*
X5747000Y14056129D01*
X5747000Y14943873D01*
X5746381Y14969077D01*
X5745774Y14981429D01*
X5745271Y14988244D01*
X5745535Y15009853D01*
X5753061Y15086257D01*
X5757876Y15110470D01*
X5779441Y15181558D01*
X5788883Y15204355D01*
X5823900Y15269867D01*
X5837616Y15290392D01*
X5851785Y15307657D01*
X5884732Y15347805D01*
X5902189Y15365263D01*
X5959613Y15412389D01*
X5980146Y15426107D01*
X6045631Y15461109D01*
X6068445Y15470560D01*
X6139531Y15492124D01*
X6163739Y15496939D01*
X6240146Y15504465D01*
X6261756Y15504729D01*
X6268571Y15504226D01*
X6280922Y15503619D01*
X6306128Y15503000D01*
X7443881Y15503000D01*
X7445060Y15503030D01*
X7469089Y15503619D01*
X7481438Y15504226D01*
X7490730Y15504912D01*
X7509265Y15504912D01*
X7518563Y15504226D01*
X7530913Y15503619D01*
X7555501Y15503016D01*
X7556120Y15503000D01*
X7556121Y15503000D01*
X7693881Y15503000D01*
X7695060Y15503030D01*
X7719089Y15503619D01*
X7731438Y15504226D01*
X7740730Y15504912D01*
X7759265Y15504912D01*
X7768563Y15504226D01*
X7780913Y15503619D01*
X7805501Y15503016D01*
X7806120Y15503000D01*
X7806121Y15503000D01*
X8139870Y15503000D01*
X8141139Y15503032D01*
X8165078Y15503619D01*
X8177427Y15504226D01*
X8184224Y15504728D01*
X8205847Y15504464D01*
X8282239Y15496940D01*
X8306458Y15492123D01*
X8377541Y15470561D01*
X8400348Y15461113D01*
X8465848Y15426103D01*
X8486374Y15412388D01*
X8530157Y15376457D01*
X8530160Y15376455D01*
X8599818Y15328321D01*
X8599819Y15328320D01*
X8599830Y15328314D01*
X8599831Y15328313D01*
X8635732Y15307657D01*
X8712366Y15271621D01*
X8712369Y15271621D01*
X8712372Y15271619D01*
X8799473Y15252671D01*
X8861785Y15218646D01*
X8895810Y15156334D01*
X8898689Y15129551D01*
X8898689Y14408827D01*
X8896355Y14384687D01*
X8793114Y13855799D01*
X8760431Y13792772D01*
X8698862Y13757420D01*
X8627954Y13760967D01*
X8625420Y13761882D01*
X8621096Y13763495D01*
X8560597Y13770000D01*
X8385000Y13770000D01*
X8385000Y13135000D01*
X8631129Y13135000D01*
X8699250Y13114998D01*
X8745743Y13061342D01*
X8750961Y13047939D01*
X8775263Y12973148D01*
X8775264Y12973147D01*
X8775266Y12973143D01*
X8867910Y12812677D01*
X8867915Y12812669D01*
X8991898Y12674972D01*
X8991901Y12674970D01*
X9141811Y12566054D01*
X9311090Y12490686D01*
X9492339Y12452161D01*
X9492340Y12452161D01*
X9677639Y12452161D01*
X9768263Y12471424D01*
X9858888Y12490686D01*
X10028167Y12566054D01*
X10178077Y12674970D01*
X10285137Y12793872D01*
X10302062Y12812669D01*
X10302063Y12812671D01*
X10302066Y12812674D01*
X10394715Y12973148D01*
X10451976Y13149377D01*
X10471345Y13333661D01*
X10451976Y13517945D01*
X10442028Y13548560D01*
X10431386Y13581314D01*
X10427553Y13596110D01*
X10421570Y13626762D01*
X10273622Y14384691D01*
X10271289Y14408829D01*
X10271289Y14615000D01*
X12130000Y14615000D01*
X12130000Y14439403D01*
X12136505Y14378907D01*
X12187555Y14242036D01*
X12187555Y14242035D01*
X12275095Y14125096D01*
X12392034Y14037556D01*
X12528906Y13986506D01*
X12589402Y13980001D01*
X12589415Y13980000D01*
X12765000Y13980000D01*
X12765000Y14615000D01*
X14035000Y14615000D01*
X14035000Y13980000D01*
X14210585Y13980000D01*
X14210597Y13980001D01*
X14271093Y13986506D01*
X14407963Y14037555D01*
X14508509Y14112824D01*
X14575029Y14137635D01*
X14627452Y14126232D01*
X14604428Y14187962D01*
X14612051Y14240983D01*
X14663494Y14378908D01*
X14669999Y14439403D01*
X14670000Y14439415D01*
X14670000Y14615000D01*
X14035000Y14615000D01*
X12765000Y14615000D01*
X12130000Y14615000D01*
X10271289Y14615000D01*
X10271289Y14855105D01*
X10291291Y14923226D01*
X10308194Y14944200D01*
X10648002Y15284008D01*
X12946190Y15284008D01*
X12956327Y15148735D01*
X13005887Y15022459D01*
X13090465Y14916401D01*
X13202547Y14839984D01*
X13332173Y14800000D01*
X13433724Y14800000D01*
X13534138Y14815135D01*
X13656357Y14873993D01*
X13755798Y14966260D01*
X13823625Y15083740D01*
X13853810Y15215992D01*
X13843673Y15351265D01*
X13794113Y15477541D01*
X13709535Y15583599D01*
X13597453Y15660016D01*
X13467827Y15700000D01*
X13366276Y15700000D01*
X13265862Y15684865D01*
X13143643Y15626007D01*
X13044202Y15533740D01*
X12976375Y15416260D01*
X12946190Y15284008D01*
X10648002Y15284008D01*
X11803590Y16439595D01*
X11865902Y16473621D01*
X11892685Y16476500D01*
X12099433Y16476500D01*
X12167554Y16456498D01*
G37*
%TD.AperFunction*%
%TA.AperFunction,Conductor*%
G36*
X29573853Y24541895D02*
G01*
X29612957Y24482638D01*
X29618500Y24445678D01*
X29618500Y5548984D01*
X29598498Y5480863D01*
X29544842Y5434370D01*
X29474568Y5424266D01*
X29409988Y5453760D01*
X29389394Y5476560D01*
X29326735Y5565764D01*
X29257232Y5664713D01*
X29257227Y5664719D01*
X29257222Y5664725D01*
X29011517Y5945527D01*
X29011515Y5945529D01*
X28737344Y6198630D01*
X28437828Y6421152D01*
X28437827Y6421154D01*
X28288346Y6509235D01*
X28116345Y6610585D01*
X27776554Y6764770D01*
X27521666Y6849092D01*
X27463276Y6889476D01*
X27435988Y6955019D01*
X27448467Y7024910D01*
X27452112Y7031697D01*
X27517075Y7144216D01*
X27574855Y7322045D01*
X27589500Y7461381D01*
X27589500Y10646620D01*
X27574855Y10785956D01*
X27554046Y10850000D01*
X27517077Y10963780D01*
X27517074Y10963787D01*
X27461157Y11060638D01*
X27444419Y11129633D01*
X27467639Y11196725D01*
X27487760Y11218859D01*
X27488454Y11219461D01*
X27497210Y11227048D01*
X27499423Y11228864D01*
X27595480Y11339722D01*
X27595482Y11339724D01*
X27656198Y11472673D01*
X27676200Y11540794D01*
X27697000Y11685463D01*
X27697000Y16643873D01*
X27696381Y16669077D01*
X27695774Y16681429D01*
X27695087Y16690737D01*
X27695088Y16709282D01*
X27695774Y16718572D01*
X27696381Y16730923D01*
X27697000Y16756129D01*
X27697000Y17407730D01*
X27695522Y17446661D01*
X27694074Y17465705D01*
X27689653Y17504384D01*
X27647226Y17644248D01*
X27621095Y17700142D01*
X27618902Y17705902D01*
X27617158Y17708564D01*
X27537045Y17830810D01*
X27537043Y17830812D01*
X27537041Y17830814D01*
X27512703Y17851526D01*
X27473788Y17910907D01*
X27473155Y17981901D01*
X27485240Y18010476D01*
X27500161Y18036319D01*
X27502219Y18039412D01*
X27502191Y18039429D01*
X27506492Y18046577D01*
X27510084Y18053507D01*
X27559726Y18139487D01*
X27582001Y18208046D01*
X27584235Y18213738D01*
X27585796Y18218375D01*
X27585802Y18218386D01*
X27585804Y18218399D01*
X27586291Y18219842D01*
X27588626Y18228434D01*
X27616987Y18315716D01*
X27625170Y18393576D01*
X27626462Y18401541D01*
X27627019Y18406657D01*
X27627490Y18415646D01*
X27636356Y18500000D01*
X27627489Y18584356D01*
X27626800Y18597525D01*
X27626800Y19402476D01*
X27627490Y19415646D01*
X27636356Y19500000D01*
X27627489Y19584356D01*
X27626800Y19597525D01*
X27626800Y20402476D01*
X27627490Y20415646D01*
X27636356Y20500000D01*
X27627489Y20584356D01*
X27626800Y20597525D01*
X27626800Y21339891D01*
X27628351Y21359602D01*
X27643174Y21453193D01*
X27633389Y21639911D01*
X27633389Y21639915D01*
X27631094Y21648481D01*
X27626800Y21681094D01*
X27626800Y22317948D01*
X27627489Y22331108D01*
X27629065Y22346107D01*
X27631122Y22359100D01*
X27639500Y22398509D01*
X27639500Y22585489D01*
X27632789Y22617059D01*
X27630728Y22630073D01*
X27624855Y22685953D01*
X27624855Y22685955D01*
X27624855Y22685956D01*
X27607488Y22739404D01*
X27604080Y22752128D01*
X27600625Y22768384D01*
X27599578Y22770735D01*
X27593863Y22783573D01*
X27589137Y22795886D01*
X27567078Y22863778D01*
X27567074Y22863787D01*
X27531376Y22925618D01*
X27525389Y22937368D01*
X27524575Y22939196D01*
X27524572Y22939200D01*
X27523395Y22940821D01*
X27516216Y22951877D01*
X27499716Y22980455D01*
X27482977Y23049450D01*
X27506197Y23116542D01*
X27562003Y23160430D01*
X27575672Y23165013D01*
X27600986Y23171916D01*
X27948503Y23307798D01*
X28279607Y23479849D01*
X28590547Y23686119D01*
X28877801Y23924272D01*
X29138114Y24191609D01*
X29368535Y24485101D01*
X29385685Y24512510D01*
X29438774Y24559649D01*
X29508920Y24570603D01*
X29573853Y24541895D01*
G37*
%TD.AperFunction*%
%TD*%
%TA.AperFunction,Conductor*%
%TO.N,Net-(U1-CDB)*%
G36*
X16891412Y15967251D02*
G01*
X17513450Y15548395D01*
X17716794Y15411471D01*
X17721742Y15404008D01*
X17719964Y15395231D01*
X17718549Y15393509D01*
X17375740Y15049326D01*
X17375707Y15049293D01*
X17031491Y14706451D01*
X17023211Y14703041D01*
X17014944Y14706484D01*
X17013529Y14708206D01*
X16899384Y14877722D01*
X16457749Y15533588D01*
X16455972Y15542364D01*
X16459180Y15548393D01*
X16876606Y15965819D01*
X16884878Y15969245D01*
X16891412Y15967251D01*
G37*
%TD.AperFunction*%
%TD*%
%TA.AperFunction,Conductor*%
%TO.N,Net-(U1-CDB)*%
G36*
X9888425Y14330234D02*
G01*
X9891635Y14324203D01*
X10082273Y13347575D01*
X10080495Y13338798D01*
X10073032Y13333850D01*
X10070813Y13333633D01*
X9585012Y13332662D01*
X9584966Y13332662D01*
X9099164Y13333633D01*
X9090897Y13337076D01*
X9087487Y13345356D01*
X9087702Y13347565D01*
X9278343Y14324203D01*
X9283291Y14331666D01*
X9289826Y14333661D01*
X9880152Y14333661D01*
X9888425Y14330234D01*
G37*
%TD.AperFunction*%
%TD*%
%TA.AperFunction,Conductor*%
%TO.N,/ILIM*%
G36*
X16993275Y29598498D02*
G01*
X17039768Y29544842D01*
X17049872Y29474568D01*
X17045729Y29455924D01*
X16998206Y29299264D01*
X16998206Y29299262D01*
X16978582Y29100005D01*
X16978582Y29099998D01*
X16982893Y29056230D01*
X16983500Y29043879D01*
X16983500Y26256129D01*
X16982893Y26243778D01*
X16978581Y26200000D01*
X16982176Y26163498D01*
X16982893Y26156225D01*
X16983500Y26143873D01*
X16983500Y24950058D01*
X16998206Y24800740D01*
X16998206Y24800737D01*
X17056332Y24609123D01*
X17056334Y24609117D01*
X17150720Y24432534D01*
X17150722Y24432531D01*
X17277748Y24277748D01*
X17432531Y24150722D01*
X17609120Y24056333D01*
X17800731Y23998208D01*
X17800735Y23998208D01*
X17800737Y23998207D01*
X17999997Y23978582D01*
X18000000Y23978582D01*
X18000003Y23978582D01*
X18199261Y23998207D01*
X18199263Y23998207D01*
X18199264Y23998208D01*
X18199269Y23998208D01*
X18390880Y24056333D01*
X18567469Y24150722D01*
X18722252Y24277748D01*
X18849278Y24432531D01*
X18943667Y24609120D01*
X19001792Y24800731D01*
X19001861Y24801426D01*
X19016499Y24950058D01*
X19016500Y24950066D01*
X19016500Y25726762D01*
X19036502Y25794883D01*
X19053405Y25815857D01*
X19384143Y26146595D01*
X19446455Y26180621D01*
X19473238Y26183500D01*
X20950066Y26183500D01*
X21226762Y26183500D01*
X21294883Y26163498D01*
X21315857Y26146595D01*
X21346595Y26115857D01*
X21380621Y26053545D01*
X21383500Y26026762D01*
X21383500Y25580683D01*
X21382250Y25562980D01*
X21379519Y25543736D01*
X21383307Y25475362D01*
X21383500Y25468393D01*
X21383500Y24987961D01*
X21382893Y24975610D01*
X21378581Y24931834D01*
X21378581Y24931831D01*
X21382893Y24888054D01*
X21383500Y24875703D01*
X21383500Y24556129D01*
X21382893Y24543778D01*
X21378581Y24500002D01*
X21378581Y24499999D01*
X21382893Y24456225D01*
X21383500Y24443873D01*
X21383500Y23556129D01*
X21382893Y23543778D01*
X21378581Y23500002D01*
X21378581Y23499999D01*
X21384918Y23435667D01*
X21384918Y23435665D01*
X21398206Y23300739D01*
X21398206Y23300737D01*
X21456332Y23109123D01*
X21456334Y23109117D01*
X21550720Y22932534D01*
X21677748Y22777748D01*
X21711758Y22749837D01*
X21720920Y22741532D01*
X22649537Y21812915D01*
X22657842Y21803752D01*
X22685747Y21769749D01*
X22751141Y21716082D01*
X22751142Y21716081D01*
X22771634Y21699264D01*
X22840531Y21642721D01*
X22988259Y21563759D01*
X23017121Y21548332D01*
X23017125Y21548330D01*
X23208728Y21490208D01*
X23208729Y21490208D01*
X23208732Y21490207D01*
X23208736Y21490207D01*
X23208740Y21490206D01*
X23361144Y21475196D01*
X23361146Y21475196D01*
X23407999Y21470581D01*
X23408001Y21470581D01*
X23408002Y21470581D01*
X23451769Y21474892D01*
X23464120Y21475499D01*
X24783702Y21475499D01*
X24796053Y21474892D01*
X24839830Y21470580D01*
X24839832Y21470580D01*
X24839833Y21470580D01*
X24871081Y21473658D01*
X24883609Y21474893D01*
X24895960Y21475499D01*
X25284763Y21475499D01*
X25352884Y21455497D01*
X25373858Y21438594D01*
X25709295Y21103157D01*
X25743321Y21040845D01*
X25746200Y21014062D01*
X25746200Y20603455D01*
X25745593Y20591105D01*
X25736620Y20500003D01*
X25736620Y20499999D01*
X25745593Y20408898D01*
X25746200Y20396547D01*
X25746200Y19603455D01*
X25745593Y19591105D01*
X25736620Y19500003D01*
X25736620Y19499999D01*
X25745593Y19408898D01*
X25746200Y19396547D01*
X25746200Y18603455D01*
X25745593Y18591105D01*
X25736620Y18500003D01*
X25736620Y18499997D01*
X25756090Y18302306D01*
X25756091Y18302300D01*
X25756092Y18302299D01*
X25813759Y18112196D01*
X25907405Y17936996D01*
X26033432Y17783432D01*
X26186996Y17657405D01*
X26362196Y17563759D01*
X26552299Y17506092D01*
X26552303Y17506092D01*
X26552305Y17506091D01*
X26749997Y17486620D01*
X26750000Y17486620D01*
X26750003Y17486620D01*
X26947697Y17506091D01*
X26947699Y17506092D01*
X26947701Y17506092D01*
X27020924Y17528305D01*
X27091918Y17528938D01*
X27151984Y17491089D01*
X27182052Y17426774D01*
X27183500Y17407730D01*
X27183500Y16756129D01*
X27182893Y16743778D01*
X27178581Y16700002D01*
X27178581Y16699999D01*
X27182893Y16656225D01*
X27183500Y16643873D01*
X27183500Y11685463D01*
X27163498Y11617342D01*
X27109842Y11570849D01*
X27039568Y11560745D01*
X27020924Y11564888D01*
X26899269Y11601792D01*
X26899268Y11601793D01*
X26899262Y11601794D01*
X26700003Y11621418D01*
X26699997Y11621418D01*
X26500738Y11601794D01*
X26500736Y11601794D01*
X26309122Y11543668D01*
X26309116Y11543666D01*
X26132533Y11449280D01*
X25977748Y11322252D01*
X25850720Y11167467D01*
X25756334Y10990884D01*
X25756332Y10990878D01*
X25698206Y10799264D01*
X25698206Y10799261D01*
X25683500Y10649943D01*
X25683500Y8493633D01*
X25663498Y8425512D01*
X25646599Y8404543D01*
X25598180Y8356123D01*
X25570029Y8327972D01*
X25507716Y8293947D01*
X25475914Y8291168D01*
X25442033Y8292519D01*
X25434953Y8291307D01*
X25413692Y8289500D01*
X22220633Y8289500D01*
X22152512Y8309502D01*
X22131538Y8326405D01*
X21575415Y8882528D01*
X21555390Y8908624D01*
X21539039Y8936945D01*
X21539036Y8936950D01*
X21411255Y9078865D01*
X21256752Y9191118D01*
X21082288Y9268794D01*
X20895487Y9308500D01*
X20704513Y9308500D01*
X20517711Y9268794D01*
X20343247Y9191118D01*
X20188744Y9078865D01*
X20060965Y8936952D01*
X20060958Y8936942D01*
X19965476Y8771562D01*
X19965473Y8771555D01*
X19906457Y8589928D01*
X19889177Y8425512D01*
X19886496Y8400000D01*
X19906458Y8210072D01*
X19906459Y8210069D01*
X19907747Y8204009D01*
X19910500Y8177814D01*
X19910500Y7822189D01*
X19907746Y7795991D01*
X19906458Y7789933D01*
X19902916Y7756230D01*
X19886496Y7600000D01*
X19906458Y7410072D01*
X19906459Y7410069D01*
X19907747Y7404009D01*
X19910500Y7377814D01*
X19910500Y7022189D01*
X19907746Y6995991D01*
X19906458Y6989933D01*
X19886496Y6800000D01*
X19906457Y6610073D01*
X19935674Y6520155D01*
X19965473Y6428444D01*
X19965476Y6428439D01*
X20060958Y6263059D01*
X20060965Y6263049D01*
X20188744Y6121136D01*
X20298391Y6041473D01*
X20313425Y6028632D01*
X20660164Y5681893D01*
X20694190Y5619581D01*
X20696378Y5605973D01*
X20705951Y5514899D01*
X20706458Y5510073D01*
X20707747Y5504011D01*
X20710500Y5477814D01*
X20710500Y5122189D01*
X20707746Y5095991D01*
X20706458Y5089933D01*
X20700472Y5032974D01*
X20686496Y4900000D01*
X20706458Y4710072D01*
X20706459Y4710069D01*
X20707747Y4704009D01*
X20710500Y4677814D01*
X20710500Y4322189D01*
X20707746Y4295991D01*
X20706458Y4289933D01*
X20691322Y4145917D01*
X20686496Y4100000D01*
X20706458Y3910072D01*
X20706459Y3910069D01*
X20707747Y3904009D01*
X20710500Y3877814D01*
X20710500Y3522189D01*
X20707746Y3495991D01*
X20706458Y3489933D01*
X20686496Y3300001D01*
X20686496Y3300000D01*
X20706458Y3110072D01*
X20706459Y3110069D01*
X20707747Y3104009D01*
X20710500Y3077814D01*
X20710500Y2756180D01*
X20704333Y2717244D01*
X20695457Y2689929D01*
X20675496Y2500000D01*
X20695457Y2310073D01*
X20704333Y2282758D01*
X20710500Y2243821D01*
X20710500Y1956180D01*
X20704333Y1917244D01*
X20695457Y1889929D01*
X20675496Y1700000D01*
X20695457Y1510073D01*
X20704333Y1482758D01*
X20710500Y1443821D01*
X20710500Y1156180D01*
X20704333Y1117244D01*
X20695457Y1089929D01*
X20675496Y900000D01*
X20695457Y710073D01*
X20716086Y646585D01*
X20744385Y559490D01*
X20748627Y546437D01*
X20750655Y475469D01*
X20713993Y414671D01*
X20650280Y383346D01*
X20628794Y381500D01*
X5549220Y381500D01*
X5481099Y401502D01*
X5434606Y455158D01*
X5424502Y525432D01*
X5453996Y590012D01*
X5479565Y612497D01*
X5590547Y686119D01*
X5877801Y924272D01*
X6138114Y1191609D01*
X6368535Y1485101D01*
X6566455Y1801422D01*
X6729631Y2136989D01*
X6856213Y2487999D01*
X6944769Y2850476D01*
X6994294Y3220312D01*
X7004227Y3593317D01*
X6981456Y3877814D01*
X6974457Y3965260D01*
X6934391Y4177748D01*
X6905317Y4331941D01*
X6875226Y4431735D01*
X6797600Y4689181D01*
X6797596Y4689190D01*
X6788784Y4710069D01*
X6652511Y5032967D01*
X6471707Y5359374D01*
X6257232Y5664713D01*
X6257227Y5664719D01*
X6257222Y5664725D01*
X6011517Y5945527D01*
X6011515Y5945529D01*
X5737344Y6198630D01*
X5437828Y6421152D01*
X5437827Y6421154D01*
X5269813Y6520155D01*
X5116345Y6610585D01*
X4776554Y6764770D01*
X4422298Y6881964D01*
X4422297Y6881965D01*
X4422288Y6881967D01*
X4057585Y6960841D01*
X3686581Y7000501D01*
X3686569Y7000501D01*
X3406787Y7000501D01*
X3406781Y7000501D01*
X3406753Y7000500D01*
X3127403Y6985612D01*
X3127385Y6985610D01*
X2759000Y6926257D01*
X2399012Y6828084D01*
X2399009Y6828083D01*
X2051514Y6692209D01*
X2051507Y6692207D01*
X2051497Y6692202D01*
X2051488Y6692198D01*
X2051485Y6692196D01*
X1720399Y6520155D01*
X1720396Y6520153D01*
X1409452Y6313881D01*
X1409445Y6313876D01*
X1122202Y6075732D01*
X861883Y5808388D01*
X631464Y5514899D01*
X631461Y5514895D01*
X614314Y5487489D01*
X561225Y5440351D01*
X491078Y5429398D01*
X426145Y5458108D01*
X387042Y5517365D01*
X381500Y5554323D01*
X381500Y10149999D01*
X5228581Y10149999D01*
X5235373Y10081048D01*
X5235373Y10081046D01*
X5248206Y9950739D01*
X5248206Y9950737D01*
X5306332Y9759123D01*
X5306334Y9759117D01*
X5400720Y9582534D01*
X5527748Y9427748D01*
X5561758Y9399837D01*
X5570920Y9391532D01*
X5741536Y9220916D01*
X5749841Y9211753D01*
X5777747Y9177748D01*
X5795614Y9163086D01*
X5813083Y9145617D01*
X5827745Y9127751D01*
X5827746Y9127750D01*
X5827748Y9127748D01*
X5861756Y9099839D01*
X5870918Y9091534D01*
X6741536Y8220916D01*
X6749840Y8211754D01*
X6751223Y8210069D01*
X6777746Y8177750D01*
X6811756Y8149839D01*
X6820918Y8141534D01*
X7741536Y7220916D01*
X7749841Y7211753D01*
X7777746Y7177750D01*
X7811756Y7149839D01*
X7820918Y7141534D01*
X10741536Y4220916D01*
X10749840Y4211754D01*
X10777748Y4177748D01*
X10816535Y4145917D01*
X10932531Y4050721D01*
X11014654Y4006826D01*
X11109120Y3956333D01*
X11249381Y3913785D01*
X11300731Y3898208D01*
X11464263Y3882101D01*
X11499998Y3878581D01*
X11500000Y3878581D01*
X11500002Y3878581D01*
X11543779Y3882893D01*
X11556130Y3883500D01*
X11743879Y3883500D01*
X11756228Y3882894D01*
X11770205Y3881517D01*
X11799998Y3878582D01*
X11800000Y3878582D01*
X11800002Y3878582D01*
X11829794Y3881517D01*
X11843771Y3882894D01*
X11856121Y3883500D01*
X12850066Y3883500D01*
X12943872Y3883500D01*
X12956223Y3882893D01*
X12999999Y3878581D01*
X13000000Y3878581D01*
X13000001Y3878581D01*
X13049936Y3883500D01*
X13099720Y3888404D01*
X13199269Y3898208D01*
X13390880Y3956333D01*
X13567469Y4050722D01*
X13722252Y4177748D01*
X13750159Y4211755D01*
X13758454Y4220908D01*
X14679097Y5141550D01*
X14688251Y5149845D01*
X14722252Y5177748D01*
X14750163Y5211759D01*
X14758459Y5220913D01*
X14779087Y5241541D01*
X14788228Y5249827D01*
X14822252Y5277748D01*
X14900647Y5373273D01*
X14949278Y5432530D01*
X15043667Y5609120D01*
X15055737Y5648909D01*
X15101792Y5800731D01*
X15102547Y5808391D01*
X15116803Y5953143D01*
X15116803Y5953146D01*
X15121418Y5999999D01*
X15121418Y6000002D01*
X15117107Y6043769D01*
X15116500Y6056120D01*
X15116500Y7743879D01*
X15117107Y7756230D01*
X15121418Y7799999D01*
X15121418Y7800003D01*
X15117107Y7843773D01*
X15116500Y7856123D01*
X15116500Y8243879D01*
X15117107Y8256230D01*
X15121418Y8299999D01*
X15121418Y8300003D01*
X15117107Y8343773D01*
X15116500Y8356123D01*
X15116500Y8793879D01*
X15117107Y8806230D01*
X15121418Y8849999D01*
X15121418Y8850003D01*
X15117107Y8893773D01*
X15116500Y8906123D01*
X15116500Y9793871D01*
X15117107Y9806222D01*
X15121419Y9849999D01*
X15121419Y9850002D01*
X15117107Y9893780D01*
X15116500Y9906131D01*
X15116500Y10793871D01*
X15117107Y10806222D01*
X15121419Y10849999D01*
X15121419Y10850002D01*
X15117107Y10893780D01*
X15116500Y10906131D01*
X15116500Y11793879D01*
X15117107Y11806230D01*
X15121418Y11849999D01*
X15121418Y11850003D01*
X15117107Y11893773D01*
X15116500Y11906123D01*
X15116500Y12793871D01*
X15117107Y12806222D01*
X15121419Y12849999D01*
X15121419Y12850002D01*
X15117107Y12893780D01*
X15116500Y12906131D01*
X15116500Y13626762D01*
X15136502Y13694883D01*
X15153399Y13715852D01*
X15379101Y13941554D01*
X15388245Y13949840D01*
X15388515Y13950061D01*
X15422252Y13977748D01*
X15440514Y14000000D01*
X15492834Y14063752D01*
X15492836Y14063756D01*
X15492839Y14063759D01*
X15549278Y14132530D01*
X15643667Y14309120D01*
X15655849Y14349278D01*
X15701792Y14500731D01*
X15701792Y14500733D01*
X15701793Y14500735D01*
X15711971Y14604081D01*
X15711971Y14604084D01*
X15721419Y14699999D01*
X15721419Y14700002D01*
X15717107Y14743778D01*
X15716500Y14756129D01*
X15716500Y15254130D01*
X15736502Y15322251D01*
X15790158Y15368744D01*
X15860432Y15378848D01*
X15925012Y15349354D01*
X15931595Y15343225D01*
X16030966Y15243854D01*
X16046385Y15225135D01*
X16486419Y14571645D01*
X16493026Y14560666D01*
X16532403Y14486998D01*
X16598996Y14405855D01*
X16602640Y14401195D01*
X16616791Y14382199D01*
X16618206Y14380477D01*
X16618217Y14380466D01*
X16618219Y14380464D01*
X16622352Y14376362D01*
X16630998Y14366860D01*
X16658429Y14333435D01*
X16658430Y14333434D01*
X16658432Y14333432D01*
X16811996Y14207405D01*
X16987196Y14113759D01*
X17177299Y14056092D01*
X17177303Y14056092D01*
X17177305Y14056091D01*
X17374997Y14036620D01*
X17375000Y14036620D01*
X17375003Y14036620D01*
X17572694Y14056091D01*
X17572695Y14056092D01*
X17572701Y14056092D01*
X17762804Y14113759D01*
X17938004Y14207405D01*
X18091568Y14333432D01*
X18217595Y14486996D01*
X18311241Y14662196D01*
X18368908Y14852299D01*
X18377928Y14943873D01*
X18388380Y15049997D01*
X18388380Y15050004D01*
X18368909Y15247695D01*
X18368908Y15247697D01*
X18368908Y15247701D01*
X18311241Y15437804D01*
X18217595Y15613004D01*
X18091568Y15766568D01*
X17938004Y15892595D01*
X17938005Y15892595D01*
X17938002Y15892597D01*
X17864334Y15931974D01*
X17853355Y15938581D01*
X17199865Y16378615D01*
X17181146Y16394034D01*
X15804995Y17770185D01*
X15772493Y17802687D01*
X15739562Y17823379D01*
X15728043Y17831553D01*
X15697641Y17855797D01*
X15697640Y17855798D01*
X15682977Y17862860D01*
X15662595Y17872676D01*
X15650234Y17879507D01*
X15617308Y17900195D01*
X15602921Y17905230D01*
X15580597Y17913041D01*
X15567560Y17918442D01*
X15532516Y17935317D01*
X15525160Y17936996D01*
X15494596Y17943973D01*
X15481022Y17947884D01*
X15444327Y17960725D01*
X15444315Y17960727D01*
X15405667Y17965083D01*
X15391744Y17967449D01*
X15353840Y17976100D01*
X15353837Y17976100D01*
X15307872Y17976100D01*
X14638747Y17976100D01*
X14570626Y17996102D01*
X14524133Y18049758D01*
X14514029Y18120032D01*
X14524552Y18155350D01*
X14543604Y18196210D01*
X14598440Y18313804D01*
X14648331Y18499999D01*
X17478582Y18499999D01*
X17483500Y18450067D01*
X17483500Y18450065D01*
X17498206Y18300740D01*
X17498206Y18300737D01*
X17556332Y18109123D01*
X17556334Y18109117D01*
X17649234Y17935315D01*
X17650722Y17932531D01*
X17777748Y17777748D01*
X17932531Y17650722D01*
X18109120Y17556333D01*
X18300731Y17498208D01*
X18300735Y17498208D01*
X18300737Y17498207D01*
X18499997Y17478582D01*
X18500000Y17478582D01*
X18500002Y17478582D01*
X18529794Y17481517D01*
X18543771Y17482894D01*
X18556121Y17483500D01*
X19443879Y17483500D01*
X19456228Y17482894D01*
X19470205Y17481517D01*
X19499998Y17478582D01*
X19500000Y17478582D01*
X19500002Y17478582D01*
X19529794Y17481517D01*
X19543771Y17482894D01*
X19556121Y17483500D01*
X20443879Y17483500D01*
X20456228Y17482894D01*
X20470205Y17481517D01*
X20499998Y17478582D01*
X20500000Y17478582D01*
X20500003Y17478582D01*
X20699261Y17498207D01*
X20699263Y17498207D01*
X20699264Y17498208D01*
X20699269Y17498208D01*
X20890880Y17556333D01*
X21067469Y17650722D01*
X21222252Y17777748D01*
X21349278Y17932531D01*
X21443667Y18109120D01*
X21501792Y18300731D01*
X21501947Y18302299D01*
X21516500Y18450065D01*
X21516500Y18450067D01*
X21521418Y18499999D01*
X21521418Y18500003D01*
X21517107Y18543773D01*
X21516500Y18556123D01*
X21516500Y21443879D01*
X21517107Y21456230D01*
X21521418Y21499998D01*
X21521418Y21500005D01*
X21501793Y21699262D01*
X21501793Y21699264D01*
X21501792Y21699267D01*
X21501792Y21699269D01*
X21443667Y21890880D01*
X21349278Y22067469D01*
X21222252Y22222252D01*
X21067469Y22349278D01*
X21067467Y22349279D01*
X21067466Y22349280D01*
X20890883Y22443666D01*
X20890877Y22443668D01*
X20809017Y22468500D01*
X20699269Y22501792D01*
X20699266Y22501793D01*
X20699261Y22501794D01*
X20549935Y22516500D01*
X20549934Y22516500D01*
X20533289Y22518140D01*
X20500002Y22521418D01*
X20499998Y22521418D01*
X20470205Y22518484D01*
X20456228Y22517107D01*
X20443879Y22516500D01*
X19556121Y22516500D01*
X19543771Y22517107D01*
X19529794Y22518484D01*
X19500002Y22521418D01*
X19499998Y22521418D01*
X19470205Y22518484D01*
X19456228Y22517107D01*
X19443879Y22516500D01*
X18556121Y22516500D01*
X18543771Y22517107D01*
X18529794Y22518484D01*
X18500002Y22521418D01*
X18499998Y22521418D01*
X18466710Y22518140D01*
X18450066Y22516500D01*
X18450065Y22516500D01*
X18300739Y22501794D01*
X18300736Y22501794D01*
X18109122Y22443668D01*
X18109116Y22443666D01*
X17932533Y22349280D01*
X17777748Y22222252D01*
X17650720Y22067467D01*
X17556334Y21890884D01*
X17556332Y21890878D01*
X17498206Y21699264D01*
X17498206Y21699262D01*
X17478582Y21500004D01*
X17478582Y21499999D01*
X17479547Y21490206D01*
X17481479Y21470581D01*
X17482893Y21456230D01*
X17483500Y21443879D01*
X17483500Y18556123D01*
X17482893Y18543773D01*
X17478582Y18500003D01*
X17478582Y18499999D01*
X14648331Y18499999D01*
X14655978Y18528537D01*
X14675353Y18750000D01*
X14655978Y18971463D01*
X14598440Y19186196D01*
X14504488Y19387676D01*
X14376977Y19569781D01*
X14219781Y19726977D01*
X14219777Y19726980D01*
X14219772Y19726984D01*
X14037677Y19854488D01*
X14037675Y19854489D01*
X13836199Y19948439D01*
X13836193Y19948441D01*
X13794074Y19959727D01*
X13621463Y20005978D01*
X13400000Y20025353D01*
X13178537Y20005978D01*
X13063463Y19975144D01*
X12963806Y19948441D01*
X12963801Y19948439D01*
X12762323Y19854488D01*
X12580222Y19726980D01*
X12580216Y19726975D01*
X12423025Y19569784D01*
X12423020Y19569778D01*
X12295512Y19387677D01*
X12295512Y19387676D01*
X12201560Y19186196D01*
X12144022Y18971463D01*
X12124647Y18750000D01*
X12144022Y18528537D01*
X12180287Y18393197D01*
X12201559Y18313807D01*
X12201561Y18313801D01*
X12275448Y18155350D01*
X12286109Y18085158D01*
X12257129Y18020345D01*
X12197709Y17981489D01*
X12161253Y17976100D01*
X11464580Y17976100D01*
X11426675Y17967449D01*
X11412752Y17965083D01*
X11374098Y17960727D01*
X11337383Y17947880D01*
X11323814Y17943971D01*
X11285907Y17935318D01*
X11285900Y17935315D01*
X11250858Y17918442D01*
X11237816Y17913040D01*
X11201111Y17900195D01*
X11168176Y17879502D01*
X11155817Y17872672D01*
X11120781Y17855799D01*
X11120778Y17855798D01*
X11090374Y17831552D01*
X11078856Y17823379D01*
X11045927Y17802688D01*
X11045924Y17802686D01*
X11013425Y17770186D01*
X11013423Y17770183D01*
X10994099Y17750860D01*
X10931786Y17716837D01*
X10860970Y17721903D01*
X10804136Y17764452D01*
X10779485Y17828977D01*
X10779260Y17831553D01*
X10766852Y17973380D01*
X10708816Y18189973D01*
X10614051Y18393197D01*
X10614050Y18393198D01*
X10614049Y18393201D01*
X10485442Y18576871D01*
X10485439Y18576875D01*
X10485436Y18576879D01*
X10326879Y18735436D01*
X10306079Y18750000D01*
X10143198Y18864051D01*
X9939976Y18958815D01*
X9939971Y18958817D01*
X9839450Y18985752D01*
X9723380Y19016852D01*
X9500000Y19036395D01*
X9276620Y19016852D01*
X9218585Y19001302D01*
X9060028Y18958817D01*
X9060024Y18958815D01*
X8856799Y18864050D01*
X8673129Y18735443D01*
X8673118Y18735434D01*
X8514566Y18576882D01*
X8514557Y18576871D01*
X8385950Y18393201D01*
X8291185Y18189976D01*
X8291183Y18189972D01*
X8263099Y18085158D01*
X8233148Y17973380D01*
X8213605Y17750000D01*
X8233148Y17526620D01*
X8291184Y17310027D01*
X8385949Y17106802D01*
X8514564Y16923121D01*
X8673121Y16764564D01*
X8856802Y16635949D01*
X9060027Y16541184D01*
X9276620Y16483148D01*
X9421024Y16470515D01*
X9487142Y16444652D01*
X9528781Y16387148D01*
X9532722Y16316261D01*
X9499138Y16255899D01*
X9074696Y15831456D01*
X9074695Y15831456D01*
X9024944Y15781705D01*
X8962632Y15747679D01*
X8891817Y15752744D01*
X8855916Y15773400D01*
X8763458Y15849278D01*
X8763456Y15849279D01*
X8763455Y15849280D01*
X8586872Y15943666D01*
X8586866Y15943668D01*
X8553510Y15953787D01*
X8395258Y16001792D01*
X8395255Y16001793D01*
X8395250Y16001794D01*
X8245924Y16016500D01*
X8245923Y16016500D01*
X8229278Y16018140D01*
X8195991Y16021418D01*
X8195987Y16021418D01*
X8166194Y16018484D01*
X8152217Y16017107D01*
X8139868Y16016500D01*
X7806121Y16016500D01*
X7793771Y16017107D01*
X7779794Y16018484D01*
X7750002Y16021418D01*
X7749998Y16021418D01*
X7720205Y16018484D01*
X7706228Y16017107D01*
X7693879Y16016500D01*
X7556121Y16016500D01*
X7543771Y16017107D01*
X7529794Y16018484D01*
X7500002Y16021418D01*
X7499998Y16021418D01*
X7470205Y16018484D01*
X7456228Y16017107D01*
X7443879Y16016500D01*
X6306128Y16016500D01*
X6293777Y16017107D01*
X6277810Y16018680D01*
X6250001Y16021419D01*
X6249998Y16021419D01*
X6150279Y16011597D01*
X6050731Y16001792D01*
X5934483Y15966529D01*
X5859122Y15943668D01*
X5859116Y15943666D01*
X5682533Y15849280D01*
X5527748Y15722252D01*
X5400720Y15567467D01*
X5306334Y15390884D01*
X5306332Y15390878D01*
X5248206Y15199262D01*
X5238424Y15099933D01*
X5238424Y15099932D01*
X5228581Y15000002D01*
X5228581Y14999999D01*
X5232893Y14956225D01*
X5233500Y14943873D01*
X5233500Y14056129D01*
X5232893Y14043778D01*
X5228581Y14000002D01*
X5228581Y13999999D01*
X5232893Y13956225D01*
X5233500Y13943873D01*
X5233500Y13056123D01*
X5232893Y13043773D01*
X5228582Y13000003D01*
X5228582Y12999999D01*
X5232893Y12956230D01*
X5233500Y12943879D01*
X5233500Y12056129D01*
X5232893Y12043778D01*
X5228581Y12000002D01*
X5228581Y11999999D01*
X5232893Y11956225D01*
X5233500Y11943873D01*
X5233500Y10206129D01*
X5232893Y10193778D01*
X5228581Y10150002D01*
X5228581Y10149999D01*
X381500Y10149999D01*
X381500Y12500000D01*
X1474647Y12500000D01*
X1494022Y12278537D01*
X1540273Y12105926D01*
X1551559Y12063807D01*
X1551561Y12063801D01*
X1645511Y11862325D01*
X1645512Y11862323D01*
X1773016Y11680228D01*
X1773020Y11680223D01*
X1773023Y11680219D01*
X1930219Y11523023D01*
X1930223Y11523020D01*
X1930227Y11523017D01*
X1971438Y11494161D01*
X2112323Y11395512D01*
X2313804Y11301560D01*
X2528537Y11244022D01*
X2750000Y11224647D01*
X2971463Y11244022D01*
X3186196Y11301560D01*
X3387677Y11395512D01*
X3569781Y11523023D01*
X3726977Y11680219D01*
X3854488Y11862323D01*
X3948440Y12063804D01*
X4005978Y12278537D01*
X4025353Y12500000D01*
X4005978Y12721463D01*
X3948440Y12936196D01*
X3854488Y13137676D01*
X3726977Y13319781D01*
X3569781Y13476977D01*
X3569777Y13476980D01*
X3569772Y13476984D01*
X3387677Y13604488D01*
X3387675Y13604489D01*
X3186199Y13698439D01*
X3186193Y13698441D01*
X3121195Y13715857D01*
X2971463Y13755978D01*
X2750000Y13775353D01*
X2528537Y13755978D01*
X2413463Y13725144D01*
X2313806Y13698441D01*
X2313801Y13698439D01*
X2112323Y13604488D01*
X1930222Y13476980D01*
X1930216Y13476975D01*
X1773025Y13319784D01*
X1773020Y13319778D01*
X1645512Y13137677D01*
X1551561Y12936199D01*
X1551559Y12936194D01*
X1528464Y12850002D01*
X1494022Y12721463D01*
X1474647Y12500000D01*
X381500Y12500000D01*
X381500Y20474000D01*
X401502Y20542121D01*
X455158Y20588614D01*
X507500Y20600000D01*
X2500000Y20600000D01*
X2500000Y21400000D01*
X507500Y21400000D01*
X439379Y21420002D01*
X392886Y21473658D01*
X381500Y21526000D01*
X381500Y21800000D01*
X9046496Y21800000D01*
X9066457Y21610073D01*
X9086519Y21548330D01*
X9125473Y21428444D01*
X9125476Y21428439D01*
X9220958Y21263059D01*
X9220965Y21263049D01*
X9348744Y21121136D01*
X9348747Y21121134D01*
X9503248Y21008882D01*
X9677712Y20931206D01*
X9864513Y20891500D01*
X10055487Y20891500D01*
X10242288Y20931206D01*
X10416752Y21008882D01*
X10484872Y21058375D01*
X10551736Y21082231D01*
X10620887Y21066152D01*
X10660311Y21027111D01*
X10662081Y21028396D01*
X10665965Y21023049D01*
X10793744Y20881136D01*
X10793747Y20881134D01*
X10948248Y20768882D01*
X11122712Y20691206D01*
X11309513Y20651500D01*
X11500487Y20651500D01*
X11687288Y20691206D01*
X11861752Y20768882D01*
X12016253Y20881134D01*
X12144040Y21023056D01*
X12239527Y21188444D01*
X12298542Y21370072D01*
X12318504Y21560000D01*
X12298542Y21749928D01*
X12239527Y21931556D01*
X12144040Y22096944D01*
X12144038Y22096946D01*
X12144034Y22096952D01*
X12016255Y22238865D01*
X11861752Y22351118D01*
X11687288Y22428794D01*
X11500487Y22468500D01*
X11309513Y22468500D01*
X11122711Y22428794D01*
X10948248Y22351118D01*
X10880129Y22301627D01*
X10813261Y22277769D01*
X10744110Y22293850D01*
X10704706Y22332893D01*
X10702925Y22331598D01*
X10699039Y22336945D01*
X10571255Y22478865D01*
X10416752Y22591118D01*
X10242288Y22668794D01*
X10055487Y22708500D01*
X9864513Y22708500D01*
X9677711Y22668794D01*
X9503247Y22591118D01*
X9348744Y22478865D01*
X9220965Y22336952D01*
X9220958Y22336942D01*
X9125476Y22171562D01*
X9125473Y22171555D01*
X9066457Y21989928D01*
X9046496Y21800000D01*
X381500Y21800000D01*
X381500Y24451017D01*
X401502Y24519138D01*
X455158Y24565631D01*
X525432Y24575735D01*
X590012Y24546241D01*
X610604Y24523443D01*
X674462Y24432531D01*
X742772Y24335282D01*
X742777Y24335276D01*
X988482Y24054474D01*
X988484Y24054472D01*
X1262655Y23801371D01*
X1562171Y23578849D01*
X1562172Y23578847D01*
X1562176Y23578845D01*
X1562177Y23578844D01*
X1883655Y23389415D01*
X2223446Y23235230D01*
X2577702Y23118036D01*
X2942408Y23039161D01*
X2942410Y23039161D01*
X2942414Y23039160D01*
X3313418Y22999500D01*
X3313425Y22999500D01*
X3313431Y22999499D01*
X3313436Y22999499D01*
X3593206Y22999499D01*
X3593213Y22999499D01*
X3716123Y23006050D01*
X3872596Y23014389D01*
X3872601Y23014390D01*
X3872609Y23014390D01*
X4240995Y23073743D01*
X4600986Y23171916D01*
X4948503Y23307798D01*
X5279607Y23479849D01*
X5590547Y23686119D01*
X5877801Y23924272D01*
X6138114Y24191609D01*
X6368535Y24485101D01*
X6406802Y24546261D01*
X10762581Y24546261D01*
X10772056Y24450066D01*
X10772056Y24450065D01*
X10782206Y24347001D01*
X10782207Y24346996D01*
X10782208Y24346993D01*
X10803896Y24275498D01*
X10840332Y24155385D01*
X10840334Y24155379D01*
X10924344Y23998208D01*
X10934722Y23978793D01*
X11026228Y23867292D01*
X11061747Y23824011D01*
X11069252Y23817852D01*
X11086717Y23800387D01*
X11092879Y23792879D01*
X11247662Y23665853D01*
X11247664Y23665852D01*
X11410434Y23578849D01*
X11424251Y23571464D01*
X11615862Y23513339D01*
X11715410Y23503535D01*
X11751297Y23500000D01*
X11815130Y23493712D01*
X11815131Y23493712D01*
X11815132Y23493712D01*
X11858908Y23498024D01*
X11871259Y23498631D01*
X12590249Y23498631D01*
X12602599Y23498024D01*
X12799997Y23478582D01*
X12800000Y23478582D01*
X12800003Y23478582D01*
X12999261Y23498207D01*
X12999263Y23498207D01*
X12999264Y23498208D01*
X12999269Y23498208D01*
X13190880Y23556333D01*
X13367469Y23650722D01*
X13522252Y23777748D01*
X13649278Y23932531D01*
X13743667Y24109120D01*
X13801792Y24300731D01*
X13816500Y24450066D01*
X13816500Y24450069D01*
X13816594Y24451017D01*
X13816803Y24453143D01*
X13816803Y24453146D01*
X13821418Y24499999D01*
X13821418Y24500002D01*
X13817107Y24543769D01*
X13816500Y24556120D01*
X13816500Y25427881D01*
X13817107Y25440232D01*
X13821418Y25483999D01*
X13821418Y25484002D01*
X13816242Y25536550D01*
X13816242Y25536552D01*
X13801793Y25683261D01*
X13801791Y25683273D01*
X13743669Y25874876D01*
X13743667Y25874880D01*
X13703129Y25950722D01*
X13649278Y26051470D01*
X13579815Y26136111D01*
X13579815Y26136112D01*
X13579813Y26136113D01*
X13522254Y26206251D01*
X13517874Y26210631D01*
X13517945Y26210702D01*
X13510697Y26217950D01*
X13510626Y26217879D01*
X13506257Y26222248D01*
X13464972Y26256129D01*
X13351469Y26349278D01*
X13351467Y26349279D01*
X13351466Y26349280D01*
X13174883Y26443666D01*
X13174877Y26443668D01*
X13141521Y26453787D01*
X12983269Y26501792D01*
X12983266Y26501793D01*
X12983261Y26501794D01*
X12883721Y26511597D01*
X12883720Y26511597D01*
X12784002Y26521419D01*
X12783999Y26521419D01*
X12756189Y26518680D01*
X12740222Y26517107D01*
X12727872Y26516500D01*
X11840121Y26516500D01*
X11827771Y26517107D01*
X11813794Y26518484D01*
X11784002Y26521418D01*
X11783998Y26521418D01*
X11750710Y26518140D01*
X11734066Y26516500D01*
X11734065Y26516500D01*
X11584739Y26501794D01*
X11584736Y26501794D01*
X11393122Y26443668D01*
X11393116Y26443666D01*
X11216533Y26349280D01*
X11061748Y26222252D01*
X10934720Y26067467D01*
X10840334Y25890884D01*
X10840332Y25890878D01*
X10782206Y25699264D01*
X10782206Y25699262D01*
X10762582Y25500005D01*
X10762582Y25499998D01*
X10766893Y25456230D01*
X10767500Y25443879D01*
X10767500Y24602391D01*
X10766893Y24590040D01*
X10762581Y24546264D01*
X10762581Y24546261D01*
X6406802Y24546261D01*
X6566455Y24801422D01*
X6729631Y25136989D01*
X6849143Y25468393D01*
X6856211Y25487993D01*
X6856213Y25487999D01*
X6907828Y25699269D01*
X6944769Y25850476D01*
X6994294Y26220312D01*
X7002051Y26511597D01*
X7004227Y26593311D01*
X7004227Y26593317D01*
X6974457Y26965258D01*
X6974456Y26965265D01*
X6967783Y27000654D01*
X6974816Y27071299D01*
X7018927Y27126929D01*
X7086111Y27149880D01*
X7091601Y27150000D01*
X8900000Y27150000D01*
X8900000Y27332569D01*
X8920002Y27400690D01*
X8973658Y27447183D01*
X9043932Y27457287D01*
X9085394Y27443692D01*
X9212631Y27375682D01*
X9248826Y27356335D01*
X9259120Y27350833D01*
X9450731Y27292708D01*
X9450735Y27292708D01*
X9450737Y27292707D01*
X9649997Y27273082D01*
X9650000Y27273082D01*
X9650003Y27273082D01*
X9749614Y27282893D01*
X9761964Y27283500D01*
X11143879Y27283500D01*
X11156228Y27282894D01*
X11170205Y27281517D01*
X11199998Y27278582D01*
X11200000Y27278582D01*
X11200003Y27278582D01*
X11399261Y27298207D01*
X11399263Y27298207D01*
X11399264Y27298208D01*
X11399269Y27298208D01*
X11590880Y27356333D01*
X11767469Y27450722D01*
X11922252Y27577748D01*
X12049278Y27732531D01*
X12143667Y27909120D01*
X12201792Y28100731D01*
X12216500Y28250066D01*
X12221418Y28300000D01*
X12217107Y28343773D01*
X12216500Y28356123D01*
X12216500Y29054879D01*
X12217107Y29067230D01*
X12221418Y29110999D01*
X12221418Y29111004D01*
X12201793Y29310262D01*
X12201792Y29310267D01*
X12201792Y29310269D01*
X12177194Y29391358D01*
X12157608Y29455925D01*
X12156975Y29526918D01*
X12194824Y29586985D01*
X12259139Y29617053D01*
X12278183Y29618500D01*
X16925154Y29618500D01*
X16993275Y29598498D01*
G37*
%TD.AperFunction*%
%TD*%
M02*
