%TF.GenerationSoftware,KiCad,Pcbnew,7.0.11-7.0.11~ubuntu22.04.1*%
%TF.CreationDate,2024-11-21T15:06:29+02:00*%
%TF.ProjectId,POEv3_Rev_A,504f4576-335f-4526-9576-5f412e6b6963,A*%
%TF.SameCoordinates,PX55d4a80PY8a48640*%
%TF.FileFunction,Soldermask,Top*%
%TF.FilePolarity,Negative*%
%FSLAX46Y46*%
G04 Gerber Fmt 4.6, Leading zero omitted, Abs format (unit mm)*
G04 Created by KiCad (PCBNEW 7.0.11-7.0.11~ubuntu22.04.1) date 2024-11-21 15:06:29*
%MOMM*%
%LPD*%
G01*
G04 APERTURE LIST*
G04 Aperture macros list*
%AMRoundRect*
0 Rectangle with rounded corners*
0 $1 Rounding radius*
0 $2 $3 $4 $5 $6 $7 $8 $9 X,Y pos of 4 corners*
0 Add a 4 corners polygon primitive as box body*
4,1,4,$2,$3,$4,$5,$6,$7,$8,$9,$2,$3,0*
0 Add four circle primitives for the rounded corners*
1,1,$1+$1,$2,$3*
1,1,$1+$1,$4,$5*
1,1,$1+$1,$6,$7*
1,1,$1+$1,$8,$9*
0 Add four rect primitives between the rounded corners*
20,1,$1+$1,$2,$3,$4,$5,0*
20,1,$1+$1,$4,$5,$6,$7,0*
20,1,$1+$1,$6,$7,$8,$9,0*
20,1,$1+$1,$8,$9,$2,$3,0*%
G04 Aperture macros list end*
%ADD10C,0.100000*%
%ADD11C,1.254000*%
%ADD12C,1.625600*%
%ADD13RoundRect,0.050800X-0.762000X-0.762000X0.762000X-0.762000X0.762000X0.762000X-0.762000X0.762000X0*%
%ADD14C,3.401601*%
%ADD15RoundRect,0.050800X-0.635000X0.762000X-0.635000X-0.762000X0.635000X-0.762000X0.635000X0.762000X0*%
%ADD16RoundRect,0.050800X0.800100X-0.584200X0.800100X0.584200X-0.800100X0.584200X-0.800100X-0.584200X0*%
%ADD17RoundRect,0.050800X0.254000X-0.381000X0.254000X0.381000X-0.254000X0.381000X-0.254000X-0.381000X0*%
%ADD18RoundRect,0.050800X-0.762000X0.762000X-0.762000X-0.762000X0.762000X-0.762000X0.762000X0.762000X0*%
%ADD19RoundRect,0.050800X-1.000000X-1.750000X1.000000X-1.750000X1.000000X1.750000X-1.000000X1.750000X0*%
%ADD20RoundRect,0.050800X-0.500000X-1.500000X0.500000X-1.500000X0.500000X1.500000X-0.500000X1.500000X0*%
%ADD21RoundRect,0.050800X1.100000X1.700000X-1.100000X1.700000X-1.100000X-1.700000X1.100000X-1.700000X0*%
%ADD22RoundRect,0.050800X0.508000X0.508000X-0.508000X0.508000X-0.508000X-0.508000X0.508000X-0.508000X0*%
%ADD23RoundRect,0.050800X-0.508000X-0.508000X0.508000X-0.508000X0.508000X0.508000X-0.508000X0.508000X0*%
%ADD24RoundRect,0.050800X2.500000X-1.499999X2.500000X1.499999X-2.500000X1.499999X-2.500000X-1.499999X0*%
%ADD25C,1.901600*%
G04 APERTURE END LIST*
D10*
X6700000Y29700000D02*
X8700000Y29700000D01*
X8700000Y27350000D01*
X6700000Y27350000D01*
X6700000Y29700000D01*
G36*
X6700000Y29700000D02*
G01*
X8700000Y29700000D01*
X8700000Y27350000D01*
X6700000Y27350000D01*
X6700000Y29700000D01*
G37*
D11*
%TO.C,FID3*%
X1500000Y28500000D03*
%TD*%
%TO.C,FID2*%
X28500000Y28500000D03*
%TD*%
D12*
%TO.C,C2*%
X2750000Y12500000D03*
D13*
X7750000Y12500000D03*
%TD*%
D11*
%TO.C,FID1*%
X1500000Y1500000D03*
%TD*%
D14*
%TO.C,MH1*%
X3500000Y26500000D03*
%TD*%
%TO.C,MH2*%
X26500000Y26500000D03*
%TD*%
%TO.C,MH3*%
X26500000Y3500000D03*
%TD*%
D15*
%TO.C,R3*%
X6516000Y20250000D03*
X4484000Y20250000D03*
%TD*%
D16*
%TO.C,Class4_EN1*%
X1500000Y20238000D03*
X1500000Y20238000D03*
D17*
X1500000Y20746000D03*
X1500000Y21254000D03*
D16*
X1500000Y21762000D03*
%TD*%
D11*
%TO.C,FID4*%
X28500000Y1500000D03*
%TD*%
D12*
%TO.C,C6*%
X13400000Y18750000D03*
D18*
X13400000Y15250000D03*
%TD*%
D19*
%TO.C,POE_PWR1*%
X9700000Y24475000D03*
X20300000Y24475000D03*
D20*
X12000000Y28100000D03*
X14000000Y28100000D03*
X16000000Y28100000D03*
X18000000Y28100000D03*
%TD*%
D21*
%TO.C,D2*%
X16900000Y6750000D03*
X10100000Y6750000D03*
%TD*%
D22*
%TO.C,C3*%
X12139000Y2600000D03*
X10361000Y2600000D03*
%TD*%
D14*
%TO.C,MH4*%
X3500000Y3500000D03*
%TD*%
D23*
%TO.C,R9*%
X15361000Y2600000D03*
X17139000Y2600000D03*
%TD*%
D24*
%TO.C,L1*%
X23750000Y9200000D03*
X23750000Y19800000D03*
%TD*%
D25*
%TO.C,U1*%
X9500000Y17750000D03*
%TD*%
%TO.C,U2*%
X18000000Y10950000D03*
%TD*%
M02*
