%TF.GenerationSoftware,KiCad,Pcbnew,7.0.11-7.0.11~ubuntu22.04.1*%
%TF.CreationDate,2024-11-21T15:06:28+02:00*%
%TF.ProjectId,POEv3_Rev_A,504f4576-335f-4526-9576-5f412e6b6963,A*%
%TF.SameCoordinates,PX55d4a80PY8a48640*%
%TF.FileFunction,Copper,L2,Inr*%
%TF.FilePolarity,Positive*%
%FSLAX46Y46*%
G04 Gerber Fmt 4.6, Leading zero omitted, Abs format (unit mm)*
G04 Created by KiCad (PCBNEW 7.0.11-7.0.11~ubuntu22.04.1) date 2024-11-21 15:06:28*
%MOMM*%
%LPD*%
G01*
G04 APERTURE LIST*
%ADD10C,0.190500*%
%TA.AperFunction,NonConductor*%
%ADD11C,0.190500*%
%TD*%
%TA.AperFunction,ComponentPad*%
%ADD12C,1.524000*%
%TD*%
%TA.AperFunction,ComponentPad*%
%ADD13R,1.524000X1.524000*%
%TD*%
%TA.AperFunction,ComponentPad*%
%ADD14C,1.800000*%
%TD*%
%TA.AperFunction,ViaPad*%
%ADD15C,1.000000*%
%TD*%
%TA.AperFunction,ViaPad*%
%ADD16C,0.800000*%
%TD*%
%TA.AperFunction,Conductor*%
%ADD17C,1.270000*%
%TD*%
%TA.AperFunction,Conductor*%
%ADD18C,1.016000*%
%TD*%
%TA.AperFunction,Conductor*%
%ADD19C,1.524000*%
%TD*%
%TA.AperFunction,Conductor*%
%ADD20C,0.762000*%
%TD*%
%TA.AperFunction,Conductor*%
%ADD21C,0.508000*%
%TD*%
%TA.AperFunction,Conductor*%
%ADD22C,0.609600*%
%TD*%
%TA.AperFunction,Conductor*%
%ADD23C,0.990600*%
%TD*%
G04 APERTURE END LIST*
D10*
D11*
X7020470Y28242589D02*
X7056756Y28278875D01*
X7056756Y28278875D02*
X7129328Y28315161D01*
X7129328Y28315161D02*
X7310756Y28315161D01*
X7310756Y28315161D02*
X7383328Y28278875D01*
X7383328Y28278875D02*
X7419613Y28242589D01*
X7419613Y28242589D02*
X7455899Y28170018D01*
X7455899Y28170018D02*
X7455899Y28097446D01*
X7455899Y28097446D02*
X7419613Y27988589D01*
X7419613Y27988589D02*
X6984185Y27553161D01*
X6984185Y27553161D02*
X7455899Y27553161D01*
D12*
%TO.N,Spare1*%
%TO.C,C2*%
X2750000Y12500000D03*
D13*
%TO.N,GND*%
X7750000Y12500000D03*
%TD*%
D12*
%TO.N,+5VP*%
%TO.C,C6*%
X13400000Y18750000D03*
D13*
%TO.N,GND*%
X13400000Y15250000D03*
%TD*%
D14*
%TO.N,Spare2*%
%TO.C,U1*%
X9500000Y17750000D03*
%TD*%
%TO.N,/ILIM*%
%TO.C,U2*%
X18000000Y10950000D03*
%TD*%
D15*
%TO.N,GND*%
X12100000Y13850000D03*
X6250000Y14000000D03*
X14700000Y15700000D03*
X12900000Y4900000D03*
X14100000Y12850000D03*
X14100000Y11850000D03*
X12100000Y15850000D03*
X8500000Y9900000D03*
X11800000Y6900000D03*
X14100000Y13850000D03*
X6250000Y13000000D03*
X8500000Y10900000D03*
X11100000Y10850000D03*
X29000000Y17500000D03*
X8500000Y8900000D03*
X12900000Y5900000D03*
X29000000Y7500000D03*
X13100000Y9850000D03*
X29000000Y15000000D03*
X12100000Y14850000D03*
X12900000Y6900000D03*
X11800000Y4900000D03*
X11100000Y12850000D03*
X11100000Y8850000D03*
X14700000Y14700000D03*
X7500000Y9900000D03*
X13100000Y10850000D03*
X6250000Y12000000D03*
X13100000Y13850000D03*
X13100000Y12850000D03*
X11100000Y9850000D03*
X13100000Y8850000D03*
X8500000Y7900000D03*
X6500000Y10900000D03*
X7500000Y8900000D03*
X29000000Y12500000D03*
X12100000Y8850000D03*
X7500000Y10900000D03*
X6500000Y9900000D03*
X14100000Y10850000D03*
X7500000Y13750000D03*
X11100000Y11850000D03*
X12100000Y9850000D03*
X12100000Y11850000D03*
X12100000Y12850000D03*
X12100000Y10850000D03*
X29000000Y20000000D03*
X13100000Y11850000D03*
X14000000Y6900000D03*
X29000000Y22500000D03*
X14000000Y5900000D03*
X14100000Y9850000D03*
X14100000Y8850000D03*
X29000000Y10000000D03*
X11800000Y5900000D03*
X6250000Y15000000D03*
D16*
%TO.N,/SW_LX*%
X24000000Y7300000D03*
X20800000Y7600000D03*
X24000000Y6500000D03*
X22400000Y7300000D03*
X22400000Y6500000D03*
X22400000Y900000D03*
X22400000Y4100000D03*
X22400000Y3300000D03*
X24800000Y7300000D03*
X22400000Y5700000D03*
X23200000Y900000D03*
X22400000Y4900000D03*
X21600000Y7300000D03*
X21600000Y3300000D03*
X21600000Y5700000D03*
X20800000Y6800000D03*
X23200000Y5700000D03*
X21589000Y2500000D03*
X21600000Y4100000D03*
X23200000Y6500000D03*
X21589000Y900000D03*
X22400000Y2500000D03*
X21600000Y4900000D03*
X23200000Y7300000D03*
X26700000Y7400000D03*
X26700000Y10600000D03*
X22400000Y1700000D03*
X21589000Y1700000D03*
X26700000Y9800000D03*
X20800000Y8400000D03*
X26700000Y9000000D03*
X21600000Y6500000D03*
X26700000Y8200000D03*
%TO.N,Net-(U1-CLS)*%
X9960000Y21800000D03*
D15*
%TO.N,/ILIM*%
X20250000Y9900000D03*
X15750000Y9900000D03*
X20250000Y12000000D03*
X15750000Y12000000D03*
X15750000Y10950000D03*
X20250000Y10950000D03*
D16*
X18625000Y9250000D03*
D15*
%TO.N,Net-(U1-CDB)*%
X17375000Y15050000D03*
X9584989Y13333661D03*
%TO.N,+5VP*%
X22400000Y23500000D03*
X21000000Y28100000D03*
X19500000Y20500000D03*
X22000000Y29100000D03*
X19500000Y21500000D03*
X19500000Y19500000D03*
X26750000Y19500000D03*
X18500000Y18500000D03*
X18500000Y20500000D03*
X18000000Y26000000D03*
X19500000Y18500000D03*
X21000000Y29100000D03*
X18000000Y25000000D03*
D16*
X22400000Y26500000D03*
D15*
X23000000Y29100000D03*
X22400000Y25500000D03*
X20500000Y19500000D03*
X19000000Y29100000D03*
X24400000Y22500000D03*
D16*
X21000000Y27200000D03*
D15*
X20500000Y18500000D03*
D16*
X22000000Y27200000D03*
D15*
X20500000Y21500000D03*
X26750000Y20500000D03*
X26750000Y22500000D03*
X18500000Y21500000D03*
X22000000Y28100000D03*
X23400000Y23500000D03*
X18500000Y19500000D03*
X20000000Y28100000D03*
X22400000Y24500000D03*
X20000000Y29100000D03*
D16*
X19000000Y27200000D03*
D15*
X25400000Y22500000D03*
X23400000Y22500000D03*
D16*
X20000000Y27200000D03*
D15*
X19000000Y28100000D03*
X26750000Y18500000D03*
X20500000Y20500000D03*
X26750000Y21500000D03*
%TO.N,Spare1*%
X11815131Y24515131D03*
X12784000Y25500000D03*
X11784000Y25500000D03*
X12800000Y24500000D03*
D16*
%TO.N,Spare2*%
X11405000Y21560000D03*
X9600000Y28300000D03*
X9600000Y29111000D03*
X10400000Y28300000D03*
X10400000Y29111000D03*
X11200000Y28300000D03*
X11200000Y29111000D03*
%TD*%
D17*
%TO.N,GND*%
X14000000Y5900000D02*
X13000000Y4900000D01*
D18*
X9250000Y11850000D02*
X11100000Y11850000D01*
X7750000Y12500000D02*
X8400000Y11850000D01*
X11250000Y15000000D02*
X12100000Y15850000D01*
D17*
X13100000Y8850000D02*
X13100000Y5100000D01*
D19*
X14700000Y15850000D02*
X12100000Y15850000D01*
D18*
X14000000Y7900000D02*
X14100000Y8000000D01*
X9100000Y14850000D02*
X10200000Y14850000D01*
X8300000Y15000000D02*
X7500000Y15000000D01*
D17*
X14700000Y15700000D02*
X14700000Y15850000D01*
D18*
X11100000Y12850000D02*
X10100000Y11850000D01*
X6500000Y9900000D02*
X8500000Y9900000D01*
X10200000Y6200000D02*
X11500000Y4900000D01*
D17*
X12100000Y8850000D02*
X11100000Y8850000D01*
D18*
X6250000Y10150000D02*
X6250000Y12000000D01*
D17*
X14700000Y13450000D02*
X14700000Y14700000D01*
X12100000Y5700000D02*
X12900000Y4900000D01*
X14100000Y8000000D02*
X14100000Y6000000D01*
D18*
X7500000Y12750000D02*
X7750000Y12500000D01*
X6500000Y10900000D02*
X8500000Y10900000D01*
X10100000Y11850000D02*
X9250000Y11850000D01*
X6400000Y11850000D02*
X6250000Y12000000D01*
D17*
X14100000Y12850000D02*
X14700000Y13450000D01*
D19*
X12100000Y13850000D02*
X14100000Y13850000D01*
D18*
X8300000Y15000000D02*
X11250000Y15000000D01*
X6250000Y15000000D02*
X7500000Y13750000D01*
D17*
X13100000Y8850000D02*
X13100000Y13850000D01*
D18*
X8500000Y7900000D02*
X10250000Y7900000D01*
D17*
X11100000Y8850000D02*
X11100000Y12850000D01*
D18*
X7750000Y12500000D02*
X6250000Y14000000D01*
X7500000Y13750000D02*
X7500000Y12750000D01*
X12100000Y15850000D02*
X12800000Y15850000D01*
D17*
X13100000Y5100000D02*
X12900000Y4900000D01*
D18*
X13400000Y15250000D02*
X13400000Y14150000D01*
X13400000Y14150000D02*
X13100000Y13850000D01*
X8500000Y9900000D02*
X11050000Y9900000D01*
X11050000Y9900000D02*
X11100000Y9850000D01*
X10250000Y7900000D02*
X14000000Y7900000D01*
X7750000Y12500000D02*
X6250000Y12500000D01*
X8400000Y11850000D02*
X9250000Y11850000D01*
X6250000Y12500000D02*
X6250000Y15000000D01*
X12800000Y15850000D02*
X13400000Y15250000D01*
D17*
X14100000Y8850000D02*
X12100000Y8850000D01*
D18*
X11100000Y13950000D02*
X10200000Y14850000D01*
D17*
X14100000Y13850000D02*
X14100000Y15850000D01*
D18*
X6250000Y15000000D02*
X7100000Y15850000D01*
X8500000Y8900000D02*
X11050000Y8900000D01*
X12100000Y13950000D02*
X13400000Y15250000D01*
X7100000Y15850000D02*
X12100000Y15850000D01*
X8500000Y10900000D02*
X11050000Y10900000D01*
X11050000Y8900000D02*
X11100000Y8850000D01*
X11500000Y4900000D02*
X12900000Y4900000D01*
X9250000Y11850000D02*
X9104307Y11850000D01*
X7500000Y13750000D02*
X7500000Y15000000D01*
X14100000Y14550000D02*
X13400000Y15250000D01*
X12100000Y13850000D02*
X12100000Y13950000D01*
D17*
X11100000Y8850000D02*
X11100000Y4900000D01*
D18*
X9100000Y14850000D02*
X8950000Y15000000D01*
X7500000Y8900000D02*
X6250000Y10150000D01*
X8195989Y12758318D02*
X8195989Y13945989D01*
D17*
X13000000Y4900000D02*
X12900000Y4900000D01*
X14700000Y14700000D02*
X14700000Y15700000D01*
D18*
X7500000Y15000000D02*
X6250000Y15000000D01*
X8500000Y10900000D02*
X8500000Y7900000D01*
D17*
X14100000Y8850000D02*
X14100000Y8000000D01*
X14100000Y6000000D02*
X14000000Y5900000D01*
D18*
X8195989Y13945989D02*
X9100000Y14850000D01*
D17*
X12900000Y4900000D02*
X11800000Y4900000D01*
D18*
X9104307Y11850000D02*
X8195989Y12758318D01*
X10250000Y6250000D02*
X10250000Y7900000D01*
D17*
X11100000Y12850000D02*
X12100000Y13850000D01*
X14100000Y15850000D02*
X12100000Y15850000D01*
D18*
X11100000Y11850000D02*
X6400000Y11850000D01*
X11100000Y12850000D02*
X11100000Y13950000D01*
X7500000Y13750000D02*
X7500000Y8900000D01*
X14100000Y13850000D02*
X14700000Y14450000D01*
D17*
X12100000Y15850000D02*
X12100000Y13850000D01*
D18*
X6250000Y12000000D02*
X6250000Y12500000D01*
D17*
X12100000Y8850000D02*
X12100000Y13850000D01*
X11100000Y4900000D02*
X6250000Y9750000D01*
D18*
X8950000Y15000000D02*
X8300000Y15000000D01*
D17*
X11100000Y4900000D02*
X11800000Y4900000D01*
D18*
X8500000Y7900000D02*
X10200000Y6200000D01*
X11050000Y10900000D02*
X11100000Y10850000D01*
D17*
X12100000Y8850000D02*
X12100000Y5700000D01*
D18*
X10200000Y14850000D02*
X12100000Y14850000D01*
X14700000Y14450000D02*
X14700000Y14700000D01*
X14100000Y13850000D02*
X14100000Y8850000D01*
X8500000Y7900000D02*
X7500000Y8900000D01*
D17*
X6250000Y9750000D02*
X6250000Y15000000D01*
D18*
X14100000Y13850000D02*
X14100000Y14550000D01*
X10200000Y6200000D02*
X10250000Y6250000D01*
D20*
%TO.N,/SW_LX*%
X23025718Y1485718D02*
X22618999Y1892437D01*
X23200000Y5700000D02*
X22618999Y4300000D01*
X22800000Y5300000D02*
X22400000Y4900000D01*
D21*
X22618999Y3680000D02*
X23200000Y5700000D01*
X22653781Y2490000D02*
X23646218Y1010000D01*
D20*
X20800000Y6800000D02*
X23700000Y6800000D01*
X21600000Y6000000D02*
X21600000Y5700000D01*
X24522633Y6977367D02*
X25900000Y7400000D01*
X21600000Y911000D02*
X21589000Y900000D01*
X23700000Y6800000D02*
X24000000Y6500000D01*
X23025718Y1485718D02*
X22400000Y3300000D01*
X23025718Y1485718D02*
X23573827Y937609D01*
X26700000Y7400000D02*
X25900000Y7400000D01*
X23200000Y900000D02*
X22400000Y1700000D01*
X22618999Y1940000D02*
X22618999Y1481001D01*
X26700000Y10600000D02*
X26700000Y7400000D01*
X21000000Y7400000D02*
X20800000Y7600000D01*
X26700000Y7400000D02*
X22800000Y7400000D01*
X21800000Y7400000D02*
X21900000Y7400000D01*
X25900000Y7400000D02*
X26700000Y8200000D01*
X21900000Y1211000D02*
X21900000Y7400000D01*
X22618999Y2790000D02*
X22618999Y2380000D01*
X20800000Y8400000D02*
X21800000Y7400000D01*
X21600000Y5700000D02*
X21600000Y911000D01*
X22800000Y5300000D02*
X22800000Y7400000D01*
X24000000Y6500000D02*
X25200000Y7306564D01*
X22400000Y2500000D02*
X22618999Y3680000D01*
X21600000Y5700000D02*
X21600000Y7300000D01*
X23200000Y900000D02*
X23611436Y900000D01*
X22618999Y3680000D02*
X22618999Y2790000D01*
X23200000Y5700000D02*
X22800000Y5300000D01*
D21*
X22618999Y3680000D02*
X23200000Y900000D01*
D20*
X22400000Y3300000D02*
X23200000Y900000D01*
X22618999Y1892437D02*
X22618999Y1940000D01*
X23200000Y5700000D02*
X22618999Y5118999D01*
X20800000Y6800000D02*
X21600000Y6000000D01*
X21900000Y7400000D02*
X21000000Y7400000D01*
X20800000Y8400000D02*
X20800000Y6800000D01*
X24000000Y6500000D02*
X23200000Y5700000D01*
X21589000Y900000D02*
X21900000Y1211000D01*
X22618999Y1481001D02*
X23200000Y900000D01*
X22400000Y1700000D02*
X22400000Y7300000D01*
X22618999Y2380000D02*
X22618999Y1940000D01*
X21589000Y900000D02*
X23200000Y900000D01*
X24230446Y6730446D02*
X24000000Y6500000D01*
X25900000Y7400000D02*
X25846892Y7400000D01*
X22800000Y7400000D02*
X21900000Y7400000D01*
X22669499Y2610000D02*
X23250500Y1130000D01*
X23611436Y900000D02*
X23025718Y1485718D01*
X22618999Y5118999D02*
X22618999Y3680000D01*
X22618999Y2790000D02*
X23200000Y900000D01*
X25846892Y7400005D02*
G75*
G03*
X24230446Y6730446I8J-2286005D01*
G01*
D18*
%TO.N,/ILIM*%
X17900000Y9900000D02*
X19400000Y9900000D01*
X15750000Y9900000D02*
X15750000Y12000000D01*
D20*
X19275000Y9900000D02*
X19400000Y9900000D01*
X18625000Y9250000D02*
X16400000Y9250000D01*
X18625000Y9250000D02*
X19600000Y9250000D01*
D18*
X20250000Y11400000D02*
X15750000Y11400000D01*
X20250000Y10950000D02*
X15750000Y10950000D01*
X15750000Y12000000D02*
X20250000Y12000000D01*
D20*
X18625000Y9250000D02*
X17975000Y9900000D01*
D18*
X19400000Y9900000D02*
X20250000Y9900000D01*
X20250000Y10500000D02*
X15750000Y10500000D01*
D20*
X16400000Y9250000D02*
X15750000Y9900000D01*
X18625000Y9250000D02*
X19275000Y9900000D01*
D18*
X20250000Y12000000D02*
X20250000Y9900000D01*
X15750000Y9900000D02*
X17900000Y9900000D01*
D20*
X17975000Y9900000D02*
X17900000Y9900000D01*
X19600000Y9250000D02*
X20250000Y9900000D01*
D18*
%TO.N,+5VP*%
X24425024Y23055024D02*
X24080915Y23250915D01*
X22491999Y24839832D02*
X22491999Y27720000D01*
X22400000Y26500000D02*
X22400000Y26089144D01*
X23431831Y29100000D02*
X23000000Y29100000D01*
X18500000Y18500000D02*
X18500000Y21500000D01*
X19000000Y28100000D02*
X22000000Y28100000D01*
D21*
X26750000Y22500000D02*
X24080915Y23250915D01*
D18*
X20500000Y18500000D02*
X18500000Y18500000D01*
X22621770Y27720000D02*
X22400000Y26500000D01*
X22400000Y26500000D02*
X21700000Y27200000D01*
X22400000Y23500000D02*
X23400000Y22500000D01*
D22*
X22400000Y26900000D02*
X23218344Y24113487D01*
D18*
X22000000Y27200000D02*
X22000000Y29100000D01*
D20*
X23000000Y29100000D02*
X22400000Y26089144D01*
D18*
X18000000Y25000000D02*
X18000000Y26000000D01*
X23218344Y24113487D02*
X24080915Y23250915D01*
D22*
X23218343Y28886512D02*
X22400000Y26089144D01*
D18*
X21400000Y27200000D02*
X22000000Y27200000D01*
D20*
X22400000Y26089144D02*
X23400000Y23500000D01*
D18*
X25750000Y22500000D02*
X25400000Y22500000D01*
X22400000Y26910856D02*
X22621770Y27720000D01*
X22400000Y23500000D02*
X22400000Y25500000D01*
X26750000Y21500000D02*
X25750000Y22500000D01*
X22400000Y24500000D02*
X24400000Y22500000D01*
X24781878Y22851878D02*
X24425024Y23055024D01*
X19500000Y21500000D02*
X19500000Y18500000D01*
D23*
X26750000Y22500000D02*
X26750000Y18500000D01*
D18*
X18000000Y29100000D02*
X19000000Y29100000D01*
X22400000Y25500000D02*
X22400000Y26900000D01*
X19000000Y29100000D02*
X23000000Y29100000D01*
X22000000Y28100000D02*
X23000000Y29100000D01*
X18000000Y26000000D02*
X18000000Y26200000D01*
X18000000Y26000000D02*
X18000000Y29100000D01*
X19000000Y29100000D02*
X19000000Y27200000D01*
X23431831Y29100000D02*
X23218343Y28886512D01*
X18000000Y26200000D02*
X19000000Y27200000D01*
X23218344Y24113487D02*
X22491999Y24839832D01*
X22400000Y25500000D02*
X22400000Y24500000D01*
X25400000Y22500000D02*
X24781878Y22851878D01*
X24080915Y23250915D02*
X24831831Y22500000D01*
X23408001Y22491999D02*
X26750000Y22491999D01*
X22400000Y28500000D02*
X23000000Y29100000D01*
X25750000Y22500000D02*
X24781878Y22851878D01*
X20500000Y21500000D02*
X20500000Y18500000D01*
X21700000Y27200000D02*
X21400000Y27200000D01*
D22*
X22400000Y26900000D02*
X23400000Y23500000D01*
D18*
X24831831Y22500000D02*
X25400000Y22500000D01*
X19000000Y27200000D02*
X21400000Y27200000D01*
X18500000Y21500000D02*
X20500000Y21500000D01*
D22*
X24080915Y23250915D02*
X22695199Y25330000D01*
D18*
X22400000Y26910856D02*
X22400000Y26900000D01*
X23400000Y22500000D02*
X23408001Y22491999D01*
X22621770Y27720000D02*
X23218343Y28886512D01*
D23*
X26750000Y22500000D02*
X24831831Y22500000D01*
D18*
X22621770Y27720000D02*
X23000000Y29100000D01*
X22400000Y26900000D02*
X22400000Y28500000D01*
X22400031Y26089144D02*
G75*
G03*
X23218344Y24113487I2793969J-44D01*
G01*
X23218321Y28886534D02*
G75*
G03*
X22400000Y26910856I1975679J-1975634D01*
G01*
%TO.N,Spare1*%
X12784000Y25500000D02*
X12784000Y24516000D01*
X11784000Y25500000D02*
X12784000Y25500000D01*
X12784869Y24515131D02*
X11815131Y24515131D01*
X11815131Y24515131D02*
X11815131Y25468869D01*
X12784000Y24516000D02*
G75*
G03*
X12800000Y24500000I16000J0D01*
G01*
X11815100Y25468869D02*
G75*
G03*
X11784000Y25500000I-31100J31D01*
G01*
X12800031Y24500000D02*
G75*
G03*
X12784869Y24515131I-15131J0D01*
G01*
%TO.N,Spare2*%
X9600000Y28300000D02*
X9600000Y29111000D01*
X9600000Y29111000D02*
X11200000Y29111000D01*
X11200000Y28300000D02*
X9600000Y28300000D01*
X11200000Y29111000D02*
X11200000Y28300000D01*
%TD*%
%TA.AperFunction,Conductor*%
%TO.N,GND*%
G36*
X17127892Y29598498D02*
G01*
X17174385Y29544842D01*
X17184489Y29474568D01*
X17179604Y29453566D01*
X17174492Y29437832D01*
X17170481Y29425488D01*
X17165757Y29413183D01*
X17149374Y29376385D01*
X17149373Y29376383D01*
X17140999Y29336985D01*
X17137586Y29324247D01*
X17125145Y29285961D01*
X17125144Y29285955D01*
X17120934Y29245903D01*
X17118872Y29232882D01*
X17110500Y29193492D01*
X17110500Y26226594D01*
X17110327Y26220000D01*
X17106825Y26153193D01*
X17108949Y26139788D01*
X17110500Y26120076D01*
X17110500Y24953377D01*
X17125146Y24814039D01*
X17182922Y24636221D01*
X17182928Y24636209D01*
X17276410Y24474291D01*
X17276414Y24474285D01*
X17401527Y24335333D01*
X17552795Y24225430D01*
X17552797Y24225429D01*
X17552800Y24225427D01*
X17723615Y24149375D01*
X17867634Y24118764D01*
X17906509Y24110500D01*
X17906510Y24110500D01*
X18093491Y24110500D01*
X18125551Y24117315D01*
X18276385Y24149375D01*
X18447200Y24225427D01*
X18598470Y24335331D01*
X18620156Y24359415D01*
X18723585Y24474285D01*
X18723589Y24474291D01*
X18782157Y24575735D01*
X18817075Y24636215D01*
X18874855Y24814044D01*
X18889500Y24953380D01*
X18889500Y25779367D01*
X18909502Y25847488D01*
X18926405Y25868462D01*
X19331538Y26273595D01*
X19393850Y26307621D01*
X19420633Y26310500D01*
X21279367Y26310500D01*
X21347488Y26290498D01*
X21368462Y26273595D01*
X21473595Y26168462D01*
X21507621Y26106150D01*
X21510500Y26079367D01*
X21510500Y24579926D01*
X21508949Y24560216D01*
X21506825Y24546810D01*
X21510327Y24480002D01*
X21510500Y24473407D01*
X21510500Y23579926D01*
X21508949Y23560216D01*
X21506825Y23546810D01*
X21510327Y23480002D01*
X21510500Y23473407D01*
X21510500Y23453377D01*
X21512593Y23433466D01*
X21513110Y23426888D01*
X21516610Y23360092D01*
X21516611Y23360081D01*
X21520125Y23346967D01*
X21523726Y23327537D01*
X21525144Y23314043D01*
X21545818Y23250418D01*
X21547691Y23244094D01*
X21565006Y23179476D01*
X21571165Y23167387D01*
X21578729Y23149128D01*
X21582925Y23136215D01*
X21616385Y23078261D01*
X21619523Y23072480D01*
X21649891Y23012877D01*
X21658430Y23002333D01*
X21669629Y22986039D01*
X21676415Y22974285D01*
X21721182Y22924566D01*
X21725465Y22919551D01*
X21738064Y22903993D01*
X21738069Y22903987D01*
X21752210Y22889846D01*
X21756751Y22885062D01*
X21801530Y22835331D01*
X21812509Y22827354D01*
X21827545Y22814512D01*
X22722510Y21919547D01*
X22735349Y21904516D01*
X22743332Y21893529D01*
X22776360Y21863790D01*
X22793051Y21848762D01*
X22797820Y21844237D01*
X22811995Y21830062D01*
X22827562Y21817456D01*
X22832553Y21813193D01*
X22882286Y21768414D01*
X22891852Y21762892D01*
X22894035Y21761631D01*
X22910334Y21750429D01*
X22920876Y21741892D01*
X22980510Y21711507D01*
X22986249Y21708391D01*
X23044216Y21674924D01*
X23057119Y21670732D01*
X23075380Y21663169D01*
X23087476Y21657005D01*
X23087478Y21657005D01*
X23087479Y21657004D01*
X23152091Y21639692D01*
X23158419Y21637818D01*
X23222045Y21617144D01*
X23230041Y21616304D01*
X23235542Y21615725D01*
X23254975Y21612124D01*
X23268086Y21608611D01*
X23334889Y21605111D01*
X23341452Y21604595D01*
X23361381Y21602499D01*
X23381415Y21602499D01*
X23388007Y21602327D01*
X23410497Y21601148D01*
X23454809Y21598825D01*
X23454809Y21598826D01*
X23454811Y21598825D01*
X23464575Y21600372D01*
X23468216Y21600948D01*
X23487926Y21602499D01*
X25337368Y21602499D01*
X25405489Y21582497D01*
X25426463Y21565594D01*
X25836295Y21155762D01*
X25870321Y21093450D01*
X25873200Y21066667D01*
X25873200Y20597525D01*
X25872510Y20584355D01*
X25863644Y20500001D01*
X25872510Y20415646D01*
X25873200Y20402476D01*
X25873200Y19597525D01*
X25872510Y19584355D01*
X25863644Y19500001D01*
X25872510Y19415646D01*
X25873200Y19402476D01*
X25873200Y18597525D01*
X25872510Y18584355D01*
X25863644Y18500001D01*
X25883012Y18315717D01*
X25911373Y18228434D01*
X25940274Y18139487D01*
X25942163Y18136215D01*
X26032921Y17979016D01*
X26032926Y17979008D01*
X26156909Y17841311D01*
X26156912Y17841309D01*
X26306822Y17732393D01*
X26476101Y17657025D01*
X26657350Y17618500D01*
X26657351Y17618500D01*
X26842650Y17618500D01*
X26948534Y17641006D01*
X27023899Y17657025D01*
X27193178Y17732393D01*
X27242846Y17768481D01*
X27246954Y17771341D01*
X27247219Y17771519D01*
X27249289Y17773161D01*
X27343088Y17841309D01*
X27384167Y17886934D01*
X27386301Y17889242D01*
X27390302Y17893467D01*
X27390306Y17893470D01*
X27390309Y17893475D01*
X27391580Y17894816D01*
X27395170Y17899153D01*
X27467077Y17979013D01*
X27500167Y18036331D01*
X27502219Y18039413D01*
X27502191Y18039429D01*
X27506492Y18046577D01*
X27510084Y18053507D01*
X27559726Y18139487D01*
X27582001Y18208046D01*
X27584235Y18213738D01*
X27585796Y18218375D01*
X27585802Y18218386D01*
X27585804Y18218399D01*
X27586291Y18219842D01*
X27588626Y18228434D01*
X27616987Y18315716D01*
X27619031Y18335159D01*
X27621711Y18360662D01*
X27625170Y18393576D01*
X27626462Y18401541D01*
X27627019Y18406657D01*
X27627490Y18415646D01*
X27636356Y18500000D01*
X27627489Y18584356D01*
X27626800Y18597525D01*
X27626800Y19402476D01*
X27627490Y19415646D01*
X27636356Y19500000D01*
X27627489Y19584356D01*
X27626800Y19597525D01*
X27626800Y20402476D01*
X27627490Y20415646D01*
X27633623Y20474000D01*
X27636356Y20500000D01*
X27627489Y20584356D01*
X27626800Y20597525D01*
X27626800Y21339891D01*
X27628351Y21359602D01*
X27630009Y21370072D01*
X27643174Y21453190D01*
X27642881Y21458774D01*
X27634711Y21614689D01*
X27633389Y21639915D01*
X27632477Y21643318D01*
X27631094Y21648481D01*
X27626800Y21681094D01*
X27626800Y22325515D01*
X27629553Y22351712D01*
X27639500Y22398509D01*
X27639500Y22585490D01*
X27631236Y22624365D01*
X27600625Y22768384D01*
X27562732Y22853493D01*
X27561988Y22855430D01*
X27559728Y22860507D01*
X27559726Y22860513D01*
X27559722Y22860520D01*
X27557465Y22865590D01*
X27556521Y22867442D01*
X27548676Y22885062D01*
X27524573Y22939199D01*
X27524571Y22939202D01*
X27524570Y22939204D01*
X27503341Y22968423D01*
X27479482Y23035290D01*
X27495561Y23104442D01*
X27546475Y23153923D01*
X27572127Y23164046D01*
X27584400Y23167393D01*
X27600986Y23171916D01*
X27948503Y23307798D01*
X28279607Y23479849D01*
X28590547Y23686119D01*
X28877801Y23924272D01*
X29138114Y24191609D01*
X29368535Y24485101D01*
X29385685Y24512510D01*
X29438774Y24559649D01*
X29508920Y24570603D01*
X29573853Y24541895D01*
X29612957Y24482638D01*
X29618500Y24445678D01*
X29618500Y5548984D01*
X29598498Y5480863D01*
X29544842Y5434370D01*
X29474568Y5424266D01*
X29409988Y5453760D01*
X29389394Y5476560D01*
X29334772Y5554323D01*
X29257232Y5664713D01*
X29257227Y5664719D01*
X29257222Y5664725D01*
X29011517Y5945527D01*
X29011515Y5945529D01*
X28737344Y6198630D01*
X28437828Y6421152D01*
X28437827Y6421154D01*
X28269813Y6520155D01*
X28116345Y6610585D01*
X27776554Y6764770D01*
X27670057Y6800001D01*
X27471613Y6865650D01*
X27413222Y6906035D01*
X27385934Y6971578D01*
X27398413Y7041469D01*
X27404504Y7052316D01*
X27408561Y7058773D01*
X27408562Y7058774D01*
X27466727Y7225000D01*
X27486445Y7400000D01*
X27466727Y7575000D01*
X27466727Y7575002D01*
X27465659Y7579681D01*
X27462500Y7607718D01*
X27462500Y7992286D01*
X27465659Y8020324D01*
X27466724Y8024992D01*
X27466727Y8025000D01*
X27486445Y8200000D01*
X27468067Y8363111D01*
X27466727Y8375002D01*
X27465659Y8379681D01*
X27462500Y8407718D01*
X27462500Y8792286D01*
X27465659Y8820324D01*
X27466724Y8824992D01*
X27466727Y8825000D01*
X27486445Y9000000D01*
X27466727Y9175000D01*
X27466727Y9175002D01*
X27465659Y9179681D01*
X27462500Y9207718D01*
X27462500Y9592286D01*
X27465659Y9620324D01*
X27466724Y9624992D01*
X27466727Y9625000D01*
X27486445Y9800000D01*
X27470720Y9939560D01*
X27466727Y9975002D01*
X27465659Y9979681D01*
X27462500Y10007718D01*
X27462500Y10392286D01*
X27465659Y10420324D01*
X27466724Y10424992D01*
X27466727Y10425000D01*
X27486445Y10600000D01*
X27466727Y10775000D01*
X27408562Y10941226D01*
X27314867Y11090340D01*
X27314863Y11090344D01*
X27314863Y11090345D01*
X27190344Y11214864D01*
X27190341Y11214866D01*
X27190340Y11214867D01*
X27052370Y11301560D01*
X27041225Y11308563D01*
X26922614Y11350066D01*
X26875000Y11366727D01*
X26700000Y11386445D01*
X26525000Y11366727D01*
X26524997Y11366727D01*
X26524997Y11366726D01*
X26358774Y11308563D01*
X26258467Y11245535D01*
X26209660Y11214867D01*
X26209658Y11214866D01*
X26209656Y11214864D01*
X26209655Y11214864D01*
X26085136Y11090345D01*
X26085136Y11090344D01*
X25991437Y10941226D01*
X25933274Y10775003D01*
X25933273Y10775000D01*
X25913555Y10600000D01*
X25933273Y10425000D01*
X25934341Y10420324D01*
X25937500Y10392286D01*
X25937500Y10007718D01*
X25934341Y9979681D01*
X25933272Y9975002D01*
X25913555Y9800001D01*
X25933273Y9625000D01*
X25934341Y9620324D01*
X25937500Y9592286D01*
X25937500Y9207718D01*
X25934341Y9179681D01*
X25933272Y9175002D01*
X25913555Y9000001D01*
X25933273Y8825000D01*
X25934341Y8820324D01*
X25937500Y8792286D01*
X25937500Y8568028D01*
X25917498Y8499907D01*
X25900595Y8478933D01*
X25621067Y8199405D01*
X25558755Y8165379D01*
X25531972Y8162500D01*
X22825856Y8162500D01*
X22818530Y8162713D01*
X22807141Y8163377D01*
X22755367Y8166392D01*
X22755362Y8166392D01*
X22749708Y8165396D01*
X22744144Y8164414D01*
X22722267Y8162500D01*
X22168028Y8162500D01*
X22099907Y8182502D01*
X22078933Y8199405D01*
X21470333Y8808005D01*
X21452741Y8830064D01*
X21414867Y8890341D01*
X21290344Y9014864D01*
X21290341Y9014866D01*
X21290340Y9014867D01*
X21141226Y9108562D01*
X21141225Y9108563D01*
X21141224Y9108563D01*
X21135961Y9110405D01*
X21078271Y9151786D01*
X21052112Y9217788D01*
X21065789Y9287455D01*
X21080177Y9309258D01*
X21099278Y9332531D01*
X21193667Y9509120D01*
X21251792Y9700731D01*
X21266500Y9850066D01*
X21271418Y9900000D01*
X21267107Y9943773D01*
X21266500Y9956123D01*
X21266500Y10443879D01*
X21267107Y10456230D01*
X21271418Y10499999D01*
X21271418Y10500003D01*
X21267107Y10543773D01*
X21266500Y10556123D01*
X21266500Y10893879D01*
X21267107Y10906230D01*
X21271418Y10949999D01*
X21271418Y10950003D01*
X21267107Y10993773D01*
X21266500Y11006123D01*
X21266500Y11343879D01*
X21267107Y11356230D01*
X21271418Y11399999D01*
X21271418Y11400003D01*
X21267107Y11443773D01*
X21266500Y11456123D01*
X21266500Y11943879D01*
X21267107Y11956230D01*
X21271418Y11999998D01*
X21271418Y12000005D01*
X21251793Y12199262D01*
X21251793Y12199264D01*
X21251792Y12199267D01*
X21251792Y12199269D01*
X21193667Y12390880D01*
X21189468Y12398735D01*
X21099279Y12567467D01*
X21099278Y12567469D01*
X20972252Y12722252D01*
X20817469Y12849278D01*
X20817467Y12849279D01*
X20817466Y12849280D01*
X20640883Y12943666D01*
X20640877Y12943668D01*
X20543698Y12973147D01*
X20449269Y13001792D01*
X20449266Y13001793D01*
X20449261Y13001794D01*
X20299935Y13016500D01*
X20299934Y13016500D01*
X20283289Y13018140D01*
X20250002Y13021418D01*
X20249998Y13021418D01*
X20220205Y13018484D01*
X20206228Y13017107D01*
X20193879Y13016500D01*
X15806121Y13016500D01*
X15793771Y13017107D01*
X15779794Y13018484D01*
X15750002Y13021418D01*
X15749998Y13021418D01*
X15716710Y13018140D01*
X15700066Y13016500D01*
X15700065Y13016500D01*
X15550739Y13001794D01*
X15550736Y13001794D01*
X15359122Y12943668D01*
X15359116Y12943666D01*
X15182533Y12849280D01*
X15027748Y12722252D01*
X14900720Y12567467D01*
X14806334Y12390884D01*
X14806332Y12390878D01*
X14748206Y12199264D01*
X14748206Y12199262D01*
X14728582Y12000004D01*
X14728582Y11999999D01*
X14732893Y11956230D01*
X14733500Y11943879D01*
X14733500Y11456123D01*
X14732893Y11443773D01*
X14728582Y11400003D01*
X14728582Y11399999D01*
X14732893Y11356230D01*
X14733500Y11343879D01*
X14733500Y11006123D01*
X14732893Y10993773D01*
X14728582Y10950003D01*
X14728582Y10949999D01*
X14732893Y10906230D01*
X14733500Y10893879D01*
X14733500Y10556123D01*
X14732893Y10543773D01*
X14728582Y10500003D01*
X14728582Y10499999D01*
X14732893Y10456230D01*
X14733500Y10443879D01*
X14733500Y9956123D01*
X14732893Y9943773D01*
X14728582Y9900003D01*
X14728582Y9899999D01*
X14733500Y9850067D01*
X14733500Y9850065D01*
X14748206Y9700740D01*
X14748206Y9700737D01*
X14806332Y9509123D01*
X14806334Y9509117D01*
X14900720Y9332534D01*
X14900722Y9332531D01*
X15027748Y9177748D01*
X15182531Y9050722D01*
X15359120Y8956333D01*
X15438880Y8932138D01*
X15491397Y8900660D01*
X15714509Y8677548D01*
X15727348Y8662517D01*
X15735331Y8651530D01*
X15735332Y8651529D01*
X15735333Y8651528D01*
X15785050Y8606763D01*
X15789819Y8602238D01*
X15803992Y8588065D01*
X15819561Y8575457D01*
X15824552Y8571194D01*
X15874285Y8526415D01*
X15883851Y8520893D01*
X15886034Y8519632D01*
X15902333Y8508430D01*
X15912872Y8499895D01*
X15912877Y8499892D01*
X15972469Y8469529D01*
X15978267Y8466381D01*
X16019955Y8442313D01*
X16036215Y8432925D01*
X16049126Y8428730D01*
X16067379Y8421170D01*
X16079476Y8415006D01*
X16144109Y8397688D01*
X16150394Y8395827D01*
X16214044Y8375145D01*
X16227530Y8373728D01*
X16246969Y8370126D01*
X16260085Y8366611D01*
X16260091Y8366611D01*
X16260094Y8366610D01*
X16326890Y8363111D01*
X16333471Y8362594D01*
X16353380Y8360500D01*
X16373407Y8360500D01*
X16380000Y8360328D01*
X16397052Y8359434D01*
X16446808Y8356826D01*
X16446808Y8356827D01*
X16446810Y8356826D01*
X16460214Y8358950D01*
X16479925Y8360500D01*
X18426881Y8360500D01*
X18453077Y8357747D01*
X18467636Y8354653D01*
X18529513Y8341500D01*
X18529516Y8341500D01*
X18720484Y8341500D01*
X18720487Y8341500D01*
X18782363Y8354653D01*
X18796923Y8357747D01*
X18823119Y8360500D01*
X19520075Y8360500D01*
X19539785Y8358950D01*
X19553190Y8356826D01*
X19619999Y8360328D01*
X19626593Y8360500D01*
X19646612Y8360500D01*
X19646620Y8360500D01*
X19666578Y8362599D01*
X19673041Y8363108D01*
X19739915Y8366611D01*
X19753020Y8370124D01*
X19772471Y8373728D01*
X19785956Y8375145D01*
X19785958Y8375146D01*
X19785960Y8375146D01*
X19849573Y8395816D01*
X19855885Y8397687D01*
X19867766Y8400870D01*
X19938742Y8399178D01*
X19997537Y8359382D01*
X20025482Y8294117D01*
X20025581Y8293271D01*
X20033273Y8224999D01*
X20034341Y8220324D01*
X20037500Y8192286D01*
X20037500Y7807718D01*
X20034341Y7779681D01*
X20033272Y7775002D01*
X20013555Y7600001D01*
X20013555Y7600000D01*
X20016372Y7575002D01*
X20033273Y7425000D01*
X20034341Y7420324D01*
X20037500Y7392286D01*
X20037500Y7007718D01*
X20034341Y6979681D01*
X20033272Y6975002D01*
X20020952Y6865650D01*
X20013555Y6800000D01*
X20033273Y6625000D01*
X20051646Y6572491D01*
X20091437Y6458775D01*
X20091438Y6458774D01*
X20185133Y6309660D01*
X20185136Y6309657D01*
X20185136Y6309656D01*
X20309657Y6185135D01*
X20309659Y6185134D01*
X20309660Y6185133D01*
X20369936Y6147259D01*
X20391995Y6129668D01*
X20781350Y5740312D01*
X20815375Y5678000D01*
X20817462Y5665325D01*
X20833273Y5525000D01*
X20834341Y5520324D01*
X20837500Y5492286D01*
X20837500Y5107718D01*
X20834341Y5079681D01*
X20833272Y5075002D01*
X20813555Y4900001D01*
X20833273Y4725000D01*
X20834341Y4720324D01*
X20837500Y4692286D01*
X20837500Y4307718D01*
X20834341Y4279681D01*
X20833272Y4275002D01*
X20813555Y4100001D01*
X20833273Y3925000D01*
X20834341Y3920324D01*
X20837500Y3892286D01*
X20837500Y3507718D01*
X20834341Y3479681D01*
X20833272Y3475002D01*
X20813555Y3300001D01*
X20833273Y3125000D01*
X20834341Y3120324D01*
X20837500Y3092286D01*
X20837500Y2739926D01*
X20830430Y2698314D01*
X20822274Y2675005D01*
X20822274Y2675004D01*
X20822273Y2675000D01*
X20802555Y2500000D01*
X20822273Y2325000D01*
X20822274Y2324998D01*
X20830429Y2301692D01*
X20837500Y2260077D01*
X20837500Y1939926D01*
X20830430Y1898314D01*
X20822274Y1875005D01*
X20822274Y1875004D01*
X20822273Y1875000D01*
X20802555Y1700000D01*
X20822273Y1525000D01*
X20830429Y1501692D01*
X20837500Y1460077D01*
X20837500Y1139926D01*
X20830430Y1098314D01*
X20822274Y1075005D01*
X20822274Y1075004D01*
X20822273Y1075000D01*
X20802555Y900000D01*
X20822273Y725000D01*
X20822274Y724998D01*
X20882775Y552095D01*
X20880588Y551330D01*
X20890338Y492113D01*
X20862167Y426945D01*
X20803235Y387352D01*
X20765281Y381500D01*
X5549220Y381500D01*
X5481099Y401502D01*
X5434606Y455158D01*
X5424502Y525432D01*
X5453996Y590012D01*
X5479565Y612497D01*
X5590547Y686119D01*
X5877801Y924272D01*
X6138114Y1191609D01*
X6368535Y1485101D01*
X6566455Y1801422D01*
X6729631Y2136989D01*
X6856213Y2487999D01*
X6944769Y2850476D01*
X6994294Y3220312D01*
X7004227Y3593317D01*
X6974457Y3965260D01*
X6949051Y4100001D01*
X6905317Y4331941D01*
X6875226Y4431735D01*
X6797600Y4689181D01*
X6797596Y4689190D01*
X6796289Y4692286D01*
X6652511Y5032967D01*
X6471707Y5359374D01*
X6257232Y5664713D01*
X6257227Y5664719D01*
X6257222Y5664725D01*
X6011517Y5945527D01*
X6011515Y5945529D01*
X5737344Y6198630D01*
X5437828Y6421152D01*
X5437827Y6421154D01*
X5269813Y6520155D01*
X5116345Y6610585D01*
X4776554Y6764770D01*
X4422298Y6881964D01*
X4422297Y6881965D01*
X4422288Y6881967D01*
X4057585Y6960841D01*
X3686581Y7000501D01*
X3686569Y7000501D01*
X3406787Y7000501D01*
X3406781Y7000501D01*
X3406753Y7000500D01*
X3127403Y6985612D01*
X3127385Y6985610D01*
X2759000Y6926257D01*
X2399012Y6828084D01*
X2399009Y6828083D01*
X2051514Y6692209D01*
X2051507Y6692207D01*
X2051497Y6692202D01*
X2051488Y6692198D01*
X2051485Y6692196D01*
X1720399Y6520155D01*
X1720396Y6520153D01*
X1409452Y6313881D01*
X1409445Y6313876D01*
X1122202Y6075732D01*
X861883Y5808388D01*
X631464Y5514899D01*
X631461Y5514895D01*
X614314Y5487489D01*
X561225Y5440351D01*
X491078Y5429398D01*
X426145Y5458108D01*
X387042Y5517365D01*
X381500Y5554323D01*
X381500Y12500000D01*
X1474647Y12500000D01*
X1494022Y12278537D01*
X1515264Y12199262D01*
X1551559Y12063807D01*
X1551561Y12063801D01*
X1645511Y11862325D01*
X1645512Y11862323D01*
X1773016Y11680228D01*
X1773020Y11680223D01*
X1773023Y11680219D01*
X1930219Y11523023D01*
X1930223Y11523020D01*
X1930227Y11523017D01*
X1974473Y11492036D01*
X2112323Y11395512D01*
X2313804Y11301560D01*
X2528537Y11244022D01*
X2750000Y11224647D01*
X2971463Y11244022D01*
X3186196Y11301560D01*
X3387677Y11395512D01*
X3569781Y11523023D01*
X3726977Y11680219D01*
X3854488Y11862323D01*
X3855736Y11865000D01*
X6480000Y11865000D01*
X6480000Y11689403D01*
X6486505Y11628907D01*
X6537555Y11492036D01*
X6537555Y11492035D01*
X6625095Y11375096D01*
X6742034Y11287556D01*
X6878906Y11236506D01*
X6939402Y11230001D01*
X6939415Y11230000D01*
X7115000Y11230000D01*
X7115000Y11865000D01*
X8385000Y11865000D01*
X8385000Y11230000D01*
X8560585Y11230000D01*
X8560597Y11230001D01*
X8621093Y11236506D01*
X8757964Y11287556D01*
X8757965Y11287556D01*
X8874904Y11375096D01*
X8962444Y11492035D01*
X8962444Y11492036D01*
X9013494Y11628907D01*
X9019999Y11689403D01*
X9020000Y11689415D01*
X9020000Y11865000D01*
X8385000Y11865000D01*
X7115000Y11865000D01*
X6480000Y11865000D01*
X3855736Y11865000D01*
X3948440Y12063804D01*
X4005978Y12278537D01*
X4025353Y12500000D01*
X4022378Y12534008D01*
X7296190Y12534008D01*
X7306327Y12398735D01*
X7355887Y12272459D01*
X7440465Y12166401D01*
X7552547Y12089984D01*
X7682173Y12050000D01*
X7783724Y12050000D01*
X7884138Y12065135D01*
X8006357Y12123993D01*
X8105798Y12216260D01*
X8173625Y12333740D01*
X8203810Y12465992D01*
X8193673Y12601265D01*
X8144113Y12727541D01*
X8059535Y12833599D01*
X7947453Y12910016D01*
X7817827Y12950000D01*
X7716276Y12950000D01*
X7615862Y12934865D01*
X7493643Y12876007D01*
X7394202Y12783740D01*
X7326375Y12666260D01*
X7296190Y12534008D01*
X4022378Y12534008D01*
X4005978Y12721463D01*
X3948440Y12936196D01*
X3855736Y13135000D01*
X6480000Y13135000D01*
X7115000Y13135000D01*
X8385000Y13135000D01*
X8631129Y13135000D01*
X8699250Y13114998D01*
X8745743Y13061342D01*
X8750961Y13047939D01*
X8775263Y12973148D01*
X8775264Y12973147D01*
X8775266Y12973143D01*
X8867910Y12812677D01*
X8867915Y12812669D01*
X8991898Y12674972D01*
X8991901Y12674970D01*
X9141811Y12566054D01*
X9311090Y12490686D01*
X9492339Y12452161D01*
X9492340Y12452161D01*
X9677639Y12452161D01*
X9768263Y12471424D01*
X9858888Y12490686D01*
X10028167Y12566054D01*
X10178077Y12674970D01*
X10219938Y12721461D01*
X10302062Y12812669D01*
X10302063Y12812671D01*
X10302066Y12812674D01*
X10394715Y12973148D01*
X10451976Y13149377D01*
X10471345Y13333661D01*
X10451976Y13517945D01*
X10394715Y13694174D01*
X10302066Y13854648D01*
X10302065Y13854649D01*
X10302062Y13854654D01*
X10178079Y13992351D01*
X10028167Y14101268D01*
X9858887Y14176637D01*
X9677639Y14215161D01*
X9677638Y14215161D01*
X9492340Y14215161D01*
X9492339Y14215161D01*
X9311090Y14176637D01*
X9141810Y14101268D01*
X8991898Y13992351D01*
X8867917Y13854656D01*
X8867913Y13854649D01*
X8834167Y13796200D01*
X8782784Y13747207D01*
X8713070Y13733772D01*
X8681016Y13741145D01*
X8621094Y13763495D01*
X8560597Y13770000D01*
X8385000Y13770000D01*
X8385000Y13135000D01*
X7115000Y13135000D01*
X7115000Y13770000D01*
X6939402Y13770000D01*
X6878906Y13763495D01*
X6742035Y13712445D01*
X6742034Y13712445D01*
X6625095Y13624905D01*
X6537555Y13507966D01*
X6537555Y13507965D01*
X6486505Y13371094D01*
X6480000Y13310598D01*
X6480000Y13135000D01*
X3855736Y13135000D01*
X3854488Y13137676D01*
X3726977Y13319781D01*
X3569781Y13476977D01*
X3569777Y13476980D01*
X3569772Y13476984D01*
X3387677Y13604488D01*
X3387675Y13604489D01*
X3186199Y13698439D01*
X3186193Y13698441D01*
X3133929Y13712445D01*
X2971463Y13755978D01*
X2750000Y13775353D01*
X2528537Y13755978D01*
X2445664Y13733772D01*
X2313806Y13698441D01*
X2313801Y13698439D01*
X2112323Y13604488D01*
X1930222Y13476980D01*
X1930216Y13476975D01*
X1773025Y13319784D01*
X1773020Y13319778D01*
X1645512Y13137677D01*
X1555043Y12943666D01*
X1551560Y12936196D01*
X1494022Y12721463D01*
X1474647Y12500000D01*
X381500Y12500000D01*
X381500Y14615000D01*
X12130000Y14615000D01*
X12130000Y14439403D01*
X12136505Y14378907D01*
X12187555Y14242036D01*
X12187555Y14242035D01*
X12275095Y14125096D01*
X12392034Y14037556D01*
X12528906Y13986506D01*
X12589402Y13980001D01*
X12589415Y13980000D01*
X12765000Y13980000D01*
X12765000Y14615000D01*
X14035000Y14615000D01*
X14035000Y13980000D01*
X14210585Y13980000D01*
X14210597Y13980001D01*
X14271093Y13986506D01*
X14407964Y14037556D01*
X14407965Y14037556D01*
X14524904Y14125096D01*
X14612444Y14242035D01*
X14612444Y14242036D01*
X14663494Y14378907D01*
X14669999Y14439403D01*
X14670000Y14439415D01*
X14670000Y14615000D01*
X14035000Y14615000D01*
X12765000Y14615000D01*
X12130000Y14615000D01*
X381500Y14615000D01*
X381500Y15284008D01*
X12946190Y15284008D01*
X12956327Y15148735D01*
X13005887Y15022459D01*
X13090465Y14916401D01*
X13202547Y14839984D01*
X13332173Y14800000D01*
X13433724Y14800000D01*
X13534138Y14815135D01*
X13656357Y14873993D01*
X13755798Y14966260D01*
X13804145Y15050000D01*
X16488644Y15050000D01*
X16508012Y14865717D01*
X16524448Y14815135D01*
X16565274Y14689487D01*
X16565277Y14689482D01*
X16657921Y14529016D01*
X16657926Y14529008D01*
X16781909Y14391311D01*
X16781912Y14391309D01*
X16931822Y14282393D01*
X17082827Y14215161D01*
X17101101Y14207025D01*
X17282350Y14168500D01*
X17282351Y14168500D01*
X17467650Y14168500D01*
X17558274Y14187763D01*
X17648899Y14207025D01*
X17818178Y14282393D01*
X17968088Y14391309D01*
X18011403Y14439415D01*
X18092073Y14529008D01*
X18092074Y14529010D01*
X18092077Y14529013D01*
X18184726Y14689487D01*
X18241987Y14865716D01*
X18261356Y15050000D01*
X18241987Y15234284D01*
X18184726Y15410513D01*
X18092077Y15570987D01*
X18092076Y15570988D01*
X18092073Y15570993D01*
X17968090Y15708690D01*
X17818178Y15817607D01*
X17648898Y15892976D01*
X17467650Y15931500D01*
X17467649Y15931500D01*
X17282351Y15931500D01*
X17282350Y15931500D01*
X17101101Y15892976D01*
X16931821Y15817607D01*
X16781909Y15708690D01*
X16657926Y15570993D01*
X16657921Y15570985D01*
X16565277Y15410519D01*
X16565274Y15410512D01*
X16508012Y15234284D01*
X16488644Y15050000D01*
X13804145Y15050000D01*
X13823625Y15083740D01*
X13853810Y15215992D01*
X13843673Y15351265D01*
X13794113Y15477541D01*
X13709535Y15583599D01*
X13597453Y15660016D01*
X13467827Y15700000D01*
X13366276Y15700000D01*
X13265862Y15684865D01*
X13143643Y15626007D01*
X13044202Y15533740D01*
X12976375Y15416260D01*
X12946190Y15284008D01*
X381500Y15284008D01*
X381500Y15885000D01*
X12130000Y15885000D01*
X12765000Y15885000D01*
X12765000Y16520000D01*
X14035000Y16520000D01*
X14035000Y15885000D01*
X14670000Y15885000D01*
X14670000Y16060586D01*
X14669999Y16060598D01*
X14663494Y16121094D01*
X14612444Y16257965D01*
X14612444Y16257966D01*
X14524904Y16374905D01*
X14407965Y16462445D01*
X14271093Y16513495D01*
X14210597Y16520000D01*
X14035000Y16520000D01*
X12765000Y16520000D01*
X12589402Y16520000D01*
X12528906Y16513495D01*
X12392035Y16462445D01*
X12392034Y16462445D01*
X12275095Y16374905D01*
X12187555Y16257966D01*
X12187555Y16257965D01*
X12136505Y16121094D01*
X12130000Y16060598D01*
X12130000Y15885000D01*
X381500Y15885000D01*
X381500Y17750000D01*
X8213605Y17750000D01*
X8233148Y17526620D01*
X8291184Y17310027D01*
X8385949Y17106802D01*
X8514564Y16923121D01*
X8673121Y16764564D01*
X8856802Y16635949D01*
X9060027Y16541184D01*
X9276620Y16483148D01*
X9500000Y16463605D01*
X9723380Y16483148D01*
X9939973Y16541184D01*
X10143198Y16635949D01*
X10326879Y16764564D01*
X10485436Y16923121D01*
X10614051Y17106802D01*
X10708816Y17310027D01*
X10766852Y17526620D01*
X10786395Y17750000D01*
X10766852Y17973380D01*
X10708816Y18189973D01*
X10614051Y18393197D01*
X10614050Y18393198D01*
X10614049Y18393201D01*
X10485442Y18576871D01*
X10485439Y18576875D01*
X10485436Y18576879D01*
X10326879Y18735436D01*
X10306085Y18749996D01*
X12251601Y18749996D01*
X12271154Y18538984D01*
X12323760Y18354092D01*
X12329150Y18335150D01*
X12423611Y18145446D01*
X12456920Y18101338D01*
X12551324Y17976327D01*
X12707933Y17833559D01*
X12888108Y17721999D01*
X12888110Y17721999D01*
X12888115Y17721995D01*
X13085726Y17645440D01*
X13294039Y17606500D01*
X13294041Y17606500D01*
X13505959Y17606500D01*
X13505961Y17606500D01*
X13714274Y17645440D01*
X13911885Y17721995D01*
X14092065Y17833558D01*
X14246439Y17974289D01*
X14248675Y17976327D01*
X14250700Y17979008D01*
X14376389Y18145446D01*
X14470850Y18335150D01*
X14491154Y18406510D01*
X17610500Y18406510D01*
X17618872Y18367120D01*
X17620934Y18354098D01*
X17625144Y18314045D01*
X17625146Y18314037D01*
X17637586Y18275751D01*
X17640999Y18263015D01*
X17649373Y18223619D01*
X17649373Y18223618D01*
X17665755Y18186826D01*
X17670479Y18174520D01*
X17670483Y18174509D01*
X17682924Y18136217D01*
X17682924Y18136216D01*
X17703061Y18101338D01*
X17709048Y18089588D01*
X17725426Y18052801D01*
X17749095Y18020223D01*
X17756276Y18009164D01*
X17776411Y17974290D01*
X17776411Y17974289D01*
X17803362Y17944358D01*
X17811659Y17934112D01*
X17835331Y17901530D01*
X17865266Y17874577D01*
X17874579Y17865263D01*
X17896147Y17841309D01*
X17901530Y17835331D01*
X17934110Y17811661D01*
X17944353Y17803367D01*
X17974285Y17776415D01*
X18009171Y17756274D01*
X18020205Y17749108D01*
X18052800Y17725427D01*
X18089595Y17709045D01*
X18101333Y17703064D01*
X18136215Y17682925D01*
X18174513Y17670482D01*
X18186815Y17665761D01*
X18223615Y17649375D01*
X18263021Y17641000D01*
X18275736Y17637593D01*
X18314044Y17625145D01*
X18351296Y17621231D01*
X18354095Y17620936D01*
X18367124Y17618873D01*
X18406510Y17610500D01*
X20593486Y17610500D01*
X20593490Y17610500D01*
X20632899Y17618878D01*
X20645897Y17620936D01*
X20670215Y17623491D01*
X20685950Y17625144D01*
X20685951Y17625145D01*
X20685956Y17625145D01*
X20724270Y17637595D01*
X20736975Y17641000D01*
X20776385Y17649375D01*
X20813189Y17665763D01*
X20825467Y17670476D01*
X20863785Y17682925D01*
X20898666Y17703065D01*
X20910394Y17709041D01*
X20947200Y17725427D01*
X20979792Y17749108D01*
X20990827Y17756273D01*
X21025715Y17776415D01*
X21055655Y17803375D01*
X21065874Y17811650D01*
X21098470Y17835331D01*
X21125424Y17865269D01*
X21134731Y17874576D01*
X21164669Y17901530D01*
X21188350Y17934126D01*
X21196625Y17944345D01*
X21223585Y17974285D01*
X21243727Y18009173D01*
X21250892Y18020208D01*
X21274573Y18052800D01*
X21290959Y18089606D01*
X21296938Y18101338D01*
X21317075Y18136215D01*
X21329524Y18174533D01*
X21334237Y18186811D01*
X21350625Y18223615D01*
X21359000Y18263025D01*
X21362405Y18275730D01*
X21374855Y18314044D01*
X21375032Y18315723D01*
X21377074Y18335159D01*
X21379064Y18354103D01*
X21381122Y18367101D01*
X21389500Y18406510D01*
X21389500Y18593490D01*
X21389500Y21546620D01*
X21389500Y21593490D01*
X21381127Y21632882D01*
X21379064Y21645905D01*
X21374855Y21685953D01*
X21374855Y21685956D01*
X21362407Y21724264D01*
X21358999Y21736985D01*
X21350625Y21776385D01*
X21334239Y21813185D01*
X21329518Y21825487D01*
X21317075Y21863785D01*
X21296936Y21898667D01*
X21290953Y21910409D01*
X21290008Y21912531D01*
X21274573Y21947200D01*
X21250892Y21979795D01*
X21243726Y21990829D01*
X21223585Y22025715D01*
X21196633Y22055648D01*
X21188336Y22065894D01*
X21188335Y22065895D01*
X21164669Y22098470D01*
X21134741Y22125417D01*
X21134737Y22125421D01*
X21125423Y22134734D01*
X21098470Y22164669D01*
X21065888Y22188341D01*
X21055642Y22196638D01*
X21047981Y22203536D01*
X21025715Y22223585D01*
X21025713Y22223586D01*
X21025710Y22223589D01*
X20990836Y22243724D01*
X20979777Y22250905D01*
X20947199Y22274574D01*
X20926502Y22283789D01*
X20910405Y22290956D01*
X20898662Y22296939D01*
X20863784Y22317076D01*
X20842981Y22323835D01*
X20825480Y22329521D01*
X20813174Y22334245D01*
X20776381Y22350627D01*
X20736985Y22359001D01*
X20724249Y22362414D01*
X20685963Y22374854D01*
X20685955Y22374856D01*
X20645902Y22379066D01*
X20632880Y22381128D01*
X20593491Y22389500D01*
X20593490Y22389500D01*
X20546620Y22389500D01*
X18593490Y22389500D01*
X18406510Y22389500D01*
X18406508Y22389500D01*
X18367118Y22381128D01*
X18354097Y22379066D01*
X18314045Y22374856D01*
X18314039Y22374855D01*
X18275753Y22362414D01*
X18263015Y22359001D01*
X18223617Y22350627D01*
X18223615Y22350626D01*
X18186817Y22334243D01*
X18174509Y22329518D01*
X18136214Y22317075D01*
X18136210Y22317074D01*
X18101339Y22296941D01*
X18089596Y22290958D01*
X18052803Y22274575D01*
X18052797Y22274571D01*
X18020213Y22250900D01*
X18009161Y22243723D01*
X17974291Y22223590D01*
X17974285Y22223586D01*
X17944352Y22196634D01*
X17934105Y22188337D01*
X17901529Y22164670D01*
X17874583Y22134742D01*
X17865258Y22125417D01*
X17835330Y22098471D01*
X17811663Y22065895D01*
X17803366Y22055648D01*
X17776414Y22025715D01*
X17776410Y22025709D01*
X17756277Y21990839D01*
X17749100Y21979787D01*
X17725429Y21947203D01*
X17725425Y21947197D01*
X17709042Y21910404D01*
X17703059Y21898661D01*
X17682926Y21863790D01*
X17682925Y21863786D01*
X17670482Y21825491D01*
X17665757Y21813183D01*
X17649374Y21776385D01*
X17649373Y21776383D01*
X17640999Y21736985D01*
X17637586Y21724247D01*
X17625145Y21685961D01*
X17625144Y21685955D01*
X17620934Y21645903D01*
X17618872Y21632882D01*
X17610500Y21593492D01*
X17610500Y18406510D01*
X14491154Y18406510D01*
X14528845Y18538982D01*
X14535363Y18609322D01*
X14548399Y18749996D01*
X14548399Y18750005D01*
X14528845Y18961017D01*
X14470852Y19164842D01*
X14470850Y19164850D01*
X14376389Y19354554D01*
X14248677Y19523671D01*
X14248675Y19523674D01*
X14092066Y19666442D01*
X13911891Y19778002D01*
X13911886Y19778004D01*
X13911885Y19778005D01*
X13714277Y19854559D01*
X13714278Y19854559D01*
X13714275Y19854560D01*
X13714274Y19854560D01*
X13505961Y19893500D01*
X13294039Y19893500D01*
X13085726Y19854560D01*
X13085721Y19854559D01*
X12888119Y19778007D01*
X12888108Y19778002D01*
X12707933Y19666442D01*
X12551324Y19523674D01*
X12423612Y19354556D01*
X12329150Y19164850D01*
X12329147Y19164842D01*
X12271154Y18961017D01*
X12251601Y18750005D01*
X12251601Y18749996D01*
X10306085Y18749996D01*
X10306079Y18750000D01*
X10143198Y18864051D01*
X9939976Y18958815D01*
X9939971Y18958817D01*
X9839450Y18985752D01*
X9723380Y19016852D01*
X9500000Y19036395D01*
X9276620Y19016852D01*
X9218585Y19001302D01*
X9060028Y18958817D01*
X9060024Y18958815D01*
X8856799Y18864050D01*
X8673129Y18735443D01*
X8673118Y18735434D01*
X8514566Y18576882D01*
X8514557Y18576871D01*
X8385950Y18393201D01*
X8291185Y18189976D01*
X8291183Y18189972D01*
X8250010Y18036311D01*
X8233148Y17973380D01*
X8213605Y17750000D01*
X381500Y17750000D01*
X381500Y20474000D01*
X401502Y20542121D01*
X455158Y20588614D01*
X507500Y20600000D01*
X2500000Y20600000D01*
X2500000Y21400000D01*
X507500Y21400000D01*
X439379Y21420002D01*
X392886Y21473658D01*
X381500Y21526000D01*
X381500Y21800000D01*
X9173555Y21800000D01*
X9193273Y21625000D01*
X9211646Y21572491D01*
X9251437Y21458775D01*
X9274861Y21421496D01*
X9345133Y21309660D01*
X9345136Y21309657D01*
X9345136Y21309656D01*
X9469655Y21185137D01*
X9469657Y21185136D01*
X9469660Y21185133D01*
X9618774Y21091438D01*
X9785000Y21033273D01*
X9960000Y21013555D01*
X10135000Y21033273D01*
X10301226Y21091438D01*
X10429144Y21171816D01*
X10497462Y21191120D01*
X10565375Y21170425D01*
X10605297Y21128127D01*
X10665958Y21023059D01*
X10665965Y21023049D01*
X10793744Y20881136D01*
X10793747Y20881134D01*
X10948248Y20768882D01*
X11122712Y20691206D01*
X11309513Y20651500D01*
X11500487Y20651500D01*
X11687288Y20691206D01*
X11861752Y20768882D01*
X12016253Y20881134D01*
X12016255Y20881136D01*
X12144034Y21023049D01*
X12144035Y21023051D01*
X12144040Y21023056D01*
X12239527Y21188444D01*
X12298542Y21370072D01*
X12318504Y21560000D01*
X12298542Y21749928D01*
X12239527Y21931556D01*
X12144040Y22096944D01*
X12144038Y22096946D01*
X12144034Y22096952D01*
X12016255Y22238865D01*
X11861752Y22351118D01*
X11687288Y22428794D01*
X11500487Y22468500D01*
X11309513Y22468500D01*
X11122711Y22428794D01*
X10948247Y22351118D01*
X10793743Y22238864D01*
X10788837Y22234446D01*
X10787538Y22235889D01*
X10734991Y22203536D01*
X10664008Y22204909D01*
X10605035Y22244440D01*
X10595150Y22258060D01*
X10574866Y22290341D01*
X10574863Y22290345D01*
X10450344Y22414864D01*
X10450341Y22414866D01*
X10450340Y22414867D01*
X10364984Y22468500D01*
X10301225Y22508563D01*
X10187509Y22548354D01*
X10135000Y22566727D01*
X9960000Y22586445D01*
X9785000Y22566727D01*
X9784997Y22566727D01*
X9784997Y22566726D01*
X9618774Y22508563D01*
X9518467Y22445535D01*
X9469660Y22414867D01*
X9469658Y22414866D01*
X9469656Y22414864D01*
X9469655Y22414864D01*
X9345136Y22290345D01*
X9345136Y22290344D01*
X9251437Y22141226D01*
X9221491Y22055643D01*
X9193273Y21975000D01*
X9173555Y21800000D01*
X381500Y21800000D01*
X381500Y24451017D01*
X401502Y24519138D01*
X455158Y24565631D01*
X525432Y24575735D01*
X590012Y24546241D01*
X610604Y24523443D01*
X742737Y24335331D01*
X742772Y24335282D01*
X742777Y24335276D01*
X988482Y24054474D01*
X988484Y24054472D01*
X1172278Y23884803D01*
X1262655Y23801371D01*
X1562171Y23578849D01*
X1562172Y23578847D01*
X1562176Y23578845D01*
X1562177Y23578844D01*
X1883655Y23389415D01*
X2223446Y23235230D01*
X2577702Y23118036D01*
X2942408Y23039161D01*
X2942410Y23039161D01*
X2942414Y23039160D01*
X3313418Y22999500D01*
X3313425Y22999500D01*
X3313431Y22999499D01*
X3313436Y22999499D01*
X3593206Y22999499D01*
X3593213Y22999499D01*
X3716123Y23006050D01*
X3872596Y23014389D01*
X3872601Y23014390D01*
X3872609Y23014390D01*
X4240995Y23073743D01*
X4247145Y23075420D01*
X4280969Y23084645D01*
X4600986Y23171916D01*
X4948503Y23307798D01*
X5279607Y23479849D01*
X5590547Y23686119D01*
X5877801Y23924272D01*
X6138114Y24191609D01*
X6368535Y24485101D01*
X6566455Y24801422D01*
X6729631Y25136989D01*
X6856213Y25487999D01*
X6859144Y25499997D01*
X10762582Y25499997D01*
X10772062Y25403733D01*
X10772131Y25403011D01*
X10780526Y25312419D01*
X10780644Y25311791D01*
X10782180Y25301009D01*
X10782206Y25300738D01*
X10782208Y25300729D01*
X10793205Y25264481D01*
X10798631Y25227903D01*
X10798631Y24571254D01*
X10798024Y24558904D01*
X10793713Y24515134D01*
X10793713Y24515130D01*
X10798631Y24465198D01*
X10798631Y24465196D01*
X10813337Y24315871D01*
X10813337Y24315868D01*
X10871463Y24124254D01*
X10871465Y24124248D01*
X10957874Y23962589D01*
X10965853Y23947662D01*
X11092879Y23792879D01*
X11247662Y23665853D01*
X11257692Y23660492D01*
X11410434Y23578849D01*
X11424251Y23571464D01*
X11615862Y23513339D01*
X11615866Y23513339D01*
X11615868Y23513338D01*
X11815128Y23493713D01*
X11815131Y23493713D01*
X11815133Y23493713D01*
X11844925Y23496648D01*
X11858902Y23498025D01*
X11871252Y23498631D01*
X12589488Y23498631D01*
X12606616Y23497044D01*
X12606618Y23497065D01*
X12612415Y23496528D01*
X12612418Y23496527D01*
X12656531Y23492440D01*
X12666762Y23491066D01*
X12709668Y23483500D01*
X12747172Y23483500D01*
X12758797Y23482963D01*
X12800000Y23479145D01*
X12841203Y23482963D01*
X12852828Y23483500D01*
X12894190Y23483500D01*
X12894193Y23483500D01*
X12934871Y23491105D01*
X12946370Y23492710D01*
X12987582Y23496527D01*
X13027379Y23507852D01*
X13038673Y23510509D01*
X13079370Y23518115D01*
X13117964Y23533068D01*
X13128974Y23536758D01*
X13168775Y23548081D01*
X13168775Y23548082D01*
X13168778Y23548082D01*
X13168780Y23548083D01*
X13205806Y23566521D01*
X13216449Y23571221D01*
X13255034Y23586168D01*
X13290216Y23607952D01*
X13300379Y23613614D01*
X13337411Y23632052D01*
X13370437Y23656993D01*
X13380026Y23663561D01*
X13415203Y23685340D01*
X13445791Y23713226D01*
X13454723Y23720642D01*
X13487746Y23745579D01*
X13515622Y23776159D01*
X13523841Y23784378D01*
X13554421Y23812254D01*
X13579358Y23845277D01*
X13586774Y23854209D01*
X13614660Y23884797D01*
X13636439Y23919974D01*
X13643007Y23929563D01*
X13667948Y23962589D01*
X13686386Y23999621D01*
X13692048Y24009784D01*
X13713830Y24044963D01*
X13713829Y24044963D01*
X13713832Y24044966D01*
X13728779Y24083551D01*
X13733479Y24094194D01*
X13751917Y24131220D01*
X13751918Y24131222D01*
X13751919Y24131225D01*
X13763242Y24171026D01*
X13766932Y24182036D01*
X13781885Y24220630D01*
X13789491Y24261327D01*
X13792148Y24272621D01*
X13803473Y24312418D01*
X13807290Y24353630D01*
X13808895Y24365129D01*
X13816500Y24405807D01*
X13816500Y24447172D01*
X13817037Y24458797D01*
X13817630Y24465198D01*
X13820855Y24500000D01*
X13817061Y24540932D01*
X13816524Y24552538D01*
X13816521Y24590373D01*
X13808921Y24633416D01*
X13807540Y24643684D01*
X13803473Y24687582D01*
X13803471Y24687589D01*
X13803471Y24687591D01*
X13802646Y24692008D01*
X13800500Y24715161D01*
X13800500Y25443879D01*
X13801107Y25456230D01*
X13805418Y25499999D01*
X13805418Y25500004D01*
X13785793Y25699262D01*
X13785793Y25699264D01*
X13785792Y25699267D01*
X13785792Y25699269D01*
X13727667Y25890880D01*
X13633278Y26067469D01*
X13506252Y26222252D01*
X13351469Y26349278D01*
X13351467Y26349279D01*
X13351466Y26349280D01*
X13174883Y26443666D01*
X13174877Y26443668D01*
X13109984Y26463353D01*
X12983269Y26501792D01*
X12983266Y26501793D01*
X12983261Y26501794D01*
X12833935Y26516500D01*
X12833934Y26516500D01*
X12817289Y26518140D01*
X12784002Y26521418D01*
X12783998Y26521418D01*
X12754205Y26518484D01*
X12740228Y26517107D01*
X12727879Y26516500D01*
X11689806Y26516500D01*
X11645879Y26508290D01*
X11635083Y26506752D01*
X11584727Y26501792D01*
X11548970Y26490945D01*
X11535551Y26487666D01*
X11504628Y26481886D01*
X11504625Y26481885D01*
X11456788Y26463353D01*
X11447852Y26460271D01*
X11393124Y26443669D01*
X11393117Y26443666D01*
X11365997Y26429171D01*
X11352129Y26422807D01*
X11328971Y26413835D01*
X11328962Y26413830D01*
X11279727Y26383347D01*
X11272799Y26379356D01*
X11216536Y26349282D01*
X11216525Y26349275D01*
X11197875Y26333970D01*
X11184284Y26324251D01*
X11168800Y26314663D01*
X11168799Y26314663D01*
X11121119Y26271197D01*
X11116169Y26266915D01*
X11061748Y26222253D01*
X11050638Y26208717D01*
X11038142Y26195554D01*
X11029578Y26187746D01*
X10986730Y26131007D01*
X10983583Y26127010D01*
X10934723Y26067471D01*
X10929598Y26057883D01*
X10919037Y26041365D01*
X10916055Y26037417D01*
X10916053Y26037414D01*
X10881417Y25967856D01*
X10879750Y25964627D01*
X10840333Y25890881D01*
X10839105Y25886833D01*
X10834099Y25874236D01*
X10834184Y25874203D01*
X10832079Y25868771D01*
X10809000Y25787661D01*
X10808386Y25785571D01*
X10782208Y25699271D01*
X10782206Y25699261D01*
X10782178Y25698975D01*
X10780648Y25688234D01*
X10780527Y25687591D01*
X10772131Y25596990D01*
X10772062Y25596270D01*
X10762582Y25500005D01*
X10762582Y25499997D01*
X6859144Y25499997D01*
X6944769Y25850476D01*
X6994294Y26220312D01*
X6999447Y26413832D01*
X7004227Y26593311D01*
X7004227Y26593317D01*
X6976744Y26936689D01*
X6991247Y27006189D01*
X7041022Y27056814D01*
X7102342Y27072742D01*
X7936198Y27072742D01*
X7973102Y27109646D01*
X7974644Y27108104D01*
X8009855Y27138614D01*
X8062197Y27150000D01*
X8900000Y27150000D01*
X8900000Y27311344D01*
X8920002Y27379465D01*
X8973658Y27425958D01*
X9043932Y27436062D01*
X9085389Y27422469D01*
X9209120Y27356333D01*
X9400731Y27298208D01*
X9400735Y27298208D01*
X9400737Y27298207D01*
X9599997Y27278582D01*
X9600000Y27278582D01*
X9600002Y27278582D01*
X9629794Y27281517D01*
X9643771Y27282894D01*
X9656121Y27283500D01*
X11143879Y27283500D01*
X11156228Y27282894D01*
X11170205Y27281517D01*
X11199998Y27278582D01*
X11200000Y27278582D01*
X11200003Y27278582D01*
X11399261Y27298207D01*
X11399263Y27298207D01*
X11399264Y27298208D01*
X11399269Y27298208D01*
X11590880Y27356333D01*
X11767469Y27450722D01*
X11922252Y27577748D01*
X12049278Y27732531D01*
X12143667Y27909120D01*
X12201792Y28100731D01*
X12216500Y28250066D01*
X12221418Y28300000D01*
X12217107Y28343773D01*
X12216500Y28356123D01*
X12216500Y29054879D01*
X12217107Y29067230D01*
X12221418Y29110999D01*
X12221418Y29111004D01*
X12201793Y29310262D01*
X12201792Y29310267D01*
X12201792Y29310269D01*
X12177194Y29391358D01*
X12157608Y29455925D01*
X12156975Y29526918D01*
X12194824Y29586985D01*
X12259139Y29617053D01*
X12278183Y29618500D01*
X17059771Y29618500D01*
X17127892Y29598498D01*
G37*
%TD.AperFunction*%
%TD*%
M02*
